<svg id="graphic" xmlns="http://www.w3.org/2000/svg" width="239.783" height="151.421" viewBox="0 0 239.783 151.421">
  <rect id="Rectangle_1185" data-name="Rectangle 1185" width="189.491" height="139.444" transform="translate(49.279 0.123)" fill="#e6e6e6"/>
  <rect id="Rectangle_1186" data-name="Rectangle 1186" width="68.409" height="80.77" transform="translate(66.035 18.848)" fill="#fff"/>
  <rect id="Rectangle_1187" data-name="Rectangle 1187" width="68.409" height="98.099" transform="translate(160.03 20.415)" fill="#fff"/>
  <ellipse id="Ellipse_518" data-name="Ellipse 518" cx="12.255" cy="2.011" rx="12.255" ry="2.011" transform="translate(215.273 145.683)" fill="#e6e6e6"/>
  <ellipse id="Ellipse_519" data-name="Ellipse 519" cx="12.255" cy="2.011" rx="12.255" ry="2.011" transform="translate(92.756 145.729)" fill="#e6e6e6"/>
  <ellipse id="Ellipse_520" data-name="Ellipse 520" cx="28.125" cy="1.548" rx="28.125" ry="1.548" transform="translate(0 144.181)" fill="#e6e6e6"/>
  <rect id="Rectangle_1188" data-name="Rectangle 1188" width="189.491" height="9.25" transform="translate(49.198)" fill="#c2341c"/>
  <ellipse id="Ellipse_521" data-name="Ellipse 521" cx="1.492" cy="1.714" rx="1.492" ry="1.714" transform="translate(53.688 3.015)" fill="#e6e6e6"/>
  <ellipse id="Ellipse_522" data-name="Ellipse 522" cx="1.492" cy="1.714" rx="1.492" ry="1.714" transform="translate(59.352 3.015)" fill="#e6e6e6"/>
  <ellipse id="Ellipse_523" data-name="Ellipse 523" cx="1.492" cy="1.714" rx="1.492" ry="1.714" transform="translate(65.016 3.015)" fill="#e6e6e6"/>
  <path id="Path_2788" data-name="Path 2788" d="M699.841,258.291h-.414V245.249c0-4.17-2.941-7.546-6.571-7.546H668.8c-3.629,0-6.571,3.38-6.571,7.546v71.56c0,4.169,2.942,7.546,6.571,7.546h24.051c3.629,0,6.571-3.38,6.571-7.546V267.575h.414Z" transform="translate(-486.485 -211.561)" fill="#3f3d56"/>
  <path id="Path_2789" data-name="Path 2789" d="M696.009,242.9h-3.14a3.023,3.023,0,0,1-.224,2.506,2.266,2.266,0,0,1-1.935,1.184H676.932A2.266,2.266,0,0,1,675,245.409a3.023,3.023,0,0,1-.224-2.506h-2.932c-2.707,0-4.906,2.524-4.906,5.638V320c0,3.117,2.2,5.638,4.906,5.638h24.167c2.707,0,4.906-2.525,4.906-5.638V248.541c0-3.117-2.2-5.638-4.906-5.638Z" transform="translate(-489.643 -214.804)" fill="#fff"/>
  <rect id="Rectangle_1189" data-name="Rectangle 1189" width="47.548" height="2.492" transform="translate(76.513 69.87)" fill="#e6e6e6"/>
  <rect id="Rectangle_1190" data-name="Rectangle 1190" width="47.548" height="2.492" transform="translate(76.513 77.915)" fill="#c2341c"/>
  <rect id="Rectangle_1191" data-name="Rectangle 1191" width="47.548" height="2.492" transform="translate(76.513 85.961)" fill="#e6e6e6"/>
  <rect id="Rectangle_1192" data-name="Rectangle 1192" width="27.758" height="2.492" transform="translate(180.674 75.307)" fill="#e6e6e6"/>
  <rect id="Rectangle_1193" data-name="Rectangle 1193" width="27.758" height="2.492" transform="translate(180.674 83.043)" fill="#e6e6e6"/>
  <rect id="Rectangle_1194" data-name="Rectangle 1194" width="27.758" height="2.492" transform="translate(180.674 90.78)" fill="#e6e6e6"/>
  <rect id="Rectangle_1195" data-name="Rectangle 1195" width="5.316" height="4.626" transform="translate(211.334 124.161) rotate(90)" fill="#3f3d56"/>
  <rect id="Rectangle_1196" data-name="Rectangle 1196" width="5.316" height="4.626" transform="translate(203.881 124.161) rotate(90)" fill="#c2341c"/>
  <rect id="Rectangle_1197" data-name="Rectangle 1197" width="5.316" height="4.626" transform="translate(196.427 124.161) rotate(90)" fill="#3f3d56"/>
  <rect id="Rectangle_1198" data-name="Rectangle 1198" width="5.316" height="4.626" transform="translate(188.974 124.161) rotate(90)" fill="#3f3d56"/>
  <rect id="Rectangle_1199" data-name="Rectangle 1199" width="5.316" height="4.626" transform="translate(181.521 124.161) rotate(90)" fill="#3f3d56"/>
  <rect id="Rectangle_1200" data-name="Rectangle 1200" width="15.421" height="17.719" transform="translate(186.574 43.012)" fill="#c2341c"/>
  <path id="Path_2790" data-name="Path 2790" d="M411.713,383.493l-.2.458-.6-3.44s-.8-3.67.8-3.67,1.2,3.67,1.2,3.67v2.523Z" transform="translate(-317.555 -298.207)" fill="#a0616a"/>
  <path id="Path_2791" data-name="Path 2791" d="M490.973,382.248l.2.458.6-3.44s.8-3.67-.8-3.67-1.2,3.67-1.2,3.67v2.523Z" transform="translate(-370.625 -297.432)" fill="#a0616a"/>
  <path id="Path_2792" data-name="Path 2792" d="M308.594,294.4l-2.4,16.972,1.2,16.513,2.794-1.375-.4-12.385,2.794-9.862.6,11.7-1.2,12.155,3.592.459,2.6-25-.2-8.486Z" transform="translate(-205.654 -183.325)" fill="#2f2e41"/>
  <path id="Path_2793" data-name="Path 2793" d="M437.643,545.733l-1.394,2.523v5.637a.663.663,0,0,0,.5.675c.685.129,1.878.221,2.3-.574.6-1.148.2-3.67.2-3.67a5.719,5.719,0,0,0,.4-3.211c-.4-1.376-.8-1.605-.8-1.605Z" transform="translate(-334.702 -403.233)" fill="#2f2e41"/>
  <path id="Path_2794" data-name="Path 2794" d="M453.838,551.811l.4.688s.6.688.2,1.148a8.86,8.86,0,0,0-.8,1.148s-2.2.688-2.2-.23v-2.981Z" transform="translate(-344.91 -407.019)" fill="#2f2e41"/>
  <ellipse id="Ellipse_524" data-name="Ellipse 524" cx="2.646" cy="3.04" rx="2.646" ry="3.04" transform="translate(105.563 86.331)" fill="#a0616a"/>
  <path id="Path_2795" data-name="Path 2795" d="M323.723,239.39l-.2,4.358,3.592.23-.2-4.358Z" transform="translate(-217.29 -149.068)" fill="#a0616a"/>
  <path id="Path_2796" data-name="Path 2796" d="M443.8,416.8l-.567-1.59s-2.625-1.161-3.425-.015l-.4,1.376-3.194-.918-1.8,4.587,1.6,13.076s4.192,6.193,9.781.23l1.6-12.385-1.2-4.816Z" transform="translate(-333.478 -321.772)"/>
  <path id="Path_2797" data-name="Path 2797" d="M342.064,233.334l.4-.918,3.992-2.753,2.436-8.284,1.886.928-2.126,9.881-5.789,6.193Z" transform="translate(-229.742 -137.852)"/>
  <path id="Path_2798" data-name="Path 2798" d="M293.688,232.994l-.4-.458-4.192-2.981-2.994-6.881-2.4.914,2.594,8.486,6.388,5.964Z" transform="translate(-190.548 -138.658)"/>
  <path id="Path_2799" data-name="Path 2799" d="M452.8,391l.432-.246-.649-.246v-.246s-3.245-1.491-3.677.994a5.6,5.6,0,0,0,0,5.965v.746l3.461.5.432-1.491S454.966,392.487,452.8,391Z" transform="translate(-342.631 -306.281)" fill="#2f2e41"/>
  <path id="Path_2800" data-name="Path 2800" d="M215.039,463.545l-.769.442s-3.077,1.62-2.179,2.5,3.332-.883,3.332-.883l.513-.738Z" transform="translate(-184.043 -352.197)" fill="#ffb8b8"/>
  <path id="Path_2801" data-name="Path 2801" d="M139.967,294.535l-2.379,18.335L134,325.682l-1.923-1.031,1.795-17.525-5.127-5.007.385-7.364Z" transform="translate(-86.471 -183.405)" fill="#2f2e41"/>
  <path id="Path_2802" data-name="Path 2802" d="M262.825,543.22s2.179-1.326,2.307.589l-.256,1.914s.769,3.387-1.795,2.651-.769-2.945-.769-2.945Z" transform="translate(-217.472 -401.531)" fill="#2f2e41"/>
  <path id="Path_2803" data-name="Path 2803" d="M257.42,478.768l-1.667,1.62s0,10.015,1.153,11.487,8.46,8.984,8.715,9.278,1.41-2.945,1.41-2.945l-6.922-9.278.513-5.741Z" transform="translate(-213.477 -361.676)" fill="#2f2e41"/>
  <path id="Path_2804" data-name="Path 2804" d="M285.4,529.03s2.051-.442,2.051,1.178q.039,1.921.257,3.83s.513,5.155-1.153,4.418-2.307-5.891-2.307-5.891a2.138,2.138,0,0,1,.769-1.031C285.53,531.24,285.4,529.03,285.4,529.03Z" transform="translate(-232.615 -392.942)" fill="#2f2e41"/>
  <path id="Path_2805" data-name="Path 2805" d="M133.635,236.566l.385,5.449-1.025,2.062-2.82-3.093-.257-4.124Z" transform="translate(-87.257 -147.31)" fill="#ffb8b8"/>
  <ellipse id="Ellipse_525" data-name="Ellipse 525" cx="3.076" cy="3.534" rx="3.076" ry="3.534" transform="translate(40.994 83.954)" fill="#ffb8b8"/>
  <path id="Path_2806" data-name="Path 2806" d="M130.248,243.57l1.282-4.271,2.307,2.945,4.23,18.7-3.2,2.21-1.41-2.356-.257,3.093-6.28-1.476L126.4,242.68l1.281-2.073Z" transform="translate(-84.898 -149.011)"/>
  <path id="Path_2809" data-name="Path 2809" d="M287.325,463.9l-.175.967s-.8,3.778.359,3.516,1.462-3.552,1.462-3.552l-.185-.919Z" transform="translate(-234.384 -352.419)" fill="#ffb8b8"/>
  <path id="Path_2811" data-name="Path 2811" d="M254.064,383.721l.9-.518v.518l.6-.346v.864s2.257,1.9,1.8,4.15-.451,2.421-.451,2.421-.574-4.275-2.828-3.583-2.439.82-3.041,2.719l-.164.816S248.346,384.067,254.064,383.721Z" transform="translate(-209.832 -302.167)" fill="#2f2e41"/>
  <rect id="Rectangle_1201" data-name="Rectangle 1201" width="37.792" height="30.176" transform="translate(0.951 114.741)" fill="#c2341c"/>
  <path id="Path_2813" data-name="Path 2813" d="M171.076,488.142c-4.422,0-8.007,4.119-8.007,9.2s3.585,9.2,8.007,9.2,8.007-4.119,8.007-9.2S175.493,488.155,171.076,488.142Zm0,2.76a2.789,2.789,0,1,1-2.4,2.76,2.6,2.6,0,0,1,2.4-2.76Zm0,13.287a5.672,5.672,0,0,1-4.8-2.946c.039-1.84,3.2-2.853,4.8-2.853s4.765,1.013,4.8,2.853a5.681,5.681,0,0,1-4.8,2.945Z" transform="translate(-151.228 -367.514)" fill="#fff"/>
  <rect id="Rectangle_1202" data-name="Rectangle 1202" width="47.401" height="31.255" transform="translate(76.539 28.132)" fill="#e6e6e6"/>
  <path id="Path_2814" data-name="Path 2814" d="M787.1,398.782l.22-1.628s1.28-3.344.268-3.527-1.856,3-1.856,3l.37,3.4Z" transform="translate(-569.429 -308.658)" fill="#ffb8b8"/>
  <path id="Path_2815" data-name="Path 2815" d="M668.347,247l-9.044-2.087-1.051-7.569-2.662-.236.13,9.786,7.858,4.734Z" transform="translate(-440.316 -147.647)" fill="#151515"/>
  <rect id="Rectangle_1203" data-name="Rectangle 1203" width="27.758" height="2.492" transform="translate(231.183 88.124) rotate(180)" fill="#c2341c"/>
  <path id="Path_2817" data-name="Path 2817" d="M781.169,397.276v-1.647s.82-3.527-.2-3.527-1.437,3.292-1.437,3.292l.815,3.3Z" transform="translate(-565.265 -307.708)" fill="#ffb8b8"/>
  <path id="Path_2818" data-name="Path 2818" d="M811.973,402.563l1.241-.348a3.052,3.052,0,0,0,2.475-1.344,4.085,4.085,0,0,0,.656-3.054h0c0-2.65-1.864-4.8-4.171-4.8h0c-2.306,0-4.177,2.142-4.183,4.792h0a4.226,4.226,0,0,0,.8,3.691,3.047,3.047,0,0,0,3.186,1.067Z" transform="translate(-584.298 -308.278)" fill="#2f2e41"/>
  <path id="Path_2819" data-name="Path 2819" d="M671.134,309.775l1.01,12.708,1.829,12.474,3.072,0-.4-12.237L675.026,307.9Z" transform="translate(-450.756 -191.727)" fill="#2f2e41"/>
  <path id="Path_2820" data-name="Path 2820" d="M798.241,546.173l-2.051,1.409s-3.281.466-2.664,1.64,7.781.481,7.782.011-.2-3.059-.611-3.06Z" transform="translate(-574.615 -403.652)" fill="#2f2e41"/>
  <path id="Path_2821" data-name="Path 2821" d="M809.721,474.388a12.268,12.268,0,0,1-1.494,4.638l.2,8.706,7.361,10.835-2.665,2.584-9-11.778-2.238-14.122,2.871-3.29Z" transform="translate(-580.276 -357.438)" fill="#2f2e41"/>
  <path id="Path_2822" data-name="Path 2822" d="M836.294,542.477s2.461.474,2.046,1.65-1.441,6.587-4.1,5.877c0,0-1.23,0-.82-.942a17.872,17.872,0,0,1,.82-1.646v-3.059Z" transform="translate(-601.403 -401.348)" fill="#2f2e41"/>
  <ellipse id="Ellipse_526" data-name="Ellipse 526" cx="3.072" cy="3.529" rx="3.072" ry="3.529" transform="translate(223.274 87.465)" fill="#ffb8b8"/>
  <path id="Path_2823" data-name="Path 2823" d="M686.957,247.409l0,4-3.277,0,.41-4Z" transform="translate(-459.18 -154.059)" fill="#ffb8b8"/>
  <path id="Path_2824" data-name="Path 2824" d="M800.6,422.226l.993-.281,3.1.286s1.64,1.886,1.431,2.355-1.242,12-1.242,12l1.834,8.238-6.554.461-3.276-.476.631-14.824s-1.429-4,.415-5.176a8.47,8.47,0,0,0,2.665-2.584Z" transform="translate(-576.926 -326.294)"/>
  <path id="Path_2825" data-name="Path 2825" d="M663.942,243.928l-9.215-.484-2.04-7.3-2.662.231,1.423,9.65,8.393,3.306Z" transform="translate(-436.58 -147.047)"/>
  <ellipse id="Ellipse_527" data-name="Ellipse 527" cx="1.982" cy="2.277" rx="1.982" ry="2.277" transform="translate(230.294 83.839)" fill="#2f2e41"/>
  <path id="Path_2826" data-name="Path 2826" d="M827.871,389.389a2.422,2.422,0,0,1,.727-1.76,1.8,1.8,0,0,1,1.645-.47,1.777,1.777,0,0,0-2.1.3,2.481,2.481,0,0,0-.666,2.311,2.133,2.133,0,0,0,1.534,1.681,2.322,2.322,0,0,1-1.137-2.06Z" transform="translate(-597.428 -304.496)" fill="#2f2e41"/>
  <path id="Path_2827" data-name="Path 2827" d="M810.972,395.92l-2.672-.565-2.055,1.476a3.791,3.791,0,0,0-1.436,3.5l2.058-.6.461-1.328.549,1.033,2.227,4.473,2.254-1.408,1.436-2.586Z" transform="translate(-582.225 -309.734)" fill="#2f2e41"/>
  <path id="Path_2828" data-name="Path 2828" d="M4.471.121l.6-.034L1.554,56.758l-.6.034Z" transform="translate(74.074 32.218) rotate(-60.15)" fill="#fff"/>
  <path id="Path_2829" data-name="Path 2829" d="M.121,4.47,56.782.955l-.034.6L.087,5.069Z" transform="translate(74.074 55.3) rotate(-29.873)" fill="#fff"/>
  <g id="Component_67" data-name="Component 67" transform="translate(41.407 99.651) rotate(-4.012)">
    <g id="Group_683" data-name="Group 683" transform="translate(1.898 5.777)">
      <path id="Path_2413" data-name="Path 2413" d="M0,.766V.343C0,.125.116,0,.257,0S.5.11.5.309V.381H.369V.328C.369.235.328.175.257.175S.143.24.143.345v.41c0,.121.046.178.116.178S.369.878.369.786V.727H.5V.8c0,.2-.105.31-.239.31S0,1.006,0,.766Z" fill="#fff"/>
      <path id="Path_2414" data-name="Path 2414" d="M.208,0H.381L.586,1.075H.443L.4.821H.176l-.045.254H0ZM.367.656.289.209h0L.207.656Z" transform="translate(0.546 0.016)" fill="#fff"/>
      <path id="Path_2415" data-name="Path 2415" d="M.189.173H0V0H.518V.173H.328v.9H.189Z" transform="translate(1.117 0.018)" fill="#fff"/>
      <path id="Path_2416" data-name="Path 2416" d="M0,0H.2C.336,0,.41.121.41.3.41.46.354.581.246.6l.182.473H.363L.189.615H.058v.46H0ZM.188.543C.3.543.352.461.352.307.348.171.3.074.194.074H.058V.543Z" transform="translate(1.914 0.018)" fill="#c2341c"/>
      <path id="Path_2417" data-name="Path 2417" d="M0,.524V.286C0,.1.075,0,.176,0S.341.1.341.267V.41H.057V.527c0,.135.044.2.132.2A.191.191,0,0,0,.313.669l.02.057A.191.191,0,0,1,.181.8C.074.8,0,.716,0,.524ZM.288.348V.258C.288.164.26.066.171.066S.057.164.057.26V.348Z" transform="translate(2.436 0.312)" fill="#c2341c"/>
      <path id="Path_2418" data-name="Path 2418" d="M0,.927V0H.056V.917c0,.053.016.089.061.089A.209.209,0,0,0,.164,1v.066A.122.122,0,0,1,.1,1.082C.037,1.082,0,1.027,0,.927Z" transform="translate(2.905 0.018)" fill="#c2341c"/>
      <path id="Path_2419" data-name="Path 2419" d="M0,.525V.274C0,.1.071,0,.172,0S.346.1.346.271V.517C.346.7.276.794.174.794S0,.7,0,.525Zm.29,0V.265c0-.108-.034-.2-.119-.2S.056.164.056.272V.519c0,.126.034.205.12.205S.29.635.29.521Z" transform="translate(3.151 0.312)" fill="#c2341c"/>
      <path id="Path_2420" data-name="Path 2420" d="M0,.579C0,.4.1.342.179.341h.1V.2C.281.1.24.063.177.063A.113.113,0,0,0,.066.19V.236H.017V.188A.164.164,0,0,1,.185,0C.267,0,.338.059.338.194v.39c0,.056,0,.154,0,.2H.291l0-.123h0C.254.765.185.8.137.8.065.8,0,.725,0,.579ZM.281.53V.4H.189C.129.4.057.431.057.565c0,.112.047.164.1.164C.223.73.281.646.281.53Z" transform="translate(3.601 0.312)" fill="#c2341c"/>
      <path id="Path_2421" data-name="Path 2421" d="M0,.876V.53C0,.373.072.294.149.294.2.294.261.339.281.429h0V0H.339V1.073H.29V.931h0c-.034.121-.1.164-.147.164C.047,1.091,0,1,0,.876Zm.284-.1V.589C.284.46.221.357.158.357S.056.4.056.53V.863c0,.1.029.158.1.158S.284.927.284.777Z" transform="translate(4.065 0.018)" fill="#c2341c"/>
      <path id="Path_2422" data-name="Path 2422" d="M0,.524V.286C0,.1.075,0,.176,0S.341.1.341.267V.41H.057V.527c0,.135.044.2.132.2A.191.191,0,0,0,.313.669l.02.057A.191.191,0,0,1,.181.8C.073.8,0,.716,0,.524ZM.288.348V.258C.288.164.26.066.171.066S.057.164.057.26V.348Z" transform="translate(4.536 0.312)" fill="#c2341c"/>
      <path id="Path_2423" data-name="Path 2423" d="M0,.876V.53C0,.373.072.294.149.294.2.294.261.339.281.429h0V0H.339V1.073H.29V.931h0c-.034.121-.1.164-.147.164C.047,1.091,0,1,0,.876Zm.284-.1V.589C.284.46.221.357.158.357S.056.4.056.53V.863c0,.1.029.158.1.158S.284.927.284.777Z" transform="translate(4.984 0.018)" fill="#c2341c"/>
    </g>
    <g id="layer1">
      <path id="path3003-4" d="M1.424,0C.956,0,.6.6.453.915A4.656,4.656,0,0,0,0,3.076C.031,4.9.793,6.016,1.411,6.213V5.7C.686,5.416.3,4.071.3,3A4.141,4.141,0,0,1,.691,1.25C.83.985,1.082.574,1.427.492Zm.321.681a.774.774,0,0,0-.426.125A2.133,2.133,0,0,0,.556,2.1,4.49,4.49,0,0,0,.72,4.581c.4.844.974,1.1,1.453.756a2.209,2.209,0,0,0,.265-.225l-.146-.435a1.887,1.887,0,0,1-.236.2C1.173,5.36.438,3.748.821,2.326A1.791,1.791,0,0,1,1.407,1.3a.647.647,0,0,1,.873.2,2.82,2.82,0,0,1,.428,2.18c-.038.164-.121.286-.222.3V3.339a3.981,3.981,0,0,0-.047-.708c-.1-.638-.43-.912-.7-.9-.328.014-.455.222-.594.568a2.191,2.191,0,0,0,.186,1.978.513.513,0,0,0,.547.21.581.581,0,0,0,.171-.09c.048-.039.113-.09.089-.093v-.55a1.565,1.565,0,0,1-.191.18.382.382,0,0,1-.117.063c-.158.02-.234-.02-.361-.17C1.1,3.4,1.25,2.244,1.731,2.21c.208.042.348.2.42.588a3.156,3.156,0,0,1,.039.557c0,.354,0,.848,0,.848v.29H2.3a1.365,1.365,0,0,0,.15,0,.473.473,0,0,0,.134-.034.335.335,0,0,0,.149-.128,1.26,1.26,0,0,0,.19-.439A3.739,3.739,0,0,0,3,2.885,3.094,3.094,0,0,0,2.428,1.07.992.992,0,0,0,1.744.681Z" fill="#c2341c"/>
      <path id="path4227-4" d="M3.006,0c-.126,0-.252.138-.315.4-.153.639-.192.784-.35,1.477-.105.462-.164.688-.3,1.267C2,3.323,1.8,4.179,1.8,4.179l.5,0c.121-.524.133-.563.172-.749.1-.378.164-.685.272-1.136.088-.357.133-.565.17-.713.04-.164.043-.24.092-.246s.07.2.164.574c.054.219.152.635.187.782s.053.258.082.341a2.193,2.193,0,0,1,.057.225c.007.04-.086.016-.2.017H2.751l-.213.9c.612.019,1.062-.03,1.67,0C3.932,3,3.419.849,3.393.739S3.333.492,3.318.421C3.256.137,3.131,0,3.006,0ZM.585.068S.41.1.372.157C.2.3.058.593.006,1.659A9.491,9.491,0,0,0,.082,3.4c.072.4.246.77.4.775H1.63l.2-.9s-.789.016-1.167.011C.437,3.282.481,2.31.473,1.74c0,0,.019-.764.151-.759C1.041,1,2.309.975,2.309.975L2.544.082ZM3.453.082c0,.023.229.9.222.9.246,0,.507-.019.78,0V4.173h.462V.972h.8c0-.43,0-.65,0-.888C4.946.082,4.272.082,3.453.082Z" transform="translate(3.399 1.015)" fill="#fff"/>
    </g>
  </g>
  <path id="Path_2830" data-name="Path 2830" d="M2.078.093l.579-.04L1.039,23.381l-.579.04Z" transform="translate(184.969 44.61) rotate(-45)" fill="#fff"/>
  <path id="Path_2831" data-name="Path 2831" d="M.093,2.078,23.421.461l-.04.579L.052,2.657Z" transform="translate(184.969 59.003) rotate(-45)" fill="#fff"/>
  <g id="Component_66" data-name="Component 66" transform="translate(103.243 101.517)">
    <g id="Group_683-2" data-name="Group 683" transform="translate(1.77 4.877)">
      <path id="Path_2413-2" data-name="Path 2413" d="M0,.647V.29C0,.106.108,0,.239,0A.23.23,0,0,1,.463.261V.322H.344V.277C.344.2.3.148.239.148S.133.2.133.291V.639c0,.1.043.15.108.15s.1-.051.1-.125V.614H.463V.675c0,.171-.1.262-.223.262S0,.849,0,.647Z" fill="#fff"/>
      <path id="Path_2414-2" data-name="Path 2414" d="M.194,0H.358L.547.908H.41L.37.691H.164L.121.908H0ZM.342.551.269.176h0L.193.551Z" transform="translate(0.509 0.014)" fill="#fff"/>
      <path id="Path_2415-2" data-name="Path 2415" d="M.176.146H0V0H.483V.146H.308V.9H.176Z" transform="translate(1.042 0.015)" fill="#fff"/>
      <path id="Path_2416-2" data-name="Path 2416" d="M0,0H.189C.313,0,.38.1.38.254.38.389.328.492.23.507L.4.9H.339L.176.518H.055V.9H0ZM.175.458c.1,0,.153-.066.153-.2,0-.114-.045-.2-.147-.2H.055v.4Z" transform="translate(1.786 0.015)" fill="#c2341c"/>
      <path id="Path_2417-2" data-name="Path 2417" d="M0,.442v-.2C0,.082.07,0,.164,0S.317.082.317.225V.347H.052v.1c0,.114.042.164.123.164A.186.186,0,0,0,.292.564L.311.613A.186.186,0,0,1,.169.673C.069.673,0,.6,0,.442ZM.268.294V.217C.268.135.242.053.159.053S.052.135.052.217V.291H.268Z" transform="translate(2.273 0.263)" fill="#c2341c"/>
      <path id="Path_2418-2" data-name="Path 2418" d="M0,.783V0H.052V.774c0,.044.015.075.057.075a.215.215,0,0,0,.042,0V.9A.124.124,0,0,1,.093.915C.034.914,0,.867,0,.783Z" transform="translate(2.709 0.015)" fill="#c2341c"/>
      <path id="Path_2419-2" data-name="Path 2419" d="M0,.444V.231C0,.082.066,0,.164,0S.328.082.328.229V.44C.328.595.262.673.164.673S0,.592,0,.444Zm.271,0V.224C.271.132.239.057.164.057S.052.136.052.23V.441c0,.107.03.172.112.172S.271.536.271.44Z" transform="translate(2.94 0.263)" fill="#c2341c"/>
      <path id="Path_2420-2" data-name="Path 2420" d="M0,.492C0,.34.092.289.164.287h.1V.169C.262.088.224.053.164.053a.1.1,0,0,0-.1.111V.2H.016V.159A.148.148,0,0,1,.172,0C.254,0,.316.049.316.164V.492c0,.047,0,.131,0,.164H.271V.55h0A.15.15,0,0,1,.128.673C.06.673,0,.612,0,.492ZM.262.448V.338H.176C.121.338.053.363.053.479c0,.1.043.138.09.138C.208.617.262.545.262.448Z" transform="translate(3.359 0.263)" fill="#c2341c"/>
      <path id="Path_2421-2" data-name="Path 2421" d="M0,.738V.448c0-.133.067-.2.139-.2A.135.135,0,0,1,.262.363h0V0H.317V.9H.27V.782h0C.239.883.181.918.133.918.043.922,0,.84,0,.738ZM.264.656V.5C.264.388.206.3.147.3s-.1.037-.1.147V.728c0,.082.027.134.093.134S.264.783.264.656Z" transform="translate(3.792 0.015)" fill="#c2341c"/>
      <path id="Path_2422-2" data-name="Path 2422" d="M0,.442v-.2C0,.082.07,0,.164,0S.317.082.317.225V.347H.052v.1c0,.114.042.164.123.164A.186.186,0,0,0,.292.564L.311.613A.186.186,0,0,1,.169.673C.068.673,0,.6,0,.442ZM.268.294V.217C.268.135.242.053.159.053S.052.135.052.217V.291H.268Z" transform="translate(4.231 0.263)" fill="#c2341c"/>
      <path id="Path_2423-2" data-name="Path 2423" d="M0,.738V.448c0-.133.067-.2.139-.2A.135.135,0,0,1,.262.363h0V0H.317V.9H.27V.782h0C.239.883.181.918.133.918.043.922,0,.84,0,.738ZM.265.656V.5C.265.388.206.3.147.3s-.1.037-.1.147V.728c0,.082.027.134.093.134S.265.783.265.656Z" transform="translate(4.649 0.015)" fill="#c2341c"/>
    </g>
    <g id="layer1-2" data-name="layer1">
      <path id="path3003-4-2" data-name="path3003-4" d="M1.328,0C.892,0,.559.506.422.773A3.622,3.622,0,0,0,0,2.6C.029,4.139.738,5.079,1.312,5.245V4.81C.64,4.571.276,3.437.277,2.535a3.23,3.23,0,0,1,.367-1.48A1.238,1.238,0,0,1,1.331.416Zm.3.574a.778.778,0,0,0-.4.107A1.781,1.781,0,0,0,.518,1.772a3.45,3.45,0,0,0,.15,2.1c.371.713.908.933,1.356.638a2.017,2.017,0,0,0,.246-.19L2.137,3.95a1.722,1.722,0,0,1-.22.17C1.094,4.524.41,3.164.764,1.964A1.485,1.485,0,0,1,1.312,1.1a.645.645,0,0,1,.814.172,2.2,2.2,0,0,1,.4,1.841c-.035.141-.113.242-.208.254V2.818a3.048,3.048,0,0,0-.043-.6c-.094-.538-.4-.77-.656-.763-.308.012-.424.188-.554.48a1.7,1.7,0,0,0,.17,1.672.505.505,0,0,0,.511.178.563.563,0,0,0,.164-.076c.045-.033.1-.076.082-.082V3.166a1.413,1.413,0,0,1-.178.152.37.37,0,0,1-.108.053.338.338,0,0,1-.336-.144c-.338-.358-.2-1.334.246-1.363.194.035.328.169.391.5a2.416,2.416,0,0,1,.036.471c0,.3,0,.716,0,.716v.246h.246a.48.48,0,0,0,.125-.028.307.307,0,0,0,.139-.108,1.018,1.018,0,0,0,.177-.377,2.866,2.866,0,0,0,.071-.85A2.451,2.451,0,0,0,2.269.9.956.956,0,0,0,1.626.574Z" fill="#c2341c"/>
      <path id="path4227-4-2" data-name="path4227-4" d="M2.8,0c-.117,0-.235.116-.294.341-.142.54-.18.663-.328,1.245-.1.39-.153.581-.279,1.066-.036.152-.225.874-.225.874h.47c.113-.442.124-.475.164-.632.094-.319.151-.578.254-.959.082-.3.125-.477.158-.6s.04-.2.082-.206.065.171.15.484c.051.185.142.536.175.656s.05.217.075.288a1.709,1.709,0,0,1,.054.189c.006.034-.082.013-.19.015H2.563l-.2.767c.574.016.991-.025,1.558,0-.256-1-.738-2.813-.759-2.907s-.057-.2-.071-.264C3.035.116,2.921,0,2.8,0ZM.545.057S.383.082.346.132C.188.257.054.5,0,1.4a7.26,7.26,0,0,0,.07,1.471c.068.338.231.65.372.656H1.521l.185-.763s-.738.015-1.088.013c-.209,0-.168-.82-.176-1.3,0,0,.017-.645.141-.641.39.013,1.572,0,1.572,0L2.374.072ZM3.22.068c0,.02.213.761.207.764.231,0,.472-.016.728,0v2.69h.431V.82h.751c0-.363,0-.549,0-.75-.724,0-1.353,0-2.117,0Z" transform="translate(3.17 0.857)" fill="#fff"/>
    </g>
  </g>
  <path id="Path_2807" data-name="Path 2807" d="M121.377,266.67l-.769-23.858-1.667,1.476-3.077,2.356,2.051,8.395.641,8.836Z" transform="translate(-77.819 -151.199)" fill="#2f2e41"/>
  <path id="Path_2808" data-name="Path 2808" d="M101.032,253.108l-.9-.148-2.563,8.689-5.127,7.364,1.923,2.356,5.9-6.627,2.179-5.449Z" transform="translate(-62.089 -157.518)" fill="#2f2e41"/>
  <path id="Path_2810" data-name="Path 2810" d="M141.2,238.665l6.352,2.89-.769,8.836,1.538,9.72-1.538,1.914-5.687-22.109Z" transform="translate(-94.763 -148.617)" fill="#2f2e41"/>
  <path id="Path_2812" data-name="Path 2812" d="M155.924,246.325h1.025l1.667,10.309v8.984l-2.051-.442L154.9,251.626Z" transform="translate(-104.036 -153.386)" fill="#2f2e41"/>
  <g id="Component_68" data-name="Component 68" transform="translate(223.495 99.349) rotate(-4.012)">
    <g id="Group_683-3" data-name="Group 683" transform="translate(1.898 5.777)">
      <path id="Path_2413-3" data-name="Path 2413" d="M0,.766V.343C0,.125.116,0,.257,0S.5.11.5.309V.381H.369V.328C.369.235.328.175.257.175S.143.24.143.345v.41c0,.121.046.178.116.178S.369.878.369.786V.727H.5V.8c0,.2-.105.31-.239.31S0,1.006,0,.766Z" fill="#fff"/>
      <path id="Path_2414-3" data-name="Path 2414" d="M.208,0H.381L.586,1.075H.443L.4.821H.176l-.045.254H0ZM.367.656.289.209h0L.207.656Z" transform="translate(0.546 0.016)" fill="#fff"/>
      <path id="Path_2415-3" data-name="Path 2415" d="M.189.173H0V0H.518V.173H.328v.9H.189Z" transform="translate(1.117 0.018)" fill="#fff"/>
      <path id="Path_2416-3" data-name="Path 2416" d="M0,0H.2C.336,0,.41.121.41.3.41.46.354.581.246.6l.182.473H.363L.189.615H.058v.46H0ZM.188.543C.3.543.352.461.352.307.348.171.3.074.194.074H.058V.543Z" transform="translate(1.914 0.018)" fill="#c2341c"/>
      <path id="Path_2417-3" data-name="Path 2417" d="M0,.524V.286C0,.1.075,0,.176,0S.341.1.341.267V.41H.057V.527c0,.135.044.2.132.2A.191.191,0,0,0,.313.669l.02.057A.191.191,0,0,1,.181.8C.074.8,0,.716,0,.524ZM.288.348V.258C.288.164.26.066.171.066S.057.164.057.26V.348Z" transform="translate(2.436 0.312)" fill="#c2341c"/>
      <path id="Path_2418-3" data-name="Path 2418" d="M0,.927V0H.056V.917c0,.053.016.089.061.089A.209.209,0,0,0,.164,1v.066A.122.122,0,0,1,.1,1.082C.037,1.082,0,1.027,0,.927Z" transform="translate(2.905 0.018)" fill="#c2341c"/>
    </g>
    <g id="layer1-3" data-name="layer1">
      <path id="path3003-4-3" data-name="path3003-4" d="M1.424,0C.956,0,.6.6.453.915A4.656,4.656,0,0,0,0,3.076C.031,4.9.793,6.016,1.411,6.213V5.7C.686,5.416.3,4.071.3,3A4.141,4.141,0,0,1,.691,1.25C.83.985,1.082.574,1.427.492Zm.321.681a.774.774,0,0,0-.426.125A2.133,2.133,0,0,0,.556,2.1,4.49,4.49,0,0,0,.72,4.581c.4.844.974,1.1,1.453.756a2.209,2.209,0,0,0,.265-.225l-.146-.435a1.887,1.887,0,0,1-.236.2C1.173,5.36.438,3.748.821,2.326A1.791,1.791,0,0,1,1.407,1.3a.647.647,0,0,1,.873.2,2.82,2.82,0,0,1,.428,2.18c-.038.164-.121.286-.222.3V3.339a3.981,3.981,0,0,0-.047-.708c-.1-.638-.43-.912-.7-.9-.328.014-.455.222-.594.568a2.191,2.191,0,0,0,.186,1.978.513.513,0,0,0,.547.21.581.581,0,0,0,.171-.09c.048-.039.113-.09.089-.093v-.55a1.565,1.565,0,0,1-.191.18.382.382,0,0,1-.117.063c-.158.02-.234-.02-.361-.17C1.1,3.4,1.25,2.244,1.731,2.21c.208.042.348.2.42.588a3.156,3.156,0,0,1,.039.557c0,.354,0,.848,0,.848v.29H2.3a1.365,1.365,0,0,0,.15,0,.473.473,0,0,0,.134-.034.335.335,0,0,0,.149-.128,1.26,1.26,0,0,0,.19-.439A3.739,3.739,0,0,0,3,2.885,3.094,3.094,0,0,0,2.428,1.07.992.992,0,0,0,1.744.681Z" fill="#c2341c"/>
      <path id="path4227-4-3" data-name="path4227-4" d="M.585,0S.41.034.372.089C.2.236.058.525.006,1.591a9.492,9.492,0,0,0,.076,1.74c.071.4.246.772.4.772H1.628l.2-.9s-.789.017-1.167.016c-.224,0-.181-.972-.189-1.543,0,0,.019-.764.151-.759C1.039.93,2.307.908,2.307.908L2.428.025Z" transform="translate(3.399 1.083)" fill="#fff"/>
    </g>
  </g>
</svg>
