<svg xmlns="http://www.w3.org/2000/svg" width="24" height="24" viewBox="0 0 24 24">
  <path id="github" d="M12,0A12.154,12.154,0,0,0,0,12.3,12.283,12.283,0,0,0,8.208,23.976c.6.113.818-.266.818-.593,0-.293-.011-1.065-.017-2.093-3.337.744-4.041-1.649-4.041-1.649a3.231,3.231,0,0,0-1.332-1.8c-1.091-.763.08-.748.08-.748a2.527,2.527,0,0,1,1.838,1.263,2.52,2.52,0,0,0,3.493,1.021,2.648,2.648,0,0,1,.762-1.645c-2.664-.311-5.466-1.367-5.466-6.08a4.826,4.826,0,0,1,1.236-3.3A4.521,4.521,0,0,1,5.7,5.1s1-.33,3.3,1.257a11.1,11.1,0,0,1,6.008,0C17.3,4.768,18.3,5.1,18.3,5.1a4.527,4.527,0,0,1,.12,3.255,4.816,4.816,0,0,1,1.231,3.308c0,4.725-2.8,5.765-5.478,6.07a2.977,2.977,0,0,1,.815,2.28c0,1.645-.014,2.972-.014,3.374,0,.329.216.713.824.592A12.286,12.286,0,0,0,24,12.3,12.155,12.155,0,0,0,12,0Z" transform="translate(0.001)"/>
</svg>
