<svg id="Group_1217" data-name="Group 1217" xmlns="http://www.w3.org/2000/svg" width="86.674" height="115" viewBox="0 0 86.674 115">
  <g id="Group_971" data-name="Group 971" transform="translate(55.848)">
    <path id="Path_2529" data-name="Path 2529" d="M912.7,518.1s.973,30.281,2.633,34.156c1.383,3.228,2.19,13.754,2.421,17.18.047.687.07,1.089.07,1.089s4.429,0,4.705-1.107,1.107-13.286,0-17.161,1.578-32.527,1.578-32.527Z" transform="translate(-905.197 -461.81)" fill="#2f2e41"/>
    <path id="Path_2530" data-name="Path 2530" d="M904,736.067s-2.768.829-3.322,1.938-9.688,3.045-6.92,4.429,11.072-1.107,11.072-1.107,4.429-.277,4.152-1.938a16.408,16.408,0,0,0-1.285-3.707Z" transform="translate(-890.266 -628.736)" fill="#2f2e41"/>
    <path id="Path_2531" data-name="Path 2531" d="M937.293,739.867s-2.768.83-3.321,1.938-9.688,3.045-6.92,4.428,11.072-1.107,11.072-1.107,4.429-.277,4.152-1.938a16.411,16.411,0,0,0-1.285-3.707Z" transform="translate(-915.808 -631.652)" fill="#2f2e41"/>
    <path id="Path_2532" data-name="Path 2532" d="M922.824,517.851l3.875,6.643,6.467,23.1s-.655,21.191.176,21.191,5.259,1.384,5.536,0c.233-1.169,3.334-12.368,1.789-19.822a95.339,95.339,0,0,1-1.934-14.3l-.685-12.933s2.768-4.982-.277-5.813S922.824,517.851,922.824,517.851Z" transform="translate(-912.964 -460.013)" fill="#2f2e41"/>
    <circle id="Ellipse_498" data-name="Ellipse 498" cx="6.643" cy="6.643" r="6.643" transform="translate(6.815 1.925)" fill="#ffb8b8"/>
    <path id="Path_2533" data-name="Path 2533" d="M934.714,323.929s1.107,8.857.83,9.411,6.643-6.09,6.643-6.09-2.491-3.875-1.938-5.813Z" transform="translate(-922.086 -310.932)" fill="#ffb8b8"/>
    <g id="Group_966" data-name="Group 966" transform="translate(6.816 15.212)">
      <path id="Path_2534" data-name="Path 2534" d="M931.064,348.293s-7.75-5.536-8.027-6.643l-5.813,4.982-.988-1.176s-4.548,4.5-4.548,6.435-.277,7.75.554,9.411-2.491,22.7-2.491,22.7,2.768,2.491,3.045,2.768,11.349-1.661,11.349-1.661,5.536-.554,5.536-1.384-1.661-13.286-1.107-16.608S931.064,348.293,931.064,348.293Z" transform="translate(-909.751 -341.65)"/>
    </g>
    <path id="Path_2535" data-name="Path 2535" d="M910.018,281.561a4.677,4.677,0,0,1,2.835-.221c1.311.379,2.218,1.528,3.2,2.478s2.351,1.793,3.64,1.345a2.134,2.134,0,0,1,.408-1.576,1.449,1.449,0,0,0,.362-.6c.055-.356-.244-.663-.334-1.011-.157-.611.274-1.448-.256-1.79-.14-.09-.317-.111-.453-.206-.536-.374.059-1.306-.3-1.855a1.134,1.134,0,0,0-.4-.336c-2.569-1.5-5.71-1.5-8.684-1.465-.414.005-.99.211-.874.608-.562-.4-1.3.163-1.751.686l-.927,1.071a8.249,8.249,0,0,0-1.133,1.533c-.283.541-.346,1.374.218,1.61-.419-.176-.927,2.307,1,1.9C907.7,283.488,908.8,281.995,910.018,281.561Z" transform="translate(-899.397 -276.311)" fill="#2f2e41"/>
    <path id="Path_2539" data-name="Path 2539" d="M910.261,403.476s1.384,17.992-.554,18.545-8.857,4.706-19.928,3.6c0,0-10.795,5.813-9.134.277s9.134-4.152,9.134-4.152,13.286-2.768,13.84-4.706-1.661-9.964-.83-10.242S910.261,403.476,910.261,403.476Z" transform="translate(-880.471 -373.871)" fill="#ffb8b8"/>
    <path id="Path_2540" data-name="Path 2540" d="M974.063,370.739l4.429-.554s4.429,8.581,1.938,9.964-8.857,2.491-8.857,1.938S974.063,370.739,974.063,370.739Z" transform="translate(-950.363 -348.33)"/>
    <g id="Component_38_11" data-name="Component 38 – 11" transform="matrix(0.999, 0.035, -0.035, 0.999, 9.661, 29.422)">
      <g id="Group_683" data-name="Group 683" transform="translate(1.87 3.649)">
        <path id="Path_2413" data-name="Path 2413" d="M0,.486V.219A.226.226,0,0,1,.253,0c.133,0,.236.07.236.2V.243H.363V.209a.1.1,0,0,0-.11-.1A.1.1,0,0,0,.14.22V.48A.1.1,0,0,0,.254.592.1.1,0,0,0,.362.5V.461H.489V.508c0,.128-.1.2-.235.2S0,.637,0,.486Z" transform="translate(0 0)" fill="#fff"/>
        <path id="Path_2414" data-name="Path 2414" d="M.205,0h.17l.2.679H.438L.391.516H.174L.129.679H0ZM.362.413.284.132h0L.2.413Z" transform="translate(0.538 0.012)" fill="#fff"/>
        <path id="Path_2415" data-name="Path 2415" d="M.186.109H0V0H.51V.109H.326V.678H.186Z" transform="translate(1.1 0.013)" fill="#fff"/>
        <path id="Path_2416" data-name="Path 2416" d="M0,0H.2a.179.179,0,0,1,.2.19A.173.173,0,0,1,.242.381l.18.3H.358L.186.389H.058V.68H0ZM.185.345C.29.345.343.3.343.2A.135.135,0,0,0,.192.048H.058v.3Z" transform="translate(1.885 0.012)" fill="#c2341c"/>
        <path id="Path_2417" data-name="Path 2417" d="M0,.331V.181A.165.165,0,0,1,.175,0,.151.151,0,0,1,.336.169V.26H.057V.333c0,.086.044.125.13.125A.243.243,0,0,0,.31.423l.02.036A.241.241,0,0,1,.18.505.158.158,0,0,1,0,.331ZM.284.22V.163A.108.108,0,0,0,.168.043.112.112,0,0,0,.057.165V.22Z" transform="translate(2.399 0.198)" fill="#c2341c"/>
        <path id="Path_2418" data-name="Path 2418" d="M0,.586V0H.055V.579c0,.033.016.056.06.056a.318.318,0,0,0,.044,0V.675A.177.177,0,0,1,.1.685a.089.089,0,0,1-.1-.1Z" transform="translate(2.86 0.013)" fill="#c2341c"/>
        <path id="Path_2419" data-name="Path 2419" d="M0,.333V.174A.16.16,0,0,1,.171,0,.157.157,0,0,1,.342.172V.33a.158.158,0,0,1-.17.175A.157.157,0,0,1,0,.333Zm.286,0V.168A.11.11,0,0,0,.171.044C.086.044.056.1.056.173V.331C.056.411.09.46.174.46S.287.4.287.33Z" transform="translate(3.103 0.198)" fill="#c2341c"/>
        <path id="Path_2420" data-name="Path 2420" d="M0,.366A.158.158,0,0,1,.176.215h.1V.126C.278.065.237.04.175.04S.066.065.066.12v.03H.017V.119C.017.04.091,0,.182,0S.333.037.333.123V.369c0,.035,0,.1,0,.124H.287l0-.08h0A.156.156,0,0,1,.135.5.128.128,0,0,1,0,.366ZM.278.335V.253H.187C.128.253.058.272.058.359a.093.093,0,0,0,.095.1A.125.125,0,0,0,.278.335Z" transform="translate(3.546 0.199)" fill="#c2341c"/>
        <path id="Path_2421" data-name="Path 2421" d="M0,.554V.335A.142.142,0,0,1,.147.186.136.136,0,0,1,.278.272h0V0H.333V.678H.284l0-.09h0a.156.156,0,0,1-.145.1A.127.127,0,0,1,0,.554ZM.28.491V.372A.14.14,0,0,0,.156.226c-.054,0-.1.027-.1.109v.21a.088.088,0,0,0,.1.1A.14.14,0,0,0,.28.491Z" transform="translate(4.003 0.013)" fill="#c2341c"/>
        <path id="Path_2422" data-name="Path 2422" d="M0,.331V.181A.165.165,0,0,1,.175,0,.151.151,0,0,1,.336.169V.26H.057V.333c0,.086.044.125.13.125A.243.243,0,0,0,.31.423l.02.036A.241.241,0,0,1,.18.505.158.158,0,0,1,0,.331ZM.284.22V.163A.108.108,0,0,0,.168.043.112.112,0,0,0,.057.165V.22Z" transform="translate(4.466 0.198)" fill="#c2341c"/>
        <path id="Path_2423" data-name="Path 2423" d="M0,.554V.335A.141.141,0,0,1,.147.186.136.136,0,0,1,.278.272h0V0H.333V.678H.284l0-.09h0a.156.156,0,0,1-.145.1A.127.127,0,0,1,0,.554ZM.28.491V.372A.14.14,0,0,0,.156.226c-.054,0-.1.027-.1.109v.21a.088.088,0,0,0,.1.1A.14.14,0,0,0,.28.491Z" transform="translate(4.908 0.013)" fill="#c2341c"/>
      </g>
      <g id="layer1" transform="translate(0 0)">
        <path id="path3003-4" d="M1.4,0A1.293,1.293,0,0,0,.447.578,2.108,2.108,0,0,0,0,1.943,2,2,0,0,0,1.39,3.926V3.6a1.733,1.733,0,0,1-1.1-1.7A1.906,1.906,0,0,1,.681.79,1.229,1.229,0,0,1,1.406.311Zm.316.43A1.094,1.094,0,0,0,1.3.509a1.4,1.4,0,0,0-.752.818A1.887,1.887,0,0,0,.706,2.9a1.158,1.158,0,0,0,1.431.478A2.191,2.191,0,0,0,2.4,3.231l-.14-.273a1.857,1.857,0,0,1-.233.127c-.87.3-1.593-.716-1.219-1.615A1.143,1.143,0,0,1,1.385.823a.887.887,0,0,1,.86.129A1.308,1.308,0,0,1,2.67,2.33a.267.267,0,0,1-.219.19c0-.112,0-.276,0-.41A1.639,1.639,0,0,0,2.4,1.662a.709.709,0,0,0-.692-.572.617.617,0,0,0-.585.359A.978.978,0,0,0,1.308,2.7a.674.674,0,0,0,.539.133.722.722,0,0,0,.169-.057c.048-.024.111-.057.088-.058V2.37a1.481,1.481,0,0,1-.188.113.474.474,0,0,1-.115.04.434.434,0,0,1-.355-.108c-.357-.269-.214-1,.26-1.021a.454.454,0,0,1,.413.372,1.3,1.3,0,0,1,.039.351c0,.224,0,.535,0,.535l0,.183h.112s.067,0,.148,0a.687.687,0,0,0,.132-.021A.336.336,0,0,0,2.7,2.735a.71.71,0,0,0,.188-.278,1.547,1.547,0,0,0,.074-.636A1.553,1.553,0,0,0,2.4.675,1.2,1.2,0,0,0,1.719.43Z" fill="#c2341c"/>
        <path id="path4227-4" d="M2.965,0a.348.348,0,0,0-.311.256c-.15.4-.189.5-.344.931-.1.292-.161.435-.294.8l-.24.652.5,0c.12-.331.131-.356.17-.474.1-.239.159-.433.268-.718.086-.225.131-.357.167-.451s.042-.152.09-.154.068.129.159.362c.053.138.15.4.184.494s.053.163.079.215a1,1,0,0,1,.057.142c.006.025-.085.01-.2.011-.219,0-.534,0-.534,0l-.21.569c.6.012,1.046-.019,1.645,0C3.877,1.9,3.371.538,3.346.468s-.059-.155-.074-.2A.339.339,0,0,0,2.965,0ZM.582.043A.645.645,0,0,0,.372.1C.2.192.063.375.011,1.048a3.876,3.876,0,0,0,.073,1.1c.071.253.244.486.393.489H1.612l.195-.571s-.778.011-1.149.01C.437,2.075.48,1.46.472,1.1.472,1.1.49.617.62.62c.411.01,1.66,0,1.66,0L2.513.053ZM3.4.051c0,.015.225.57.219.572.244,0,.5-.012.768,0V2.637l.455,0V.616H5.64c0-.272,0-.411,0-.561C4.876.051,4.212.052,3.4.051Z" transform="translate(3.342 0.642)" fill="#fff"/>
      </g>
    </g>
  </g>
  <g id="Group_1013" data-name="Group 1013" transform="translate(0 6.227)">
    <path id="Path_2501" data-name="Path 2501" d="M613.6,331.023l2.879-.41,1.016,10.661L620.09,356a2.4,2.4,0,0,1,1.022,2.395,2.073,2.073,0,0,1-1.6,1.869,1.835,1.835,0,0,1-1.938-1.328,2.584,2.584,0,0,1,.5-2.627l-2.607-8.675Z" transform="translate(-590.183 -301.164)" fill="#ffb6b6"/>
    <path id="Path_2502" data-name="Path 2502" d="M363.127,478.019H365.5l1.129-11.076h-3.5Z" transform="translate(-343.893 -372.156)" fill="#ffb6b6"/>
    <path id="Path_2503" data-name="Path 2503" d="M641.207,702.477h7.649v-.116c0-1.99-1.333-3.6-2.977-3.6h-4.672Z" transform="translate(-622.577 -593.83)" fill="#2f2e41"/>
    <path id="Path_2504" data-name="Path 2504" d="M460.747,471.161l2.328.544,2.843-10.616-3.436-.8Z" transform="translate(-459.718 -366.863)" fill="#ffb6b6"/>
    <path id="Path_2505" data-name="Path 2505" d="M751.6,694.173l7.51,1.756.018-.115a3.631,3.631,0,0,0-2.359-4.222h0l-4.586-1.072Z" transform="translate(-751.6 -587.281)" fill="#2f2e41"/>
    <path id="Path_2506" data-name="Path 2506" d="M653.371,195.693l-1.378,3.2-10.323-2.756,1.131-6.206c.9-4.912,4.484-8.46,8.542-7.377s5.952,5.885,5.057,10.8l-1.664,6.274-1.683-.449Z" transform="translate(-630.87 -182.359)" fill="#2f2e41"/>
    <path id="Path_2507" data-name="Path 2507" d="M661.839,417.493a53.577,53.577,0,0,1-.339,15.172c-1.355,9.021-1.694,12.916-1.694,12.916s1.016,1.435.339,2.255,0,2.46,0,2.46l-1.524,19.887-5.251-1.024.677-18.657s-.677-1.64-.339-2.05-.339-2.87-.339-2.87l-.847-19.477-5.25,21.321a1.327,1.327,0,0,1,0,1.435,22.2,22.2,0,0,0-1.524,3.69L642.362,466.9l-5.42-1.23,3.05-16.4a1.961,1.961,0,0,1,.17-1.64,1.843,1.843,0,0,0,.339-1.435,1.107,1.107,0,0,1,.169-1.435c.677-.82,1.016-4.1,1.016-4.1s.508-21.937,2.2-23.167S661.839,417.493,661.839,417.493Z" transform="translate(-635.204 -369.796)" fill="#2f2e41"/>
    <path id="Path_2541" data-name="Path 2541" d="M4.742,0C2.123,0,0,2.57,0,5.741c0,2.342.256,3.787,2.009,4.717A30.19,30.19,0,0,0,.54,14.315c-.093.675,1.876.724,1.967.757l1.45.45.785-4.041c.215.047-.288,0,0,0,2.619,0,4.742-2.57,4.742-5.741S7.361,0,4.742,0Z" transform="translate(13.984 3.711)" fill="#ffb6b6"/>
    <path id="Path_2508" data-name="Path 2508" d="M636.8,263.493l1.015,24.808a2.092,2.092,0,0,0-.339,2.05,7.054,7.054,0,0,1,0,2.87s-1.016,1.435-.508,2.05,18.8.205,18.8.205.677-1.435-.339-2.255-.508-3.075-.508-3.075.339-.615-.508-1.64-1.524-9.431-1.524-9.431l2.2-10.251s-2.216-3.028-7.945-4.163l-1.769.748-1.461-1.663S637.815,262.263,636.8,263.493Z" transform="translate(-628.963 -247.37)"/>
    <path id="Path_2509" data-name="Path 2509" d="M627.357,291.754l2.624-.141a25.064,25.064,0,0,1,1.694,6.971l.933,12.237-6.014,1.09Z" transform="translate(-603.854 -270.159)"/>
    <path id="Path_2510" data-name="Path 2510" d="M658.172,199.5l1.762-2.744a2.277,2.277,0,0,0-1.4-2.659l-6.655-1.777a1.877,1.877,0,0,0-2.2,1.7l0,.02.476,3.313.084-.018c4.13-.891,5.307-.578,7.869,2.1Z" transform="translate(-635.133 -191.185)" fill="#2f2e41"/>
    <path id="Path_2511" data-name="Path 2511" d="M737.864,334.237l.318-16.143.339-11.481,4.065.615L740.4,334.669a2.648,2.648,0,0,1,.161,2.523,1.784,1.784,0,0,1-1.877,1.115,2.042,2.042,0,0,1-1.551-1.7A2.514,2.514,0,0,1,737.864,334.237Z" transform="translate(-732.548 -282.084)" fill="#ffb6b6"/>
    <path id="Path_2512" data-name="Path 2512" d="M739.877,265.959l-2.965-.346s-.508,0-1.016,2.05-3.3,23.719-3.3,23.719l6.181.679Z" transform="translate(-729.076 -249.49)"/>
    <g id="Component_38_14" data-name="Component 38 – 14" transform="translate(14.392 23.789) rotate(6.024)">
      <g id="Group_683-2" data-name="Group 683" transform="translate(1.563 2.974)">
        <path id="Path_2413-2" data-name="Path 2413" d="M0,.4V.179A.188.188,0,0,1,.212,0c.111,0,.2.057.2.159V.2H.3V.171C.3.123.268.091.211.091A.084.084,0,0,0,.118.179V.392a.085.085,0,0,0,.1.091C.267.483.3.454.3.406V.376H.409V.413c0,.1-.087.16-.2.16S0,.52,0,.4Z" transform="translate(0 0)" fill="#fff"/>
        <path id="Path_2414-2" data-name="Path 2414" d="M.172,0H.314L.483.554H.365L.326.421H.145L.108.554H0ZM.3.337.238.108h0L.17.337Z" transform="translate(0.45 0.01)" fill="#fff"/>
        <path id="Path_2415-2" data-name="Path 2415" d="M.155.089H0V0H.426V.089H.272V.553H.156V.089Z" transform="translate(0.92 0.011)" fill="#fff"/>
        <path id="Path_2416-2" data-name="Path 2416" d="M0,0H.167A.148.148,0,0,1,.335.156.142.142,0,0,1,.2.311l.15.244H.3L.155.318H.048V.554H0ZM.154.281C.243.281.287.24.287.159A.111.111,0,0,0,.16.039H.048V.281Z" transform="translate(1.576 0.01)" fill="#c2341c"/>
        <path id="Path_2417-2" data-name="Path 2417" d="M0,.27V.148A.136.136,0,0,1,.146,0,.125.125,0,0,1,.28.138V.212H.047v.06c0,.07.037.1.109.1a.207.207,0,0,0,.1-.029L.275.374A.205.205,0,0,1,.15.412.131.131,0,0,1,0,.27ZM.237.18V.133a.089.089,0,0,0-.1-.1.093.093,0,0,0-.093.1V.179h.19Z" transform="translate(2.006 0.162)" fill="#c2341c"/>
        <path id="Path_2418-2" data-name="Path 2418" d="M0,.478V0H.047V.472C.047.5.06.519.1.519l.037,0V.551A.152.152,0,0,1,.082.559.074.074,0,0,1,0,.478Z" transform="translate(2.391 0.011)" fill="#c2341c"/>
        <path id="Path_2419-2" data-name="Path 2419" d="M0,.271V.142A.132.132,0,0,1,.143,0,.13.13,0,0,1,.286.14V.269A.131.131,0,0,1,.144.412.13.13,0,0,1,0,.271Zm.239,0V.137a.091.091,0,0,0-.1-.1c-.07,0-.095.048-.095.1V.269c0,.065.029.105.1.105S.24.328.24.269Z" transform="translate(2.594 0.161)" fill="#c2341c"/>
        <path id="Path_2420-2" data-name="Path 2420" d="M0,.3C0,.208.081.176.147.175H.233V.1C.233.054.2.033.146.033S.055.053.055.1V.121H.014V.1c0-.064.062-.1.138-.1S.279.03.279.1V.3c0,.029,0,.08,0,.1H.24l0-.065h0A.131.131,0,0,1,.113.41.106.106,0,0,1,0,.3ZM.233.273V.206H.155C.106.206.047.222.047.292A.077.077,0,0,0,.126.376a.1.1,0,0,0,.107-.1Z" transform="translate(2.965 0.162)" fill="#c2341c"/>
        <path id="Path_2421-2" data-name="Path 2421" d="M0,.451V.273A.116.116,0,0,1,.123.151a.114.114,0,0,1,.11.07h0V0H.28V.553H.239l0-.074h0A.13.13,0,0,1,.114.562.1.1,0,0,1,0,.451ZM.233.4V.3A.116.116,0,0,0,.13.184.078.078,0,0,0,.047.273V.444A.073.073,0,0,0,.128.526.115.115,0,0,0,.233.4Z" transform="translate(3.347 0.011)" fill="#c2341c"/>
        <path id="Path_2422-2" data-name="Path 2422" d="M0,.27V.148A.136.136,0,0,1,.146,0,.125.125,0,0,1,.28.138V.212H.047v.06c0,.07.037.1.109.1a.207.207,0,0,0,.1-.029L.275.374A.205.205,0,0,1,.15.412.131.131,0,0,1,0,.27ZM.237.18V.133a.089.089,0,0,0-.1-.1.093.093,0,0,0-.093.1V.179h.19Z" transform="translate(3.735 0.162)" fill="#c2341c"/>
        <path id="Path_2423-2" data-name="Path 2423" d="M0,.451V.273A.116.116,0,0,1,.123.151a.114.114,0,0,1,.11.07h0V0H.28V.553H.239l0-.074h0A.13.13,0,0,1,.114.562.1.1,0,0,1,0,.451ZM.233.4V.3A.116.116,0,0,0,.13.184.078.078,0,0,0,.047.273V.444A.073.073,0,0,0,.128.526.115.115,0,0,0,.233.4Z" transform="translate(4.104 0.011)" fill="#c2341c"/>
      </g>
      <g id="layer1-2" data-name="layer1" transform="translate(0 0)">
        <path id="path3003-4-2" data-name="path3003-4" d="M1.173,0a1.085,1.085,0,0,0-.8.471A1.691,1.691,0,0,0,0,1.583,1.634,1.634,0,0,0,1.162,3.2V2.934A1.413,1.413,0,0,1,.246,1.546,1.531,1.531,0,0,1,.57.644a1.029,1.029,0,0,1,.605-.39Zm.264.351a.936.936,0,0,0-.351.064,1.156,1.156,0,0,0-.629.666A1.5,1.5,0,0,0,.589,2.36a.984.984,0,0,0,1.2.389,1.846,1.846,0,0,0,.218-.116L1.889,2.41a1.566,1.566,0,0,1-.194.1C.967,2.761.362,1.931.675,1.2A.94.94,0,0,1,1.158.671a.758.758,0,0,1,.719.105A1.051,1.051,0,0,1,2.232,1.9a.222.222,0,0,1-.183.155c0-.091,0-.225,0-.334a1.3,1.3,0,0,0-.038-.365A.59.59,0,0,0,1.43.889a.517.517,0,0,0-.489.293A.782.782,0,0,0,1.095,2.2a.574.574,0,0,0,.451.108.614.614,0,0,0,.141-.047c.04-.02.093-.047.074-.047V1.932a1.249,1.249,0,0,1-.157.093.4.4,0,0,1-.1.033.369.369,0,0,1-.3-.088.476.476,0,0,1,.217-.832.377.377,0,0,1,.346.3,1.033,1.033,0,0,1,.032.287c0,.181,0,.437,0,.437l0,.149H1.9s.056,0,.124,0a.588.588,0,0,0,.11-.017.283.283,0,0,0,.122-.066A.579.579,0,0,0,2.413,2a1.232,1.232,0,0,0,.062-.518A1.255,1.255,0,0,0,2,.55,1.022,1.022,0,0,0,1.437.351Z" transform="translate(0 0)" fill="#c2341c"/>
        <path id="path4227-4-2" data-name="path4227-4" d="M2.479,0a.29.29,0,0,0-.26.208c-.125.329-.158.4-.288.76-.087.238-.135.355-.246.652-.034.091-.2.531-.2.531l.415,0c.1-.27.109-.29.142-.386.084-.195.133-.353.224-.585.072-.184.11-.291.14-.368S2.442.691,2.482.69s.057.1.133.3c.045.113.125.326.154.4s.044.133.066.176a.807.807,0,0,1,.047.116c.005.021-.071.008-.168.009-.183,0-.447,0-.447,0l-.175.464c.5.01.874-.016,1.375,0C3.243,1.547,2.819.438,2.8.381S2.749.255,2.736.218A.282.282,0,0,0,2.479,0ZM.486.035A.55.55,0,0,0,.311.081C.17.157.052.305.009.855a3.083,3.083,0,0,0,.061.9c.06.206.2.4.329.4h.948l.163-.466s-.65.009-.961.008C.365,1.692.4,1.191.394.9.394.9.41.5.518.507.862.515,1.906.5,1.906.5L2.1.044ZM2.848.042c0,.012.188.466.183.466.2,0,.417-.01.642,0V2.149l.38,0V.5h.663c0-.222,0-.335,0-.457-.64,0-1.194,0-1.869,0Z" transform="translate(2.795 0.523)" fill="#fff"/>
      </g>
    </g>
  </g>
</svg>
