<svg xmlns="http://www.w3.org/2000/svg" width="279.597" height="208.333" viewBox="0 0 279.597 208.333">
  <g id="_404_Error_Page_not_Found_with_people_connecting_a_plug-rafiki" data-name="404 Error Page not Found with people connecting a plug-rafiki" transform="translate(0 -47.162)">
    <g id="freepik--background-complete--inject-110" transform="translate(0 47.162)">
      <rect id="Rectangle_58" data-name="Rectangle 58" width="279.597" height="0.14" transform="translate(0 183.08)" fill="#ebebeb"/>
      <path id="Path_166805" data-name="Path 166805" d="M149.372,213.14H41.4a3.193,3.193,0,0,1-3.187-3.193V58.165A3.193,3.193,0,0,1,41.4,55H149.372a3.193,3.193,0,0,1,3.193,3.193V209.947A3.193,3.193,0,0,1,149.372,213.14ZM41.4,55.112a3.053,3.053,0,0,0-3.048,3.053V209.947A3.053,3.053,0,0,0,41.4,213H149.372a3.059,3.059,0,0,0,3.053-3.053V58.165a3.059,3.059,0,0,0-3.053-3.053Z" transform="translate(-16.843 -55)" fill="#ebebeb"/>
      <path id="Path_166806" data-name="Path 166806" d="M365.673,213.14H257.693a3.2,3.2,0,0,1-3.193-3.193V58.165A3.2,3.2,0,0,1,257.693,55h107.98a3.193,3.193,0,0,1,3.182,3.165V209.947A3.193,3.193,0,0,1,365.673,213.14ZM257.693,55.112a3.059,3.059,0,0,0-3.053,3.053V209.947A3.059,3.059,0,0,0,257.693,213h107.98a3.059,3.059,0,0,0,3.053-3.053V58.165a3.059,3.059,0,0,0-3.053-3.053Z" transform="translate(-112.185 -55)" fill="#ebebeb"/>
      <rect id="Rectangle_59" data-name="Rectangle 59" width="17.654" height="0.14" transform="translate(233.928 188.404)" fill="#ebebeb"/>
      <rect id="Rectangle_60" data-name="Rectangle 60" width="18.683" height="0.14" transform="translate(168.838 186.888)" fill="#ebebeb"/>
      <rect id="Rectangle_61" data-name="Rectangle 61" width="34.911" height="0.14" transform="translate(221.771 193.599)" fill="#ebebeb"/>
      <rect id="Rectangle_62" data-name="Rectangle 62" width="10.753" height="0.14" transform="translate(29.335 192.659)" fill="#ebebeb"/>
      <rect id="Rectangle_63" data-name="Rectangle 63" width="16.938" height="0.14" transform="translate(45.071 192.659)" fill="#ebebeb"/>
      <rect id="Rectangle_64" data-name="Rectangle 64" width="30.51" height="0.14" transform="translate(106.012 190.299)" fill="#ebebeb"/>
      <path id="Path_166807" data-name="Path 166807" d="M247.143,118.13,215.28,150v106.13H327.113v-138Z" transform="translate(-94.897 -82.828)" fill="#fff"/>
      <path id="Path_166808" data-name="Path 166808" d="M326.871,256.188H215.032a.3.3,0,0,1-.3-.3V149.756a.3.3,0,0,1,.089-.212l31.874-31.874a.319.319,0,0,1,.212-.089h79.965a.3.3,0,0,1,.3.3v138A.3.3,0,0,1,326.871,256.188Zm-111.531-.6H326.569V118.19h-79.54l-31.69,31.69Z" transform="translate(-94.654 -82.586)" fill="#e0e0e0"/>
      <path id="Path_166809" data-name="Path 166809" d="M215.28,150l33.434,4.311-1.571-36.18Z" transform="translate(-94.897 -82.828)" fill="#e6e6e6"/>
      <path id="Path_166810" data-name="Path 166810" d="M215.28,150h31.863V118.13Z" transform="translate(-94.897 -82.828)" fill="#fff"/>
      <path id="Path_166811" data-name="Path 166811" d="M246.9,150.054H215.021a.3.3,0,0,1-.28-.185.291.291,0,0,1,.067-.324l31.874-31.874a.313.313,0,0,1,.33-.067.308.308,0,0,1,.185.28v31.874A.3.3,0,0,1,246.9,150.054Zm-31.136-.6H246.6v-30.84Z" transform="translate(-94.649 -82.587)" fill="#e0e0e0"/>
      <path id="Path_166812" data-name="Path 166812" d="M300.6,236.046l19.013-19.013a4.575,4.575,0,1,0-6.47-6.47l-19.013,19.013-19.013-19.013a4.575,4.575,0,0,0-6.47,6.47l19.013,19.013-19.013,19.013a4.575,4.575,0,0,0,6.47,6.47l19.013-19.013,19.013,19.013a4.575,4.575,0,1,0,6.47-6.47Z" transform="translate(-117.829 -122.983)" fill="#f0f0f0"/>
      <path id="Path_166813" data-name="Path 166813" d="M202.163,208.159h0a5.721,5.721,0,0,1-8.086,0L175.73,189.806l8.086-8.086L202.163,200.1a5.721,5.721,0,0,1,0,8.064Z" transform="translate(-77.463 -110.859)" fill="#f0f0f0"/>
      <path id="Path_166814" data-name="Path 166814" d="M0,0H11.436V1.057A4.132,4.132,0,0,1,7.3,5.189H4.132A4.132,4.132,0,0,1,0,1.057Z" transform="translate(98.265 78.983) rotate(-45)" fill="#e0e0e0"/>
      <path id="Path_166815" data-name="Path 166815" d="M75.554,81.532a39.7,39.7,0,1,0,28.088-11.643A39.7,39.7,0,0,0,75.554,81.532Zm53.884,53.884a36.476,36.476,0,1,1,0-51.586,36.476,36.476,0,0,1,0,51.586Z" transform="translate(-28.185 -61.563)" fill="#e0e0e0"/>
      <path id="Path_166816" data-name="Path 166816" d="M171.167,145.6a1.331,1.331,0,0,1-.939-2.27,28.228,28.228,0,0,0,0-39.865,1.331,1.331,0,1,1,1.879-1.879,30.879,30.879,0,0,1,0,43.617A1.331,1.331,0,0,1,171.167,145.6Z" transform="translate(-74.84 -75.339)" fill="#e0e0e0"/>
      <path id="Path_166817" data-name="Path 166817" d="M81.908,135.244a1.325,1.325,0,0,1-1.292-1.023,30.963,30.963,0,0,1,4.25-24.107,1.337,1.337,0,0,1,2.237,1.465,28.323,28.323,0,0,0-3.914,22.032,1.32,1.32,0,0,1-.984,1.6A1.477,1.477,0,0,1,81.908,135.244Z" transform="translate(-35.171 -79.028)" fill="#e0e0e0"/>
      <path id="Path_166818" data-name="Path 166818" d="M92.143,172.378a1.331,1.331,0,0,1-.939-.391,30.644,30.644,0,0,1-5.872-8.187,1.328,1.328,0,1,1,2.382-1.174,28.245,28.245,0,0,0,5.368,7.482,1.331,1.331,0,0,1,0,1.879,1.348,1.348,0,0,1-.939.391Z" transform="translate(-37.554 -102.115)" fill="#e0e0e0"/>
      <path id="Path_166819" data-name="Path 166819" d="M.006,0H7.4V17.167a3.31,3.31,0,0,1-3.31,3.31H3.31A3.31,3.31,0,0,1,0,17.167V0Z" transform="translate(118.004 148.41) rotate(45)" fill="#f0f0f0"/>
      <path id="Path_166820" data-name="Path 166820" d="M.011,0H7.393V.352a3,3,0,0,1-3,3H3a3,3,0,0,1-3-3V0Z" transform="translate(118.008 148.417) rotate(45)" fill="#e0e0e0"/>
      <path id="Path_166821" data-name="Path 166821" d="M273.068,269.7l-12.246,12.241a7.683,7.683,0,0,0,10.865,10.854l4.954-4.949A26.321,26.321,0,0,0,273.068,269.7Z" transform="translate(-114.061 -149.641)" fill="#f0f0f0"/>
      <path id="Path_166822" data-name="Path 166822" d="M252.146,271.966a25.689,25.689,0,1,0-23.844,27.4A25.689,25.689,0,0,0,252.146,271.966Zm-49.159,3.422a23.587,23.587,0,1,1,25.164,21.892,23.587,23.587,0,0,1-25.164-21.892Z" transform="translate(-88.526 -140.097)" fill="#e0e0e0"/>
      <path id="Path_166823" data-name="Path 166823" d="M218,309.391a19.9,19.9,0,0,1-6.817-13.656.861.861,0,1,1,1.717-.117,18.252,18.252,0,0,0,19.426,16.916.858.858,0,0,1,.117,1.711A19.868,19.868,0,0,1,218,309.391Z" transform="translate(-93.09 -160.696)" fill="#e0e0e0"/>
      <path id="Path_166824" data-name="Path 166824" d="M270.92,275.542a.844.844,0,0,1-.263-.419,18.3,18.3,0,0,0-9.1-11.24.861.861,0,0,1,.794-1.527,20.03,20.03,0,0,1,9.959,12.3.856.856,0,0,1-.6,1.057.872.872,0,0,1-.794-.173Z" transform="translate(-115.106 -146.368)" fill="#e0e0e0"/>
      <path id="Path_166825" data-name="Path 166825" d="M243.159,259.9a.872.872,0,0,1-.291-.593.861.861,0,0,1,.794-.917,20.064,20.064,0,0,1,6.487.61.867.867,0,1,1-.442,1.678,18.163,18.163,0,0,0-5.922-.559A.884.884,0,0,1,243.159,259.9Z" transform="translate(-107.057 -144.635)" fill="#e0e0e0"/>
    </g>
    <g id="freepik--Shadow--inject-110" transform="translate(31.376 242.836)">
      <ellipse id="freepik--path--inject-110" cx="108.422" cy="6.33" rx="108.422" ry="6.33" fill="#f5f5f5"/>
    </g>
    <g id="freepik--character-1--inject-110" transform="translate(38.409 92.626)">
      <path id="Path_166826" data-name="Path 166826" d="M136.317,141.658c-4.507,4.535,3.154,11.575-1.907,14.807,4.132,2.075,18.616,4.708,22.368-3.45-2.734-2.125-.833-7.348-3.355-12.364C149.648,133.214,131.81,136.508,136.317,141.658Z" transform="translate(-97.658 -136.302)" fill="#263238"/>
      <path id="Path_166827" data-name="Path 166827" d="M135.477,145.658c-1.4-.235-6.151,2.125-2.617,8.461,2.846,5.122.475,5.486.475,5.486s2.8.078,1.118-3.73C132.675,151.809,131.842,147.592,135.477,145.658Z" transform="translate(-96.41 -140.419)" fill="#263238"/>
      <path id="Path_166828" data-name="Path 166828" d="M182.719,203.656a1.376,1.376,0,0,0-1.845-.559l-.33.173c-.106.056-.308.19-.47.285s-.352.2-.531.291a8.694,8.694,0,0,1-1.09.459,6.867,6.867,0,0,1-2.153.408,5.911,5.911,0,0,1-1.985-.319,7.137,7.137,0,0,1-1.169-.559c-.481-1.062-.939-2.136-1.331-3.243-.475-1.292-.895-2.611-1.264-3.948s-.693-2.69-.962-4.049c-.14-.677-.263-1.359-.375-2.035l-.151-1.012c-.05-.324-.1-.693-.123-.951v-.112a2.81,2.81,0,0,0-5.592.559c.039.475.073.839.123,1.236s.106.777.162,1.163c.123.772.263,1.532.419,2.293a42.985,42.985,0,0,0,1.174,4.474c.218.738.486,1.465.738,2.2s.559,1.448.878,2.158a40.463,40.463,0,0,0,2.075,4.188l.067.123a2.175,2.175,0,0,0,.867.861,11.329,11.329,0,0,0,3.383,1.2,9.411,9.411,0,0,0,3.668-.078,9.674,9.674,0,0,0,4.524-2.455,4.609,4.609,0,0,0,.559-.593c.157-.207.347-.4.559-.693a1.376,1.376,0,0,0,.173-1.46Z" transform="translate(-110.408 -158.189)" fill="#ff8b7b"/>
      <path id="Path_166829" data-name="Path 166829" d="M200.189,208.249h-.162a3.484,3.484,0,0,0-2.8,1.309l-2.7,3.389v2.315c2.17.861,4.921-1.459,4.921-1.459l1.392-.352a1.952,1.952,0,0,0,1.459-2.17l-.2-1.359A1.946,1.946,0,0,0,200.189,208.249Z" transform="translate(-124.159 -168.016)" fill="#ff8b7b"/>
      <path id="Path_166830" data-name="Path 166830" d="M167.611,184.045c1.806,1.857,1.918,7.4,1.918,7.4l-7.225,5.816s-2.969-8.22-1.325-11.122C162.371,183.676,165.307,181.68,167.611,184.045Z" transform="translate(-109.151 -156.881)" fill="#c53f3f"/>
      <g id="Group_7115" data-name="Group 7115" transform="translate(51.332 26.106)" opacity="0.2">
        <path id="Path_166831" data-name="Path 166831" d="M167.611,184.045c1.806,1.857,1.918,7.4,1.918,7.4l-7.225,5.816s-2.969-8.22-1.325-11.122C162.371,183.676,165.307,181.68,167.611,184.045Z" transform="translate(-160.483 -182.987)" fill="#fff"/>
      </g>
      <path id="Path_166832" data-name="Path 166832" d="M151.85,399.114l3.993.436.548-10.848-3.993-.442Z" transform="translate(-105.345 -247.366)" fill="#ff8b7b"/>
      <path id="Path_166833" data-name="Path 166833" d="M155.919,403.79h-4.692a.363.363,0,0,0-.375.341l-.313,4.434a.889.889,0,0,0,.867.889H162.54c2.047,0,2.052-2.075,1.169-2.265a14.355,14.355,0,0,1-6.928-3.109A1.4,1.4,0,0,0,155.919,403.79Z" transform="translate(-104.768 -254.212)" fill="#263238"/>
      <path id="Path_166834" data-name="Path 166834" d="M156.58,388.712,156.3,394.3H152.28l.308-6.034Z" transform="translate(-105.535 -247.371)" opacity="0.2"/>
      <path id="Path_166835" data-name="Path 166835" d="M152.826,232.859s3.456,28.927,3.456,41.789c-2.723,17.894-5.033,49.3-5.033,49.3l-5.525-.145s-2.511-34.2-.185-48.969c-2.981-13.231-6.66-43.763-6.66-43.763Z" transform="translate(-99.628 -178.076)" fill="#263238"/>
      <path id="Path_166836" data-name="Path 166836" d="M143.262,248.67a16.5,16.5,0,0,0-1.912,1c.761,5.709,1.761,12.9,2.824,19.527C145.986,263.735,145.007,251.734,143.262,248.67Z" transform="translate(-100.717 -185.834)" opacity="0.2"/>
      <path id="Path_166837" data-name="Path 166837" d="M74.53,382.36l3.294,2.3,5.681-9.26-3.294-2.3Z" transform="translate(-71.262 -240.684)" fill="#ff8b7b"/>
      <path id="Path_166838" data-name="Path 166838" d="M76.081,388.512l-2.8-3.763a.358.358,0,0,0-.492-.1l-3.747,2.4a.884.884,0,0,0-.2,1.225c1.169,1.594,1.191,1.6,2.662,3.584.911,1.213,2.729,3.657,3.981,5.34s2.891.408,2.511-.419a14.707,14.707,0,0,1-1.644-7.4,1.42,1.42,0,0,0-.28-.872Z" transform="translate(-68.686 -245.75)" fill="#263238"/>
      <path id="Path_166839" data-name="Path 166839" d="M85.483,375.4l-2.925,4.776L79.03,378.25,82.2,373.1Z" transform="translate(-73.246 -240.684)" opacity="0.2"/>
      <path id="Path_166840" data-name="Path 166840" d="M103.637,346.45c-2.857,0-8.807,0-8.908-4.205-.078-3.3,4-4.669,7.527-4.837a2.975,2.975,0,0,1,3.115,2.83v.224c3.993-.19,6.576-1.062,7.521-2.55,2.131-3.355-1.952-12.017-5.894-20.388-4.641-9.847-9.9-21-10-31.69a2.975,2.975,0,0,1,2.947-3h0a2.98,2.98,0,0,1,2.975,2.947c.089,9.383,5.033,19.913,9.428,29.207,5.033,10.725,9.422,19.991,5.536,26.114C115.632,344.7,110.963,346.45,103.637,346.45Z" transform="translate(-80.166 -200.892)" fill="#c53f3f"/>
      <path id="Path_166841" data-name="Path 166841" d="M122.03,231.751s-9.54,33.06-14.2,45.049c-9.025,15.691-24,39.7-24,39.7l-4.781-2.8s11.184-27.736,18.705-40.653c2.019-13.421,9.652-43.2,9.652-43.2Z" transform="translate(-73.255 -177.538)" fill="#263238"/>
      <path id="Path_166842" data-name="Path 166842" d="M82.843,395.195a1.594,1.594,0,0,0,.828.677.559.559,0,0,0,.559-.185.391.391,0,0,0,.123-.341c-.067-.671-1.8-1.543-2.147-1.711a.089.089,0,0,0-.112.039.129.129,0,0,0,0,.14,8.265,8.265,0,0,0,.749,1.381Zm1.191,0a.464.464,0,0,1,.1.212.134.134,0,0,1-.045.117.386.386,0,0,1-.369.123c-.369-.073-.856-.671-1.325-1.616a5.894,5.894,0,0,1,1.644,1.141Z" transform="translate(-74.587 -249.733)" fill="#c53f3f"/>
      <path id="Path_166843" data-name="Path 166843" d="M82.042,393.343l.034.028c.559.308,2.013.559,2.332.1a.487.487,0,0,0-.028-.559c-.559-.99-2.237.173-2.309.224a.134.134,0,0,0-.05.112.185.185,0,0,0,.022.1Zm2.125-.324a.562.562,0,0,1,.045.062c.062.106.073.185.039.229-.185.268-1.258.173-1.884-.073C82.786,392.985,83.764,392.476,84.167,393.018Z" transform="translate(-74.564 -249.239)" fill="#c53f3f"/>
      <path id="Path_166844" data-name="Path 166844" d="M163.67,404.488a1.616,1.616,0,0,0,1.04-.263.559.559,0,0,0,.173-.559.419.419,0,0,0-.2-.308c-.559-.341-2.309.526-2.651.7a.1.1,0,0,0-.045.112.151.151,0,0,0,.106.1A7.79,7.79,0,0,0,163.67,404.488Zm.693-.967a.425.425,0,0,1,.229.05c.028,0,.056.039.067.106a.38.38,0,0,1-.123.369,2.958,2.958,0,0,1-2.086.1,5.826,5.826,0,0,1,1.884-.626Z" transform="translate(-109.812 -253.987)" fill="#c53f3f"/>
      <path id="Path_166845" data-name="Path 166845" d="M162.07,403.434h.039c.559-.257,1.65-1.281,1.471-1.812a.486.486,0,0,0-.447-.3c-1.118-.129-1.2,1.9-1.2,1.98a.126.126,0,0,0,.14.129Zm1.007-1.9h.078c.117,0,.19.05.207.106.106.308-.61,1.118-1.186,1.471.05-.487.229-1.577.911-1.577Z" transform="translate(-109.789 -253.123)" fill="#c53f3f"/>
      <path id="Path_166846" data-name="Path 166846" d="M129.76,207.027l19.046,2.438c4.295-14.461,5.709-21.445,6.09-24.806a3.652,3.652,0,0,0-2.528-3.914c-1.118-.358-2.561-.783-3.993-1.118-.486-.129-.984-.246-1.471-.358a61,61,0,0,0-8.645-1.118c-.431-.039-.856-.062-1.286-.084-.844-.045-1.678-.056-2.438-.056a4.11,4.11,0,0,0-4.1,4.474c.151,1.678.268,3.238.358,4.669.212,3.355.28,6.039.229,8.388A72.337,72.337,0,0,1,129.76,207.027Z" transform="translate(-95.608 -154.687)" fill="#c53f3f"/>
      <g id="Group_7116" data-name="Group 7116" transform="translate(34.152 23.323)" opacity="0.3">
        <path id="Path_166847" data-name="Path 166847" d="M129.76,207.027l19.046,2.438c4.295-14.461,5.709-21.445,6.09-24.806a3.652,3.652,0,0,0-2.528-3.914c-1.118-.358-2.561-.783-3.993-1.118-.486-.129-.984-.246-1.471-.358a61,61,0,0,0-8.645-1.118c-.431-.039-.856-.062-1.286-.084-.844-.045-1.678-.056-2.438-.056a4.11,4.11,0,0,0-4.1,4.474c.151,1.678.268,3.238.358,4.669.212,3.355.28,6.039.229,8.388A72.337,72.337,0,0,1,129.76,207.027Z" transform="translate(-129.76 -178.01)" fill="#fff"/>
      </g>
      <path id="Path_166848" data-name="Path 166848" d="M131.819,202.2c2.516-3.255,3.428-6.979,2.611-9.031l-2.841.637C131.819,197.151,131.881,199.847,131.819,202.2Z" transform="translate(-96.415 -161.369)" fill="#c53f3f" opacity="0.3"/>
      <path id="Path_166849" data-name="Path 166849" d="M153.476,179.588c-.492-.129-.984-.246-1.471-.358a61.875,61.875,0,0,0-8.651-1.118c-.431-.034-.856-.056-1.281-.078L141.33,178l.559.979a24.694,24.694,0,0,0,6.71,6.587l1.012.7.973-.744a7.348,7.348,0,0,0,3.064-5.888Z" transform="translate(-100.708 -154.682)" fill="#fff"/>
      <path id="Path_166850" data-name="Path 166850" d="M147.053,166.791c-.179,2.354-.733,4.753-2.1,5.76a23.034,23.034,0,0,0,6.263,6.073,5.535,5.535,0,0,0,2.388-4.966c-3.008-1.118-2.8-3.2-1.527-6.531l-2.349-1.264a1.538,1.538,0,0,0-2.673.928Z" transform="translate(-102.304 -149.11)" fill="#ff8b7b"/>
      <path id="Path_166851" data-name="Path 166851" d="M151.4,165.861a1.538,1.538,0,0,0-2.645.716,9.506,9.506,0,0,0,4.11,4.2,10.183,10.183,0,0,1,.878-3.652Z" transform="translate(-103.983 -149.109)" opacity="0.2"/>
      <path id="Path_166852" data-name="Path 166852" d="M141.992,148.345c1.169,4.546,1.566,6.492,4.345,8.388,4.177,2.874,9.506.447,9.713-4.351.2-4.323-1.745-11.033-6.6-11.995a6.4,6.4,0,0,0-7.46,7.957Z" transform="translate(-100.9 -138.045)" fill="#ff8b7b"/>
      <path id="Path_166853" data-name="Path 166853" d="M152.362,140.784a24.549,24.549,0,0,1-9.506,5.24s3.473,7.387-3.025,5.525c-1.884-6.291,0-9.557,1.678-11.094C146.675,138.777,150.31,138.218,152.362,140.784Z" transform="translate(-99.701 -137.503)" fill="#263238"/>
      <path id="Path_166854" data-name="Path 166854" d="M141.641,160.956a3.433,3.433,0,0,0,1.924,1.778c1.118.4,1.784-.559,1.543-1.678-.218-1-1.068-2.421-2.237-2.349a1.538,1.538,0,0,0-1.23,2.248Z" transform="translate(-100.767 -146.177)" fill="#ff8b7b"/>
      <path id="Path_166855" data-name="Path 166855" d="M128.64,227.754l-1.079,1.594c-.084.123.056.28.274.308l19.974,2.561c.173,0,.324-.045.352-.151l.391-1.678c0-.117-.112-.235-.3-.263l-19.292-2.472A.335.335,0,0,0,128.64,227.754Z" transform="translate(-94.628 -176.566)" fill="#c53f3f"/>
      <path id="Path_166856" data-name="Path 166856" d="M133.109,230.327l-.514-.067c-.1,0-.173-.078-.157-.14l.526-2.186a.185.185,0,0,1,.212-.089l.52.067c.1,0,.173.073.157.14l-.526,2.181C133.31,230.3,133.215,230.338,133.109,230.327Z" transform="translate(-96.787 -176.651)" fill="#263238"/>
      <path id="Path_166857" data-name="Path 166857" d="M160.619,233.851l-.514-.062c-.1,0-.173-.078-.157-.145l.526-2.181c0-.062.112-.106.212-.1l.52.067c.1,0,.173.078.157.14l-.526,2.186C160.82,233.824,160.725,233.868,160.619,233.851Z" transform="translate(-108.914 -178.207)" fill="#263238"/>
      <path id="Path_166858" data-name="Path 166858" d="M146.865,232.091l-.514-.067c-.106,0-.179-.073-.162-.14l.526-2.181c0-.067.112-.106.218-.1l.514.067c.1,0,.173.078.162.14L147.077,232C147.066,232.063,146.965,232.1,146.865,232.091Z" transform="translate(-102.848 -177.431)" fill="#263238"/>
      <path id="Path_166859" data-name="Path 166859" d="M156.09,153.766c.067.375.324.643.559.593s.386-.386.313-.76-.33-.643-.559-.593S156.034,153.391,156.09,153.766Z" transform="translate(-107.209 -143.662)" fill="#263238"/>
      <path id="Path_166860" data-name="Path 166860" d="M163.647,152.312c.073.375.33.637.559.593s.386-.391.313-.766-.33-.637-.559-.593S163.58,151.938,163.647,152.312Z" transform="translate(-110.539 -143.019)" fill="#263238"/>
      <path id="Path_166861" data-name="Path 166861" d="M164,151.286l.85-.436S164.559,151.644,164,151.286Z" transform="translate(-110.701 -142.715)" fill="#263238"/>
      <path id="Path_166862" data-name="Path 166862" d="M161.66,154.42a10.362,10.362,0,0,0,1.8,2.131,1.627,1.627,0,0,1-1.286.509Z" transform="translate(-109.67 -144.288)" fill="#ff5652"/>
      <path id="Path_166863" data-name="Path 166863" d="M156.919,161.542a.112.112,0,0,0,.134.173,3,3,0,0,1,2.729,0,.112.112,0,0,0,.151-.039.117.117,0,0,0-.034-.157,3.232,3.232,0,0,0-2.947,0S156.952,161.531,156.919,161.542Z" transform="translate(-107.568 -147.261)" fill="#263238"/>
      <path id="Path_166864" data-name="Path 166864" d="M153.216,151.1a.2.2,0,0,0,.078-.089,1.773,1.773,0,0,1,1.264-1,.224.224,0,0,0,.2-.252.218.218,0,0,0-.246-.2,2.237,2.237,0,0,0-1.616,1.253.224.224,0,0,0,.324.285Z" transform="translate(-105.794 -142.144)" fill="#263238"/>
      <path id="Path_166865" data-name="Path 166865" d="M164.184,146.64l.028-.028a.224.224,0,0,0-.056-.313,2.237,2.237,0,0,0-2.024-.3.229.229,0,0,0-.123.291.224.224,0,0,0,.291.123,1.767,1.767,0,0,1,1.6.257A.218.218,0,0,0,164.184,146.64Z" transform="translate(-109.817 -140.523)" fill="#263238"/>
      <path id="Path_166866" data-name="Path 166866" d="M156.47,152.741l.85-.431S156.99,153.1,156.47,152.741Z" transform="translate(-107.382 -143.358)" fill="#263238"/>
      <path id="Path_166867" data-name="Path 166867" d="M101.764,265.98a2.975,2.975,0,0,1-2.975-2.947c-.078-7.94,2.567-14.645,7.65-19.387,6.257-5.838,16.015-8.55,27.49-7.644,8.047.637,13.208-1.32,19.18-3.6.984-.369,1.974-.749,2.992-1.118a2.975,2.975,0,1,1,2.035,5.592c-.99.358-1.952.727-2.908,1.09-6.09,2.315-12.381,4.7-21.769,3.965-9.786-.777-17.939,1.376-22.961,6.062-3.914,3.624-5.821,8.662-5.76,14.981a2.975,2.975,0,0,1-2.947,3Z" transform="translate(-81.955 -178.093)" fill="#c53f3f"/>
      <path id="Path_166868" data-name="Path 166868" d="M0,0H12.744a4.009,4.009,0,0,1,4.009,4.009V18.375a4.009,4.009,0,0,1-4.009,4.009H0V0Z" transform="translate(88.609 62.988) rotate(159.88)" fill="#c53f3f"/>
      <path id="Path_166869" data-name="Path 166869" d="M0,0H12.744a4.009,4.009,0,0,1,4.009,4.009V18.375a4.009,4.009,0,0,1-4.009,4.009H0V0Z" transform="translate(88.609 62.988) rotate(159.88)" fill="#fff" opacity="0.7"/>
      <path id="Path_166870" data-name="Path 166870" d="M203.827,213.3l5.34-1.952,7.695,21.015-5.34,1.957a3.227,3.227,0,0,1-.794-1.23l-6.71-18.336A3.187,3.187,0,0,1,203.827,213.3Z" transform="translate(-128.25 -169.383)" fill="#c53f3f" opacity="0.2"/>
      <rect id="Rectangle_65" data-name="Rectangle 65" width="0.559" height="3.724" transform="translate(92.385 47.393) rotate(-20.12)" fill="#c53f3f"/>
      <path id="Path_166871" data-name="Path 166871" d="M223.533,210.305l-1.884-5.156a4.563,4.563,0,0,0-4.278-2.981,4.474,4.474,0,0,0-1.555.274l-3.4,1.247-.2-.526,3.405-1.247a5.033,5.033,0,0,1,1.745-.308,5.133,5.133,0,0,1,4.8,3.355l1.884,5.156Z" transform="translate(-131.957 -165.09)" fill="#c53f3f"/>
      <rect id="Rectangle_66" data-name="Rectangle 66" width="11.598" height="26.221" rx="5.62" transform="matrix(-0.94, 0.34, -0.34, -0.94, 96.65, 61.619)" fill="#c53f3f"/>
      <path id="Path_166872" data-name="Path 166872" d="M219.635,217a1.678,1.678,0,1,1-2.147-1,1.678,1.678,0,0,1,2.147,1Z" transform="translate(-133.791 -171.389)" fill="#263238"/>
      <path id="Path_166873" data-name="Path 166873" d="M227.1,237.39a1.678,1.678,0,1,1-.869-.947A1.678,1.678,0,0,1,227.1,237.39Z" transform="translate(-137.084 -180.376)" fill="#263238"/>
      <path id="Path_166874" data-name="Path 166874" d="M131.545,212.243l-.045-.05c-.872-.872-1.8-1.823-2.628-2.8s-1.65-1.946-2.393-2.953a27.63,27.63,0,0,1-1.985-3.081,16.061,16.061,0,0,1-1.079-2.388c.336-1.118.693-2.237,1.118-3.31.486-1.292,1.035-2.561,1.633-3.814s1.236-2.483,1.924-3.685c.336-.6.688-1.2,1.051-1.789l.559-.861c.173-.28.38-.559.526-.8l.062-.089a2.8,2.8,0,0,0-4.563-3.227c-.28.38-.492.682-.716,1.012s-.425.66-.637.99c-.408.66-.805,1.325-1.186,2a44.177,44.177,0,0,0-2.052,4.16c-.313.7-.559,1.426-.878,2.147a18.282,18.282,0,0,0-.755,2.2,41.283,41.283,0,0,0-1.169,4.524v.129a2.237,2.237,0,0,0,.084,1.225,18.331,18.331,0,0,0,2.142,4.049,26.966,26.966,0,0,0,2.762,3.355,34.507,34.507,0,0,0,3.126,2.824,33.257,33.257,0,0,0,3.45,2.41,1.387,1.387,0,0,0,1.678-2.181Z" transform="translate(-90.549 -156.577)" fill="#ff8b7b"/>
      <path id="Path_166875" data-name="Path 166875" d="M146.655,238.528l-.073-.145a3.467,3.467,0,0,0-2.444-1.9l-4.244-.861-2.075,1.035c.224,2.326,3.545,3.719,3.545,3.719l.945,1.079a1.957,1.957,0,0,0,2.595.308l1.118-.8A1.946,1.946,0,0,0,146.655,238.528Z" transform="translate(-99.161 -180.082)" fill="#ff8b7b"/>
      <path id="Path_166876" data-name="Path 166876" d="M131.359,178.373c-2.354,1.079-4.859,4.815-4.859,4.815l5.033,9.422s5.721-6.593,5.24-9.892C136.381,179.916,134.357,177,131.359,178.373Z" transform="translate(-94.171 -154.692)" fill="#c53f3f"/>
      <g id="Group_7117" data-name="Group 7117" transform="translate(32.329 23.33)" opacity="0.3">
        <path id="Path_166877" data-name="Path 166877" d="M131.359,178.373c-2.354,1.079-4.859,4.815-4.859,4.815l5.033,9.422s5.721-6.593,5.24-9.892C136.381,179.916,134.357,177,131.359,178.373Z" transform="translate(-126.5 -178.022)" fill="#fff"/>
      </g>
    </g>
    <g id="freepik--character-2--inject-110" transform="translate(152.815 80.847)">
      <path id="Path_166878" data-name="Path 166878" d="M383.4,290.316c-4.927,0-9.769-1.012-12.118-4.077-11.117-14.539-11.016-43.785-10.921-72.086.056-15.238,1.258-29.637-.436-40.821a19.408,19.408,0,0,0-7.985-13.454c-5.212-3.445-12.369-1.594-15.428-.805a2.975,2.975,0,1,1-1.488-5.76c3.819-.989,12.778-3.3,20.193,1.6,5,3.3,9.333,9.2,10.591,17.531,1.761,11.631.559,26.243.5,41.71-.1,27.305-.19,55.539,9.7,68.451.8,1.04,3.914,1.974,9.087,1.706.459,0,.906-.05,1.348-.089a2.919,2.919,0,0,1-.3-1.3,2.975,2.975,0,0,1,2.975-2.975c6.5,0,9.926.559,10.586,3.534.19.856.291,3-2.852,4.474C394.5,289.052,388.893,290.316,383.4,290.316Z" transform="translate(-299.511 -131.397)" fill="#c53f3f"/>
      <path id="Path_166879" data-name="Path 166879" d="M302.087,393.846l-6.067-2.388,3.2-10.518,6.073,2.382Z" transform="translate(-283.303 -232.36)" fill="#ffc3bd"/>
      <path id="Path_166880" data-name="Path 166880" d="M289.366,398.533l6.845,2.684a.419.419,0,0,1,.257.447l-.671,4.261a.7.7,0,0,1-.951.531c-1.717-.71-4.406-1.884-6.582-2.74-1.336-.526-3.881-1.364-5.732-2.091s-1.37-2.651-.559-2.516a10.517,10.517,0,0,0,6.565-.587A1.118,1.118,0,0,1,289.366,398.533Z" transform="translate(-276.794 -240.078)" fill="#263238"/>
      <path id="Path_166881" data-name="Path 166881" d="M306.512,383.328l-6.073-2.388-1.65,5.424,6.073,2.388Z" transform="translate(-284.524 -232.36)" opacity="0.2"/>
      <path id="Path_166882" data-name="Path 166882" d="M313.413,239.61s-5.491,27.143-7.588,40.53c-2.36,15-8.595,42.409-8.595,42.409l8.069,3.171s11.525-28.06,13.13-41.649c4.837-11.044,14.455-43.544,14.455-43.544Z" transform="translate(-283.836 -170.061)" fill="#c53f3f"/>
      <path id="Path_166883" data-name="Path 166883" d="M296.53,385.4l8.858,3.484L306.9,386.2l-9.9-4.1Z" transform="translate(-283.528 -232.872)" fill="#263238"/>
      <path id="Path_166884" data-name="Path 166884" d="M291.989,397.689a1.448,1.448,0,0,1-.76-.559.693.693,0,0,1,0-.638.347.347,0,0,1,.291-.224c.587-.061,1.678,1.37,1.784,1.538a.113.113,0,0,1-.112.173A5.7,5.7,0,0,1,291.989,397.689Zm-.3-1.169a.28.28,0,0,0-.145-.028c-.034,0-.073,0-.112.1a.447.447,0,0,0,0,.436,2.233,2.233,0,0,0,1.532.693,4.4,4.4,0,0,0-1.275-1.2Z" transform="translate(-281.157 -239.116)" fill="#c53f3f"/>
      <path id="Path_166885" data-name="Path 166885" d="M294.231,397.435a.09.09,0,0,1-.045-.034c-.358-.425-.861-1.739-.559-2.192a.369.369,0,0,1,.442-.14.615.615,0,0,1,.391.308,3.38,3.38,0,0,1-.061,1.985.117.117,0,0,1-.09.078.078.078,0,0,1-.078-.006Zm-.19-2.136H294c-.145-.034-.179,0-.2.05-.168.268.106,1.219.425,1.739a2.7,2.7,0,0,0,0-1.588A.392.392,0,0,0,294.041,395.3Z" transform="translate(-282.207 -238.578)" fill="#c53f3f"/>
      <path id="Path_166886" data-name="Path 166886" d="M344,269c-3.042,3.769-4.244,13.376-4.233,21.384,2.052-5.653,4.406-12.834,6.475-19.354Z" transform="translate(-302.588 -183.017)" opacity="0.2"/>
      <path id="Path_166887" data-name="Path 166887" d="M366.347,397.19h-6.52l-.867-10.96h6.52Z" transform="translate(-311.047 -234.692)" fill="#ffc3bd"/>
      <path id="Path_166888" data-name="Path 166888" d="M354.266,404.85h7.353a.408.408,0,0,1,.4.324l.934,4.205a.7.7,0,0,1-.693.844c-1.857-.034-4.781-.145-7.119-.145-1.443,0-4.116.151-6.1.151s-2.237-1.963-1.437-2.142a10.5,10.5,0,0,0,5.9-2.947A1.152,1.152,0,0,1,354.266,404.85Z" transform="translate(-305.855 -242.9)" fill="#263238"/>
      <path id="Path_166889" data-name="Path 166889" d="M365.476,386.23H358.95l.453,5.653h6.526Z" transform="translate(-311.043 -234.692)" opacity="0.2"/>
      <path id="Path_166890" data-name="Path 166890" d="M340.29,240.22s3.612,30.247,4.373,41.134c1.057,15.154,5.145,45.071,5.145,45.071h8.668s.928-30.554-.638-44.148c2.159-11.861,1.476-41.146,1.476-41.146Z" transform="translate(-302.817 -170.33)" fill="#c53f3f"/>
      <path id="Path_166891" data-name="Path 166891" d="M356.082,392.149H365.6l.431-3.048-10.72-.2Z" transform="translate(-309.438 -235.869)" fill="#263238"/>
      <path id="Path_166892" data-name="Path 166892" d="M356.094,405.234a1.443,1.443,0,0,1-.911-.24.7.7,0,0,1-.235-.593.358.358,0,0,1,.2-.319c.526-.268,2.052.671,2.237.777a.112.112,0,0,1,.056.112.129.129,0,0,1-.089.1A5.592,5.592,0,0,1,356.094,405.234Zm-.7-.979a.3.3,0,0,0-.145.028c-.028,0-.061.045-.067.129a.447.447,0,0,0,.151.408,2.27,2.27,0,0,0,1.678.084,4.518,4.518,0,0,0-1.6-.649Z" transform="translate(-309.277 -242.54)" fill="#c53f3f"/>
      <path id="Path_166893" data-name="Path 166893" d="M358.1,404.2h-.056c-.487-.268-1.437-1.3-1.336-1.834a.363.363,0,0,1,.358-.291.6.6,0,0,1,.475.14c.559.453.665,1.817.671,1.873a.123.123,0,0,1-.05.106A.128.128,0,0,1,358.1,404.2Zm-.956-1.918h-.05c-.145,0-.157.089-.162.117-.062.308.559,1.118,1.029,1.465a2.718,2.718,0,0,0-.559-1.487.42.42,0,0,0-.257-.1Z" transform="translate(-310.049 -241.674)" fill="#c53f3f"/>
      <path id="Path_166894" data-name="Path 166894" d="M324.4,159.4h0l-5.223-.067c-1.756,0-3.5-.056-5.228-.084-.526,0-1.04-.034-1.56-.056.034,0,.056-.062.084-.089.369-.391.738-.794,1.118-1.18q.285-.3.559-.587c.173-.19.4-.4.514-.559l.475-.6a2.891,2.891,0,0,0-3.031-4.574l-1.035.28c-.319.1-.638.2-.956.308-.626.218-1.241.459-1.851.721a27.448,27.448,0,0,0-3.551,1.89,25.514,25.514,0,0,0-3.327,2.533,22.041,22.041,0,0,0-2.969,3.3,5.073,5.073,0,0,0-.559.962,4.9,4.9,0,0,0,2.528,6.447l.509.224a21.45,21.45,0,0,0,3.556,1.174c1.062.274,2.069.453,3.059.621s1.957.3,2.919.419,1.912.207,2.863.285c1.9.168,3.775.252,5.648.308s3.707.056,5.653-.034a5.827,5.827,0,0,0-.19-11.648Z" transform="translate(-283.932 -131.222)" fill="#ffc3bd"/>
      <path id="Path_166895" data-name="Path 166895" d="M338.962,175.28c-4.513,5.145-15.372,3.221-15.372,3.221l.6-12.817a56.478,56.478,0,0,1,11.329-1.314C341.892,164.359,342.575,171.153,338.962,175.28Z" transform="translate(-295.456 -136.895)" fill="#263238"/>
      <path id="Path_166896" data-name="Path 166896" d="M327.131,171.347c-.268,2.069-.559,4.854-.733,8.6-2.354,11.911-3.232,20.349-1.152,26.506,1.644,2.03,23.067,1.638,26.92,1.247,2.237-5.536,2.472-21.428,2.734-34.788a7.7,7.7,0,0,0-6.4-7.728,51.72,51.72,0,0,0-14.606-.492,7.7,7.7,0,0,0-6.761,6.654Z" transform="translate(-295.669 -136.904)" fill="#263238"/>
      <path id="Path_166897" data-name="Path 166897" d="M366.71,191.37c.073,4.071,3.025,10.574,6.347,13.874.2-3.439.33-7.169.431-10.932Z" transform="translate(-314.463 -148.797)" opacity="0.2"/>
      <path id="Path_166898" data-name="Path 166898" d="M381.651,189.062l-.19-.447a42.494,42.494,0,0,0-2.734-5.407c-1-1.678-2.069-3.26-3.182-4.787s-2.293-2.986-3.5-4.406c-.615-.7-1.225-1.409-1.868-2.091l-.967-1.018-1.029-1.04a5.827,5.827,0,0,0-8.433,8.036l.168.185,3.282,3.652c1.118,1.241,2.186,2.505,3.249,3.763.514.632,1.046,1.264,1.527,1.907s.99,1.264,1.471,1.9c.693.967,1.364,1.929,1.963,2.874a14.357,14.357,0,0,1-.347,1.415,40.629,40.629,0,0,1-1.415,3.993c-.559,1.381-1.152,2.8-1.767,4.188s-1.275,2.846-1.862,4.244l-.056.123a2.941,2.941,0,0,0,4.7,3.3,46.419,46.419,0,0,0,3.506-3.624,44.735,44.735,0,0,0,3.148-3.97c.5-.7.973-1.426,1.443-2.181a25.271,25.271,0,0,0,1.337-2.377,22.228,22.228,0,0,0,1.174-2.751,12.522,12.522,0,0,0,.716-3.752A4.188,4.188,0,0,0,381.651,189.062Z" transform="translate(-310.738 -138.577)" fill="#ffc3bd"/>
      <path id="Path_166899" data-name="Path 166899" d="M363.341,165.872c7.544,1.292,12.459,11.5,12.459,11.5l-9.092,9.78a76.373,76.373,0,0,1-8.388-10.278C354.925,171.5,357.939,164.955,363.341,165.872Z" transform="translate(-310.132 -137.519)" fill="#263238"/>
      <path id="Path_166900" data-name="Path 166900" d="M342.476,127.491a6.738,6.738,0,0,1,.637-8,2.349,2.349,0,0,1-2.3-1.118,13.862,13.862,0,0,1,9-3.131c6.766,0,7.27,2.611,7.04,4.4,4.63.3,8.008,12.336-3.73,14.466C346.4,127.026,342.476,127.491,342.476,127.491Z" transform="translate(-303.046 -115.237)" fill="#263238"/>
      <path id="Path_166901" data-name="Path 166901" d="M368.369,120.14s1.884-1.924-.459-4.25a3.154,3.154,0,0,1,2.2,2.192C370.443,119.435,369.532,120.52,368.369,120.14Z" transform="translate(-314.992 -115.525)" fill="#263238"/>
      <path id="Path_166902" data-name="Path 166902" d="M355.589,146.34c-.179,3.707-.514,7.924.106,10.882-.962,1.515-3.422,3.26-7.829,3.652-1.566-.889-3.635-3.064-2.913-4.183,1.873-1.2,2.667-4.843,2.131-7.566Z" transform="translate(-304.808 -128.947)" fill="#ffc3bd"/>
      <path id="Path_166903" data-name="Path 166903" d="M355.229,147.59l-6.369,2.086a9.993,9.993,0,0,1,.028,3.512,8.55,8.55,0,0,0,5.525-2.835A3.534,3.534,0,0,0,355.229,147.59Z" transform="translate(-306.595 -129.498)" opacity="0.2"/>
      <path id="Path_166904" data-name="Path 166904" d="M356.3,129.46c-1.18,4.546-1.638,7.27-4.423,9.176-4.188,2.869-9.456-.347-9.663-5.15-.179-4.328,1.778-11.038,6.643-11.995a6.408,6.408,0,0,1,7.443,7.969Z" transform="translate(-303.659 -117.939)" fill="#ffc3bd"/>
      <path id="Path_166905" data-name="Path 166905" d="M363.836,124.2c-2,1.42-4.474,7.437.559,9.853C368.913,130.083,367.744,124.2,363.836,124.2Z" transform="translate(-312.137 -119.188)" fill="#263238"/>
      <path id="Path_166906" data-name="Path 166906" d="M358.042,122.311c.856-3.959-9.137-6.006-12.3-1.381C344.666,123.714,357.438,126.175,358.042,122.311Z" transform="translate(-305.191 -116.577)" fill="#263238"/>
      <path id="Path_166907" data-name="Path 166907" d="M351.775,143.813h0a9.663,9.663,0,0,0-3.288-.833.117.117,0,0,0-.117.123.162.162,0,0,0,.151.134,9.366,9.366,0,0,1,3.154.794.134.134,0,0,0,.173-.062.117.117,0,0,0-.073-.157Z" transform="translate(-306.379 -127.466)" fill="#263238"/>
      <path id="Path_166908" data-name="Path 166908" d="M365.665,142.018a4.474,4.474,0,0,1-3.109,1.4c-1.566.034-1.963-1.459-1.208-2.734.682-1.118,2.315-2.55,3.735-1.98A1.994,1.994,0,0,1,365.665,142.018Z" transform="translate(-311.936 -125.526)" fill="#ffc3bd"/>
      <path id="Path_166909" data-name="Path 166909" d="M353.782,135.112c-.073.375-.33.643-.559.593s-.38-.391-.308-.766.33-.637.559-.559S353.855,134.72,353.782,135.112Z" transform="translate(-308.375 -123.669)" fill="#263238"/>
      <path id="Path_166910" data-name="Path 166910" d="M346.208,133.621c-.073.375-.33.637-.559.593s-.386-.391-.313-.766.33-.643.559-.593S346.259,133.247,346.208,133.621Z" transform="translate(-305.034 -123)" fill="#263238"/>
      <path id="Path_166911" data-name="Path 166911" d="M347.346,135a13.717,13.717,0,0,1-2.416,2.857,2.167,2.167,0,0,0,1.795.6Z" transform="translate(-304.863 -123.949)" fill="#ed847e"/>
      <path id="Path_166912" data-name="Path 166912" d="M353.25,131.806a.24.24,0,0,1,.224.067,1.784,1.784,0,0,0,1.487.643.229.229,0,0,1,.257.19.218.218,0,0,1-.19.252,2.237,2.237,0,0,1-1.89-.788.218.218,0,0,1,0-.313.285.285,0,0,1,.112-.05Z" transform="translate(-308.451 -122.538)" fill="#263238"/>
      <path id="Path_166913" data-name="Path 166913" d="M344.438,128.882a.2.2,0,0,1-.117-.073.224.224,0,0,1,.039-.319,2.237,2.237,0,0,1,2-.431.229.229,0,0,1,.145.285.24.24,0,0,1-.285.14h0a1.784,1.784,0,0,0-1.582.358.2.2,0,0,1-.2.039Z" transform="translate(-304.572 -120.856)" fill="#263238"/>
      <path id="Path_166914" data-name="Path 166914" d="M373.063,235.534l-4.8-.034,2.483,5.514s4.1-.878,3.875-3.1Z" transform="translate(-315.147 -168.25)" fill="#ffc3bd"/>
      <path id="Path_166915" data-name="Path 166915" d="M363.73,239.286l.788,1.555a1.868,1.868,0,0,0,2.354.884l1.784-.71-2.483-5.514-1.907,1.454A1.862,1.862,0,0,0,363.73,239.286Z" transform="translate(-313.06 -168.25)" fill="#ffc3bd"/>
      <path id="Path_166916" data-name="Path 166916" d="M309.135,195.689a2.981,2.981,0,0,1-2.13-5.033c2.136-2.2,4.065-3.914,5.765-5.407,4.1-3.618,5.519-5.033,5.385-7.745a27.246,27.246,0,0,0-1.062-4.932c-1.225-4.5-2.611-9.6-.235-13.684a9.883,9.883,0,0,1,6.436-4.474,2.975,2.975,0,1,1,1.488,5.76c-2.108.559-2.617,1.414-2.8,1.7-1.118,1.929-.039,5.922.833,9.126a31.062,31.062,0,0,1,1.264,6.207c.28,5.732-3.1,8.718-7.393,12.5-1.616,1.432-3.456,3.053-5.435,5.089A2.958,2.958,0,0,1,309.135,195.689Z" transform="translate(-287.783 -132.465)" fill="#c53f3f"/>
      <path id="Path_166917" data-name="Path 166917" d="M322.394,150.961l4.653-1.191-1.085,5.95s-4.188.129-4.5-2.08Z" transform="translate(-294.517 -130.459)" fill="#ffc3bd"/>
      <path id="Path_166918" data-name="Path 166918" d="M333.861,152.924l-.358,1.555a1.952,1.952,0,0,1-2.17,1.493l-1.823-.252,1.085-5.95,2.136.923A1.952,1.952,0,0,1,333.861,152.924Z" transform="translate(-298.065 -130.459)" fill="#ffc3bd"/>
      <rect id="Rectangle_67" data-name="Rectangle 67" width="3.076" height="26.221" rx="1.538" transform="translate(18.537 52.289) rotate(44.99)" fill="#263238"/>
      <rect id="Rectangle_68" data-name="Rectangle 68" width="3.076" height="26.221" rx="1.538" transform="translate(27.132 60.873) rotate(45)" fill="#263238"/>
      <path id="Path_166919" data-name="Path 166919" d="M0,0H16.435a4.009,4.009,0,0,1,4.009,4.009V18.375a4.009,4.009,0,0,1-4.009,4.009H0Z" transform="translate(6.227 59.58) rotate(-45)" fill="#c53f3f"/>
      <path id="Path_166920" data-name="Path 166920" d="M0,0H16.435a4.009,4.009,0,0,1,4.009,4.009V18.375a4.009,4.009,0,0,1-4.009,4.009H0Z" transform="translate(6.227 59.58) rotate(-45)" fill="#fff" opacity="0.7"/>
      <path id="Path_166921" data-name="Path 166921" d="M288.406,214.56l-4.026,4.021,15.831,15.831,4.021-4.026a3.21,3.21,0,0,0-.777-1.241l-13.807-13.779a3.21,3.21,0,0,0-1.241-.805Z" transform="translate(-278.172 -159.019)" fill="#c53f3f" opacity="0.2"/>
      <rect id="Rectangle_69" data-name="Rectangle 69" width="6.694" height="26.221" rx="3.347" transform="translate(3.019 60.045) rotate(-45)" fill="#c53f3f"/>
    </g>
    <g id="freepik--page-not-found--inject-110" transform="translate(72.337 37.22)">
      <circle id="Ellipse_71" data-name="Ellipse 71" cx="10.367" cy="10.367" r="10.367" transform="translate(57.094 28.368)" fill="#263238"/>
      <circle id="Ellipse_72" data-name="Ellipse 72" cx="8.824" cy="8.824" r="8.824" transform="translate(58.637 29.911)" fill="#fff"/>
      <path id="Path_166935" data-name="Path 166935" d="M251.263,94.992h-4.138L250.6,84.72,239.33,98.795h4.138L240,109.067Z" transform="translate(-177.835 -58.158)" fill="#c53f3f"/>
      <rect id="Rectangle_71" data-name="Rectangle 71" width="1.745" height="19.622" transform="translate(75.015 45.053) rotate(135)" fill="#263238"/>
    </g>
  </g>
</svg>
