<svg xmlns="http://www.w3.org/2000/svg" width="290.185" height="184.38" viewBox="0 0 290.185 184.38">
  <g id="Hidden_person-pana" data-name="Hidden person-pana" transform="translate(-24.35 -24.17)">
    <g id="freepik--background-complete--inject-4" transform="translate(24.35 24.17)">
      <circle id="Ellipse_73" data-name="Ellipse 73" cx="11.725" cy="11.725" r="11.725" transform="matrix(0.973, -0.233, 0.233, 0.973, 261.924, 92.164)" fill="#fff"/>
      <path id="Path_166936" data-name="Path 166936" d="M680.233,241.4l.189.025.558.041.41.025.488.078a8.822,8.822,0,0,1,1.206.25,11.243,11.243,0,0,1,3.1,1.3,11.717,11.717,0,0,1,4.275,15.462,11.92,11.92,0,0,1-.915,1.419,12.424,12.424,0,0,1-1.116,1.313,12.86,12.86,0,0,1-1.346,1.136,11.074,11.074,0,0,1-3.192,1.641,11.454,11.454,0,0,1-7.311,0,11.182,11.182,0,0,1-3.192-1.641,13.755,13.755,0,0,1-1.346-1.136,13.475,13.475,0,0,1-1.116-1.313,11.388,11.388,0,0,1-2.092-9.025,11.688,11.688,0,0,1,5.456-7.856,11.191,11.191,0,0,1,3.1-1.3,8.7,8.7,0,0,1,1.206-.25l.488-.078.41-.025.558-.041.189-.025a.674.674,0,0,0-.189,0h-.968a3.886,3.886,0,0,0-.492.066,8.084,8.084,0,0,0-1.231.226,11.171,11.171,0,0,0-3.151,1.276,11.784,11.784,0,0,0-5.108,14.174,12.536,12.536,0,0,0,.677,1.547,13.028,13.028,0,0,0,2.051,2.8,13.375,13.375,0,0,0,1.374,1.165,11.421,11.421,0,0,0,3.282,1.7,11.7,11.7,0,0,0,7.487,0,11.451,11.451,0,0,0,3.282-1.7,12.962,12.962,0,0,0,1.374-1.165,12.613,12.613,0,0,0,1.14-1.346,11.957,11.957,0,0,0,.931-1.456,12.219,12.219,0,0,0,.677-1.547,11.784,11.784,0,0,0-5.108-14.174,11.12,11.12,0,0,0-3.151-1.276,8.614,8.614,0,0,0-1.231-.226c-.176-.025-.34-.053-.492-.066h-.972a.674.674,0,0,0-.189,0Z" transform="translate(-404.179 -152.279)" fill="#e0e0e0"/>
      <path id="Path_166937" data-name="Path 166937" d="M674.146,231.4a1.981,1.981,0,1,0,1.977,1.977A1.981,1.981,0,0,0,674.146,231.4Z" transform="translate(-406.399 -146.385)" fill="#fff"/>
      <path id="Path_166938" data-name="Path 166938" d="M673.977,231.354c0,.025.176.029.468.115a1.982,1.982,0,0,1,1.026.726,1.858,1.858,0,1,1-2.987,0,1.974,1.974,0,0,1,1.022-.726c.3-.086.472-.09.472-.115a.993.993,0,0,0-.5,0,1.953,1.953,0,0,0-1.157.714,2.052,2.052,0,0,0-.328,1.977,2.1,2.1,0,0,0,3.963,0,2.051,2.051,0,0,0-.328-1.977,1.965,1.965,0,0,0-1.157-.714A.988.988,0,0,0,673.977,231.354Z" transform="translate(-406.23 -146.339)" fill="#e0e0e0"/>
      <path id="Path_166939" data-name="Path 166939" d="M694.552,268.643a1.518,1.518,0,0,1-1.612-1.5,1.641,1.641,0,0,1,3.237,0,1.526,1.526,0,0,1-1.625,1.5Zm1.083-3.766h-2.154l-.542-6.346h3.225Z" transform="translate(-418.654 -162.385)" fill="#e0e0e0"/>
      <path id="Path_166940" data-name="Path 166940" d="M49.07,291.651a28.229,28.229,0,0,0,25.144-2.281C66.628,287.335,55.823,287.643,49.07,291.651Z" transform="translate(-38.929 -179.847)" fill="#ebebeb"/>
      <path id="Path_166941" data-name="Path 166941" d="M38,274.457A24.085,24.085,0,0,0,59.464,272.5C52.99,270.773,43.768,271.035,38,274.457Z" transform="translate(-32.4 -170.008)" fill="#ebebeb"/>
      <path id="Path_166942" data-name="Path 166942" d="M30.79,258.975a19.281,19.281,0,0,0,17.185-1.563C42.773,256.021,35.389,256.234,30.79,258.975Z" transform="translate(-28.148 -161.23)" fill="#ebebeb"/>
      <path id="Path_166943" data-name="Path 166943" d="M104.417,231.62a28.59,28.59,0,0,1,0,25.591C101.664,249.741,100.988,238.8,104.417,231.62Z" transform="translate(-70.199 -146.515)" fill="#ebebeb"/>
      <path id="Path_166944" data-name="Path 166944" d="M85.8,222.1a24.418,24.418,0,0,1,0,21.841C83.447,237.562,82.872,228.233,85.8,222.1Z" transform="translate(-59.419 -140.9)" fill="#ebebeb"/>
      <path id="Path_166945" data-name="Path 166945" d="M69.213,216.29a19.569,19.569,0,0,1,0,17.5C67.33,228.679,66.866,221.2,69.213,216.29Z" transform="translate(-49.87 -137.474)" fill="#ebebeb"/>
      <path id="Path_166946" data-name="Path 166946" d="M24.35,218.51c2.675,6.182,10.018,12.258,16.594,13.714C37.72,225.021,31.386,219.486,24.35,218.51Z" transform="translate(-24.35 -138.783)" fill="#ebebeb"/>
      <path id="Path_166947" data-name="Path 166947" d="M88.447,274c-.131.144-7.384-6.289-16.246-14.359s-15.9-14.752-15.774-14.9,7.4,6.289,16.246,14.359S88.578,273.858,88.447,274Z" transform="translate(-43.267 -154.255)" fill="#ebebeb"/>
      <path id="Path_166948" data-name="Path 166948" d="M513.685,139.51a34.383,34.383,0,0,0,9.259,29.328C523.407,159.292,520.216,146.509,513.685,139.51Z" transform="translate(-312.685 -92.192)" fill="#ebebeb"/>
      <path id="Path_166949" data-name="Path 166949" d="M532.247,121.68a29.353,29.353,0,0,0,7.9,25.025C540.546,138.566,537.822,127.653,532.247,121.68Z" transform="translate(-323.67 -81.677)" fill="#ebebeb"/>
      <path id="Path_166950" data-name="Path 166950" d="M549.929,108.83a23.515,23.515,0,0,0,6.33,20.057C556.567,122.352,554.392,113.613,549.929,108.83Z" transform="translate(-334.14 -74.099)" fill="#ebebeb"/>
      <path id="Path_166951" data-name="Path 166951" d="M563.243,191.521a34.871,34.871,0,0,1-30.473,6.646C540.954,192.969,553.787,189.3,563.243,191.521Z" transform="translate(-324.193 -122.477)" fill="#ebebeb"/>
      <path id="Path_166952" data-name="Path 166952" d="M576.018,166.43A29.751,29.751,0,0,1,550,172.1C556.995,167.652,567.956,164.538,576.018,166.43Z" transform="translate(-334.355 -107.736)" fill="#ebebeb"/>
      <path id="Path_166953" data-name="Path 166953" d="M585.928,144.652a23.831,23.831,0,0,1-20.828,4.541C570.692,145.632,579.471,143.138,585.928,144.652Z" transform="translate(-343.26 -94.959)" fill="#ebebeb"/>
      <path id="Path_166954" data-name="Path 166954" d="M583.738,89.74c-6.662,4.792-11.987,15.113-12.008,23.322C579.447,107.352,584.39,98.372,583.738,89.74Z" transform="translate(-347.17 -62.84)" fill="#ebebeb"/>
      <path id="Path_166955" data-name="Path 166955" d="M513.463,180.5c-.193-.1,5.551-10.453,12.878-23.072s13.419-22.773,13.624-22.654-5.563,10.449-12.882,23.08S513.681,180.623,513.463,180.5Z" transform="translate(-312.804 -89.401)" fill="#ebebeb"/>
      <path id="Path_166956" data-name="Path 166956" d="M579.945,370.895a27.285,27.285,0,0,0-24.385,1.231C562.821,374.39,573.27,374.505,579.945,370.895Z" transform="translate(-337.634 -227.297)" fill="#ebebeb"/>
      <path id="Path_166957" data-name="Path 166957" d="M595.082,389.185a23.306,23.306,0,0,0-20.812,1.054C580.465,392.147,589.383,392.249,595.082,389.185Z" transform="translate(-348.668 -238.285)" fill="#ebebeb"/>
      <path id="Path_166958" data-name="Path 166958" d="M607.4,405.745a18.65,18.65,0,0,0-16.664.845C595.7,408.14,602.838,408.206,607.4,405.745Z" transform="translate(-358.381 -248.28)" fill="#ebebeb"/>
      <path id="Path_166959" data-name="Path 166959" d="M552.286,399.28a27.675,27.675,0,0,1,.993-24.73C555.65,381.877,555.876,392.47,552.286,399.28Z" transform="translate(-334.261 -230.808)" fill="#ebebeb"/>
      <path id="Path_166960" data-name="Path 166960" d="M570.91,414.423a23.614,23.614,0,0,1,.862-21.1C573.774,399.572,573.975,408.614,570.91,414.423Z" transform="translate(-345.46 -241.878)" fill="#ebebeb"/>
      <path id="Path_166961" data-name="Path 166961" d="M587.849,426.7a18.908,18.908,0,0,1,.681-16.9C590.146,414.805,590.306,422.058,587.849,426.7Z" transform="translate(-355.691 -251.597)" fill="#ebebeb"/>
      <path id="Path_166962" data-name="Path 166962" d="M613.6,430.737c-2.347-6.076-9.206-12.229-15.5-13.887C600.931,423.931,606.842,429.522,613.6,430.737Z" transform="translate(-362.722 -255.755)" fill="#ebebeb"/>
      <path id="Path_166963" data-name="Path 166963" d="M533.227,352.207c.131-.131,6.913,6.363,15.146,14.506s14.8,14.859,14.666,14.99-6.913-6.359-15.146-14.506S533.1,352.338,533.227,352.207Z" transform="translate(-324.462 -217.63)" fill="#ebebeb"/>
      <rect id="Rectangle_72" data-name="Rectangle 72" width="167.946" height="184.38" transform="translate(54.973)" fill="#e0e0e0"/>
      <circle id="Ellipse_74" data-name="Ellipse 74" cx="12.82" cy="12.82" r="12.82" transform="matrix(0.955, -0.296, 0.296, 0.955, 7.221, 20.26)" fill="#fff"/>
      <path id="Path_166964" data-name="Path 166964" d="M62.439,62.919a1.37,1.37,0,0,0,.209.025l.607.045.447.033a4.037,4.037,0,0,1,.533.082,9.533,9.533,0,0,1,1.321.275A12.184,12.184,0,0,1,68.942,64.8a12.718,12.718,0,0,1,5.407,15.257,13.346,13.346,0,0,1-.73,1.641,12.748,12.748,0,0,1-1,1.551,13.949,13.949,0,0,1-1.231,1.44,14.741,14.741,0,0,1-1.469,1.231,12.274,12.274,0,0,1-3.491,1.809,12.54,12.54,0,0,1-8,0,12.229,12.229,0,0,1-3.467-1.809A13.786,13.786,0,0,1,53.5,84.7a14.5,14.5,0,0,1-1.231-1.44,11.758,11.758,0,0,1-1.727-3.2A12.742,12.742,0,0,1,55.953,64.8a12.156,12.156,0,0,1,3.389-1.44,9.37,9.37,0,0,1,1.317-.275c.193-.029.369-.066.533-.082l.447-.033.611-.021.205-.025a.821.821,0,0,0-.209,0h-.611l-.427.025a4.786,4.786,0,0,0-.542.07,9.242,9.242,0,0,0-1.333.246,12.156,12.156,0,0,0-3.446,1.395,12.886,12.886,0,0,0-5.588,15.5,13.128,13.128,0,0,0,.743,1.694,13.377,13.377,0,0,0,1.017,1.592,14.1,14.1,0,0,0,1.231,1.473,14.937,14.937,0,0,0,1.5,1.276,12.652,12.652,0,0,0,3.573,1.858,13.949,13.949,0,0,0,4.1.669,13.776,13.776,0,0,0,4.1-.673,12.394,12.394,0,0,0,3.573-1.858,13.58,13.58,0,0,0,1.5-1.272,15.131,15.131,0,0,0,1.231-1.473,13.919,13.919,0,0,0,1.017-1.592,13.664,13.664,0,0,0,.738-1.694,12.889,12.889,0,0,0-5.583-15.507A12.155,12.155,0,0,0,65.6,63.26a9.292,9.292,0,0,0-1.337-.246c-.193-.025-.373-.057-.537-.07H62.665A.82.82,0,0,0,62.439,62.919Z" transform="translate(-39.199 -47.022)" fill="#e0e0e0"/>
      <path id="Path_166965" data-name="Path 166965" d="M101.546,125.11a2.162,2.162,0,1,0,1.533.633A2.166,2.166,0,0,0,101.546,125.11Z" transform="translate(-68.599 -83.7)" fill="#fff"/>
      <path id="Path_166966" data-name="Path 166966" d="M101.342,125.062c0,.029.193.029.517.127a2.162,2.162,0,0,1,1.12.8,2.051,2.051,0,1,1-3.282,0,2.15,2.15,0,0,1,1.12-.8c.32-.1.517-.1.513-.127a1.1,1.1,0,0,0-.542,0,2.166,2.166,0,0,0-1.264.779A2.26,2.26,0,0,0,99.163,128a2.3,2.3,0,0,0,4.332,0,2.273,2.273,0,0,0-.357-2.162,2.178,2.178,0,0,0-1.264-.779,1.132,1.132,0,0,0-.533,0Z" transform="translate(-68.395 -83.651)" fill="#e0e0e0"/>
      <path id="Path_166967" data-name="Path 166967" d="M79.214,92.52a1.641,1.641,0,0,1-1.764-1.641,1.776,1.776,0,0,1,3.54,0,1.674,1.674,0,0,1-1.776,1.641Zm1.186-4.1H78.041L77.45,81.46h3.508Z" transform="translate(-55.666 -57.957)" fill="#e0e0e0"/>
    </g>
    <g id="freepik--Bricks--inject-4" transform="translate(94.81 35.825)">
      <rect id="Rectangle_73" data-name="Rectangle 73" width="22.149" height="5.858" transform="translate(11.003 73.901)" fill="#e0e0e0"/>
      <path id="Path_166968" data-name="Path 166968" d="M222.143,253.431a.312.312,0,0,1,0-.107v-1.452c0-1.009,0-2.461-.037-4.3l.07.07-22.153.045c.049-.053-.115.111.111-.115h0v5.858l-.111-.107,15.786.049,4.66.029h1.707a.275.275,0,0,1-.1,0h-1.547l-4.632.033-15.864.049h-.111v-5.891h0c.226-.226.062-.062.115-.111l22.153.041h.066v.07c0,1.85-.029,3.319-.037,4.34v1.428A.647.647,0,0,1,222.143,253.431Z" transform="translate(-198.353 -167.518)" fill="#263238"/>
      <rect id="Rectangle_74" data-name="Rectangle 74" width="22.149" height="5.858" transform="translate(111.878 133.395)" fill="#e0e0e0"/>
      <rect id="Rectangle_75" data-name="Rectangle 75" width="22.149" height="5.858" transform="translate(40.389 118.319)" fill="#ebebeb"/>
      <path id="Path_166969" data-name="Path 166969" d="M468.047,398.489v-1.563c0-1.009,0-2.461-.037-4.3l.066.07-22.153.045.115-.115h0v5.846l-.111-.111,15.786.049,4.656.033h1.592a.368.368,0,0,1,.115,0h-1.649l-4.632.029-15.864.049h-.111v-5.891h0l.111-.111,22.153.041h.07v.07c0,1.85-.029,3.319-.037,4.34V398.4A.41.41,0,0,1,468.047,398.489Z" transform="translate(-343.374 -253.062)" fill="#263238"/>
      <rect id="Rectangle_76" data-name="Rectangle 76" width="22.149" height="5.858" transform="translate(40.389 27.691)" fill="#e0e0e0"/>
      <rect id="Rectangle_77" data-name="Rectangle 77" width="22.149" height="5.858" transform="translate(0 3.044)" fill="#ebebeb"/>
      <path id="Path_166970" data-name="Path 166970" d="M293.757,140.829v-1.563c0-1.009-.021-2.461-.037-4.3l.066.07-22.153.045.115-.115h0v5.846l-.111-.111,15.786.049,4.66.033h1.588a.369.369,0,0,1,.115,0h-1.649l-4.632.029-15.864.049h-.111v-5.891h0l.111-.111,22.153.041h.07v.07c0,1.85-.029,3.319-.037,4.34v1.428a.247.247,0,0,1-.07.09Z" transform="translate(-240.585 -101.105)" fill="#263238"/>
      <path id="Path_166971" data-name="Path 166971" d="M480.793,160.682a.662.662,0,0,1,0-.107v-1.456c0-1.009,0-2.461-.037-4.3l.07.07-22.153.045c.049-.053-.115.111.111-.115h0v5.846l-.107-.111,15.782.049,4.66.033h1.588a.409.409,0,0,1,.119,0h-1.649l-4.636.029-15.86.053h-.111v-5.9h0c.226-.226.062-.062.115-.111l22.153.041h.07v.07c0,1.85-.033,3.319-.041,4.34v1.428C480.8,160.653,480.793,160.682,480.793,160.682Z" transform="translate(-350.893 -112.806)" fill="#263238"/>
      <path id="Path_166972" data-name="Path 166972" d="M500.834,146.419a.627.627,0,0,1,0-.111v-1.485c0-1.026-.025-2.461-.045-4.262l.082.082-13.308.029.111-.111h0v5.854l-.107-.107,9.518.049,2.773.033h1.017a1.673,1.673,0,0,1-.242,0h-.726l-2.749.029-9.592.049h-.107v-5.9h0l.115-.115,13.308.033h.082v.082c0,1.805-.033,3.282-.045,4.312v1.157A3.242,3.242,0,0,1,500.834,146.419Z" transform="translate(-367.931 -104.402)" fill="#263238"/>
      <path id="Path_166973" data-name="Path 166973" d="M413.593,271.135a.6.6,0,0,1,0-.107v-1.452c0-1.013,0-2.461-.037-4.3l.07.066-22.153.045.111-.111h0v5.838l-.111-.111,15.786.049,4.66.033h.057l-4.632.033-15.864.049h-.111v-5.883h0l.115-.115,22.153.045h.07v.07c0,1.85-.029,3.319-.037,4.34v1.424a.758.758,0,0,1-.078.086Z" transform="translate(-311.262 -177.956)" fill="#263238"/>
      <path id="Path_166974" data-name="Path 166974" d="M445.823,58.562a.357.357,0,0,1,0-.107V57c0-1.009-.02-2.461-.037-4.3l.07.07-22.153.045c.049-.053-.115.111.111-.115h0v5.846l-.111-.111,15.786.049,4.66.033h1.588a.434.434,0,0,1,.119,0h-1.649l-4.632.029-15.864.049H423.6V52.7h0c.226-.226.062-.062.115-.111l22.153.041h.066v.07c0,1.85-.029,3.319-.037,4.34v1.428A.844.844,0,0,1,445.823,58.562Z" transform="translate(-330.269 -52.581)" fill="#263238"/>
      <path id="Path_166975" data-name="Path 166975" d="M257.491,446.468v-1.559c0-1.013-.025-2.461-.041-4.3l.07.066-22.153.045.111-.111h0v5.85l-.111-.111,15.786.049,4.656.033h1.707a.406.406,0,0,1-.1,0h-1.547l-4.636.033-15.86.049h-.111v-5.949h0l.115-.115,22.153.045h.07v.07c0,1.85-.029,3.319-.037,4.34v1.424A.2.2,0,0,1,257.491,446.468Z" transform="translate(-219.195 -281.329)" fill="#263238"/>
    </g>
    <g id="freepik--character-1--inject-4" transform="translate(42.476 30.18)">
      <path id="Path_166976" data-name="Path 166976" d="M141.468,183.47,133.3,193.6q2.745,4.1,5.485,8.242A22.637,22.637,0,0,0,141.468,183.47Z" transform="translate(-106.73 -124.128)" fill="#263238"/>
      <path id="Path_166977" data-name="Path 166977" d="M79.464,149.586a13.719,13.719,0,0,1,8.644-3.4,29.141,29.141,0,0,1,9.354,1.288,14.226,14.226,0,0,1,4.857,2.1c2.589,1.945,5.473,4.541,6.285,7.672,1.608,6.2.82,12.5.127,14.244-.882,2.232-3.426,3.442-5.555,4.554L76.1,157.282a10.871,10.871,0,0,1,3.364-7.7Z" transform="translate(-72.996 -102.121)" fill="#263238"/>
      <path id="Path_166978" data-name="Path 166978" d="M72.265,161.6l4.751-2.191c-1.03,7.2,2.1,22.227,2.326,29.5-2.531-2.178-8.915-9.194-9.526-12.484S66.2,162.594,72.265,161.6Z" transform="translate(-68.533 -109.939)" fill="#263238"/>
      <path id="Path_166979" data-name="Path 166979" d="M77.028,173.857c-.989-5.062.747-12.037,5.846-12.783L95.116,161a8.818,8.818,0,0,1,8.447,6.154c.062.185,0-.049.053.094l1.641,11,4.57,17.641c-.673,5.038-7.347,8.2-13.821,11.077-.152-.41-1.341-4.164-1.341-4.164s-1.678-6.564-1.678-6.535-8.377,1.022-11.844-6.945C79.408,185.377,78.091,179.481,77.028,173.857Z" transform="translate(-73.387 -110.876)" fill="#ffbf9d"/>
      <path id="Path_166980" data-name="Path 166980" d="M91.473,203.745a1.1,1.1,0,0,0,1.3.82,1.058,1.058,0,0,0,.849-1.231,1.1,1.1,0,0,0-1.3-.82,1.05,1.05,0,0,0-.849,1.231Z" transform="translate(-82.051 -135.345)" fill="#263238"/>
      <path id="Path_166981" data-name="Path 166981" d="M82.46,196.955c.168.1.82-.7,1.965-1s2.137.066,2.224-.107c.045-.078-.152-.3-.587-.468a3.019,3.019,0,0,0-1.826-.082,2.872,2.872,0,0,0-1.522.964C82.431,196.626,82.378,196.909,82.46,196.955Z" transform="translate(-76.726 -131.045)" fill="#263238"/>
      <path id="Path_166982" data-name="Path 166982" d="M115.515,197.644a1.1,1.1,0,0,0,1.3.82,1.046,1.046,0,0,0,.849-1.231,1.1,1.1,0,0,0-1.3-.82,1.054,1.054,0,0,0-.853,1.231Z" transform="translate(-96.23 -131.746)" fill="#263238"/>
      <path id="Path_166983" data-name="Path 166983" d="M108.963,190.045c.168.1.82-.7,1.969-1s2.133.066,2.224-.107c.045-.078-.156-.3-.591-.468a3.019,3.019,0,0,0-1.826-.082,2.872,2.872,0,0,0-1.518.964C108.963,189.716,108.894,190,108.963,190.045Z" transform="translate(-92.362 -126.969)" fill="#263238"/>
      <path id="Path_166984" data-name="Path 166984" d="M101.447,202.834a8.3,8.3,0,0,0-1.949.144c-.3.045-.591.057-.693-.127a1.551,1.551,0,0,1-.029-.919c.094-.779.189-1.6.291-2.461a39.836,39.836,0,0,0,.439-6.33,39.469,39.469,0,0,0-.931,6.289c-.086.857-.172,1.674-.25,2.461a1.744,1.744,0,0,0,.144,1.186.743.743,0,0,0,.591.3,1.912,1.912,0,0,0,.517-.057A8.039,8.039,0,0,0,101.447,202.834Z" transform="translate(-86.076 -129.831)" fill="#263238"/>
      <path id="Path_166985" data-name="Path 166985" d="M126.54,232.81s-1.231,6.408-9.727,7.774l-.513-1.953a21.608,21.608,0,0,0,10.24-5.821Z" transform="translate(-96.704 -153.227)" fill="#ff9a6c"/>
      <path id="Path_166986" data-name="Path 166986" d="M107.24,179.993c.193.283,1.3-.16,2.687-.345s2.568-.1,2.675-.41c.045-.156-.222-.41-.738-.587a4.718,4.718,0,0,0-4.1.587C107.339,179.55,107.154,179.857,107.24,179.993Z" transform="translate(-91.349 -121.151)" fill="#263238"/>
      <path id="Path_166987" data-name="Path 166987" d="M81.1,188.121c.271.209.989-.267,1.936-.525s1.8-.279,1.912-.6c.049-.152-.148-.377-.562-.533a2.892,2.892,0,0,0-3.1.9C81.021,187.719,80.98,188.019,81.1,188.121Z" transform="translate(-75.907 -125.813)" fill="#263238"/>
      <path id="Path_166988" data-name="Path 166988" d="M77.536,159.506a3.765,3.765,0,0,1,2.683-2.9,7.339,7.339,0,0,1,4.1.115c5.69,1.571,10.026,7.795,15.684,9.493,1.387.41,2.777-.66,4.049.037a3.635,3.635,0,0,1,2.109,3.5,11.947,11.947,0,0,0,.948-3.307,4.057,4.057,0,0,0-.98-3.2c-.615-.624-1.506-.989-1.924-1.756a11.427,11.427,0,0,1-.5-2.236,4.976,4.976,0,0,0-1.313-1.92,22.343,22.343,0,0,0-10.108-6.277,14.5,14.5,0,0,0-7.774,0,11.109,11.109,0,0,0-6.186,4.591c-.82,1.3-1.7,2.654-.771,3.889" transform="translate(-73.616 -104.693)" fill="#263238"/>
      <path id="Path_166989" data-name="Path 166989" d="M143.14,189.977c.025-.258,3.947-2.95,5.2,1.641,1.231,4.455-3.52,4.751-3.561,4.623S143.14,189.977,143.14,189.977Z" transform="translate(-112.533 -127.365)" fill="#ffbf9d"/>
      <path id="Path_166990" data-name="Path 166990" d="M148.56,196.256c0-.021.09.033.238.057a.821.821,0,0,0,.587-.148,1.99,1.99,0,0,0,.41-1.965,2.609,2.609,0,0,0-.521-1.05.915.915,0,0,0-.743-.439.41.41,0,0,0-.41.336c-.025.139.025.222,0,.234s-.115-.045-.131-.242a.509.509,0,0,1,.1-.324.587.587,0,0,1,.41-.23,1.12,1.12,0,0,1,1,.472,2.7,2.7,0,0,1,.607,1.169,2.06,2.06,0,0,1-.611,2.232.853.853,0,0,1-.743.074C148.6,196.358,148.548,196.268,148.56,196.256Z" transform="translate(-115.393 -129.443)" fill="#ff9a6c"/>
      <path id="Path_166991" data-name="Path 166991" d="M106.239,169.487a1.773,1.773,0,0,1-.308-.078c-.2-.066-.5-.144-.874-.283a15.84,15.84,0,0,1-2.987-1.567,45.362,45.362,0,0,1-3.951-3.065,36.252,36.252,0,0,0-4.886-3.631,14.244,14.244,0,0,0-2.872-1.264,12.054,12.054,0,0,0-2.872-.5,13.226,13.226,0,0,0-4.886.656,12.66,12.66,0,0,0-3.011,1.448c-.336.209-.578.41-.747.525a1.993,1.993,0,0,1-.267.181,1.469,1.469,0,0,1,.238-.213,7.463,7.463,0,0,1,.73-.558,11.844,11.844,0,0,1,3.007-1.522,13.026,13.026,0,0,1,4.948-.706,12.094,12.094,0,0,1,2.925.492,14.658,14.658,0,0,1,2.917,1.276,35.143,35.143,0,0,1,4.923,3.668,48.819,48.819,0,0,0,3.91,3.089,16.985,16.985,0,0,0,2.933,1.612c.365.152.665.242.857.32A1.424,1.424,0,0,1,106.239,169.487Z" transform="translate(-74.458 -109.637)" fill="#455a64"/>
      <path id="Path_166992" data-name="Path 166992" d="M133.352,181.545a7.064,7.064,0,0,1,.5,3.692,2.451,2.451,0,0,1-2.732,2.01c-.993-.267-1.543-1.309-1.945-2.256-1.165-2.74-2.113-5.567-3.282-8.291Z" transform="translate(-102.36 -120.135)" fill="#263238"/>
      <path id="Path_166993" data-name="Path 166993" d="M79.42,165.329c0,.025.373-.176,1.083-.386a7.885,7.885,0,0,1,3.1-.23,9.957,9.957,0,0,1,2.1.468,20.554,20.554,0,0,1,2.293.964,23.544,23.544,0,0,1,4.788,3.06c.775.648,1.493,1.337,2.236,1.953a11.729,11.729,0,0,0,2.318,1.551,20.815,20.815,0,0,0,4.435,1.543c1.3.3,2.367.48,3.106.6l.849.127a1.1,1.1,0,0,0,.3.025,1.642,1.642,0,0,0-.291-.078l-.841-.172c-.73-.152-1.789-.353-3.077-.681a21.087,21.087,0,0,1-4.365-1.584,11.615,11.615,0,0,1-2.265-1.526c-.73-.611-1.444-1.3-2.228-1.961a23.326,23.326,0,0,0-4.861-3.077,20.417,20.417,0,0,0-2.326-.948,9.883,9.883,0,0,0-2.15-.451,7.619,7.619,0,0,0-3.151.316,5.426,5.426,0,0,0-.8.332A1.1,1.1,0,0,0,79.42,165.329Z" transform="translate(-74.954 -112.928)" fill="#455a64"/>
      <path id="Path_166994" data-name="Path 166994" d="M141.4,171.629a1.882,1.882,0,0,0,.468.164l1.3.369.439.119a1.231,1.231,0,0,0,.529.037.484.484,0,0,0,.283-.152.386.386,0,0,0,.09-.336,1.03,1.03,0,0,0-.357-.513l-1.863-1.76-.135.209a4.845,4.845,0,0,0,1.641.345,4.767,4.767,0,0,0,1.641-.23,1.357,1.357,0,0,0,.386-.176.562.562,0,0,0,.271-.39.5.5,0,0,0-.193-.435,2.214,2.214,0,0,0-.328-.213,9.727,9.727,0,0,1-2.023-1.522,16.676,16.676,0,0,1-1.506-1.805,2.552,2.552,0,0,0,.3.562,8.386,8.386,0,0,0,1.075,1.37,9.211,9.211,0,0,0,2.051,1.6c.209.115.41.25.41.41s-.254.291-.488.353a4.575,4.575,0,0,1-1.563.209,4.652,4.652,0,0,1-1.538-.316l-.636-.25.5.459,1.883,1.739a.874.874,0,0,1,.3.386c.029.127-.062.23-.205.258a2.343,2.343,0,0,1-.89-.123l-1.325-.3a2.211,2.211,0,0,0-.529-.078Z" transform="translate(-111.507 -113.436)" fill="#455a64"/>
      <path id="Path_166995" data-name="Path 166995" d="M109.709,219.774a2.051,2.051,0,0,1,1.641-1.14,1.875,1.875,0,0,1,1.415.377,1.157,1.157,0,0,1,.382,1.284,1.4,1.4,0,0,1-1.374.693,4.361,4.361,0,0,1-1.608-.509,1.342,1.342,0,0,1-.41-.25.382.382,0,0,1-.09-.41" transform="translate(-92.775 -144.855)" fill="#ff9a6c"/>
      <path id="Path_166996" data-name="Path 166996" d="M111.449,215.3c-.18.033.086,1.231-.755,2.3s-2.154,1.231-2.125,1.407c0,.078.336.168.882.057a3.134,3.134,0,0,0,1.793-1.108,2.646,2.646,0,0,0,.558-1.908C111.732,215.536,111.531,215.273,111.449,215.3Z" transform="translate(-92.145 -142.898)" fill="#263238"/>
      <path id="Path_166997" data-name="Path 166997" d="M98.477,247.367s-8.566,4.291-10.843,9.85-1.8,9.083-1.108,14.8,3.754,27.154,5.21,30.846c1.136,2.872,2.609,6.564,10.207,5.247l13.288-2.3V245.16h0a10.957,10.957,0,0,1-8.586,5.6C102.834,251.063,98.477,247.367,98.477,247.367Z" transform="translate(-78.807 -160.51)" fill="#c53f3f"/>
      <path id="Path_166998" data-name="Path 166998" d="M116.8,361.775a3.614,3.614,0,0,1,.587-.213c.382-.127.939-.291,1.641-.472a38.65,38.65,0,0,1,5.514-1.017,39.109,39.109,0,0,1,5.6-.222c.718.025,1.3.057,1.7.1a3.427,3.427,0,0,1,.615.082,3.175,3.175,0,0,1-.624,0c-.41,0-.976-.029-1.694-.037a47.681,47.681,0,0,0-5.575.287,48.264,48.264,0,0,0-5.5.948c-.7.164-1.259.3-1.641.41A3.071,3.071,0,0,1,116.8,361.775Z" transform="translate(-96.999 -228.138)" fill="#263238"/>
      <path id="Path_166999" data-name="Path 166999" d="M108.519,287.2a2.356,2.356,0,0,1,.025.332c0,.238,0,.554.033.952.029.82.066,2.022.131,3.5a62.928,62.928,0,0,0,1.428,11.425,40.832,40.832,0,0,0,1.891,6.047,24.512,24.512,0,0,0,2.461,4.554,21.782,21.782,0,0,0,2.2,2.7c.279.3.521.517.669.673a1.793,1.793,0,0,1,.23.246,1.971,1.971,0,0,1-.258-.213c-.16-.148-.41-.349-.7-.648a19.808,19.808,0,0,1-2.273-2.671,23.834,23.834,0,0,1-2.5-4.562,39.469,39.469,0,0,1-1.928-6.076,59.1,59.1,0,0,1-1.374-11.487c-.049-1.477-.062-2.675-.062-3.5v-.956A1.612,1.612,0,0,1,108.519,287.2Z" transform="translate(-92.103 -185.303)" fill="#263238"/>
      <path id="Path_167000" data-name="Path 167000" d="M157.167,210.946c-.057,0-.107-38.534-.107-86.061s.049-86.065.107-86.065.107,38.526.107,86.065S157.228,210.946,157.167,210.946Z" transform="translate(-120.742 -38.82)" fill="#263238"/>
      <path id="Path_167001" data-name="Path 167001" d="M155.6,317.342s1.173-1.153.021-1.949-1.481-.82-3.8-.41-3.77,1.124-3.967,2.285a2.383,2.383,0,0,0,.41,1.858,2.52,2.52,0,0,0-1.136,2.461l.636,1.817a3.445,3.445,0,0,0-.488,2.461,3.069,3.069,0,0,0,1.1,1.588s-.669,2.461,0,3.758a36.74,36.74,0,0,0,2.823,3.975l-.041-7.019s4.706-3.06,4.9-4.636-.267-2-.267-2a1.393,1.393,0,0,0,.066-2.088A1.374,1.374,0,0,0,155.6,317.342Z" transform="translate(-114.885 -201.534)" fill="#ffbf9d"/>
      <path id="Path_167002" data-name="Path 167002" d="M157.434,331.34a10.117,10.117,0,0,1-1.177.767c-.734.459-1.76,1.079-2.872,1.8-.554.361-1.075.714-1.526,1.063a5.924,5.924,0,0,0-1.05,1.063,4.544,4.544,0,0,0-.521.866,3.077,3.077,0,0,1-.148.345,2.461,2.461,0,0,1,.546-1.3,5.83,5.83,0,0,1,1.038-1.128c.455-.365.976-.722,1.534-1.083,1.112-.722,2.15-1.325,2.909-1.748A8.375,8.375,0,0,1,157.434,331.34Z" transform="translate(-116.661 -211.335)" fill="#ff9a6c"/>
      <path id="Path_167003" data-name="Path 167003" d="M156.34,326.2a1.485,1.485,0,0,1-.369.16l-1.03.369c-.866.316-2.051.738-3.364,1.28a14.216,14.216,0,0,0-1.768.857,4.959,4.959,0,0,0-1.723,1.981c-.107.234-.139.373-.156.369a2.548,2.548,0,0,1,.6-1.37,4.259,4.259,0,0,1,1.177-1.149,12.972,12.972,0,0,1,1.789-.886c1.3-.546,2.519-.948,3.4-1.231.443-.139.8-.242,1.05-.308A1.607,1.607,0,0,1,156.34,326.2Z" transform="translate(-115.358 -208.304)" fill="#ff9a6c"/>
      <path id="Path_167004" data-name="Path 167004" d="M157.41,320.86a6.565,6.565,0,0,1-1.091.275c-.677.152-1.608.353-2.638.595s-1.945.5-2.6.718-1.017.435-1.038.41.078-.082.238-.193a4.919,4.919,0,0,1,.747-.361,20.076,20.076,0,0,1,2.6-.779c1.034-.246,1.973-.41,2.658-.537A5.068,5.068,0,0,1,157.41,320.86Z" transform="translate(-116.604 -205.155)" fill="#ff9a6c"/>
    </g>
    <g id="freepik--character-2--inject-4" transform="translate(232.675 32.769)">
      <path id="Path_167005" data-name="Path 167005" d="M675.451,142.254a3.692,3.692,0,0,0,4.989-5.436,3.86,3.86,0,0,0,.373-7.315,4.619,4.619,0,0,0-4.1-6.773,5.194,5.194,0,0,0-5.456-3.331,3.692,3.692,0,0,0-5.969,3.766" transform="translate(-610.594 -88.405)" fill="#263238"/>
      <path id="Path_167006" data-name="Path 167006" d="M621.511,125.258l.7.41a15.729,15.729,0,0,1,6.236,20.4c-3.311,6.872-7.052,14.42-9.153,17.915-4.353,7.233-12.307,4.1-12.307,4.1l-4.513,9.12-9.665,1.936-7.7-12.828,17-32.672C605.9,125.7,613.667,121.27,621.511,125.258Z" transform="translate(-563.386 -91.507)" fill="#ae7461"/>
      <path id="Path_167007" data-name="Path 167007" d="M627.131,219.8a20.4,20.4,0,0,1-7.848-8.353s-.734,6.634,6.921,10.232Z" transform="translate(-583.529 -143.218)" fill="#6f4439"/>
      <path id="Path_167008" data-name="Path 167008" d="M647.778,140.164s.747-5.69-.82-8.041c-1.912-2.847-4.767-.595-6.892-2.79s-3.947-4.923-7.688-4.472c-4.1.484-3.647,2.769-5.715,5.9-8.377,12.693-12.939,15-10.01,8.426.32-.722-1.231-2.355.152-5.378,1.809-3.918,4.3-8.5,6.662-10.666,1.994-1.809,4.156-2.605,7.409-2.966,5.136-.574,10.084,2.244,13.226,4.513S651.425,134.626,647.778,140.164Z" transform="translate(-581.464 -89.347)" fill="#263238"/>
      <path id="Path_167009" data-name="Path 167009" d="M609.657,161.709a2.293,2.293,0,0,0-1.022-3.155c-1.436-.669-3.4-.779-4.952,2.08-2.757,5.079,2.909,6.794,2.995,6.654S608.52,163.838,609.657,161.709Z" transform="translate(-573.894 -111.79)" fill="#ae7461"/>
      <path id="Path_167010" data-name="Path 167010" d="M609.533,167.633c0-.029-.123,0-.308,0a1,1,0,0,1-.669-.345,2.562,2.562,0,0,1,.053-2.515,3.315,3.315,0,0,1,.931-1.128,1.165,1.165,0,0,1,1.034-.32.509.509,0,0,1,.39.525c0,.181-.094.263-.074.287s.156-.025.23-.258a.628.628,0,0,0-.029-.41.746.746,0,0,0-.41-.41,1.411,1.411,0,0,0-1.35.287,3.422,3.422,0,0,0-1.075,1.231,2.613,2.613,0,0,0,.1,2.892,1.067,1.067,0,0,0,.878.3C609.456,167.748,609.546,167.649,609.533,167.633Z" transform="translate(-576.815 -114.642)" fill="#6f4439"/>
      <path id="Path_167011" data-name="Path 167011" d="M629.119,126.729a5.6,5.6,0,0,0,1.538,2.207,1.868,1.868,0,0,0,2.461-.09c.258-.312.41-.763.8-.9.459-.16.9.234,1.292.521,1.362,1,3.988.41,5.181-.8a1.506,1.506,0,0,0,1.526,1.374,5.357,5.357,0,0,0,1.826-.365,2.381,2.381,0,0,1,2.211.144c.336.271.554.689.944.874.689.324,1.456-.254,1.936-.845s1-1.3,1.76-1.333c.7-.029,1.259.55,1.809.993s1.411.755,1.908.254a1.374,1.374,0,0,0,.308-1.034,3.741,3.741,0,0,0-3.1-3.45,5.067,5.067,0,0,0-7.54-5.547,5.144,5.144,0,0,0-8.041-2.531,3.725,3.725,0,0,0-6.351,2.56,3.528,3.528,0,0,0-3.106,1.448,2.022,2.022,0,0,0,.935,2.946,2.064,2.064,0,0,0,2.051,3.581" transform="translate(-587.613 -86.406)" fill="#263238"/>
      <path id="Path_167012" data-name="Path 167012" d="M651.322,134.85s0,.037-.057.09-.1.148-.185.25a3.691,3.691,0,0,1-.923.747,4.1,4.1,0,0,1-1.8.533,3.848,3.848,0,0,1-2.38-.611l.148-.062a2.092,2.092,0,0,1-.9,1.317,5.976,5.976,0,0,1-1.571.726,4.272,4.272,0,0,1-.89.246,1.986,1.986,0,0,1-.96-.168,2.1,2.1,0,0,1-1.268-1.514l.217.057a4.349,4.349,0,0,1-3.1,1.641,3.163,3.163,0,0,1-1.953-.41,5.667,5.667,0,0,1-1.4-1.3h.168a4.57,4.57,0,0,1-2.08.849,2.437,2.437,0,0,1-2.014-.542,3.183,3.183,0,0,1-.857-3.385l.082.119a3,3,0,0,1-1.858-.751,3.192,3.192,0,0,1-.882-1.231,2.774,2.774,0,0,1-.2-.935,1.408,1.408,0,0,1,.025-.332,3.436,3.436,0,0,0,.267,1.231,3.208,3.208,0,0,0,.882,1.161,2.872,2.872,0,0,0,1.772.681h.123l-.041.119a3,3,0,0,0,.82,3.159,2.191,2.191,0,0,0,1.838.472,4.356,4.356,0,0,0,1.961-.82l.09-.07.078.086a5.511,5.511,0,0,0,1.341,1.231,2.913,2.913,0,0,0,1.805.386,4.1,4.1,0,0,0,2.925-1.559l.168-.217.049.271a1.867,1.867,0,0,0,1.12,1.337,1.792,1.792,0,0,0,.845.156,4.154,4.154,0,0,0,.821-.23,5.706,5.706,0,0,0,1.518-.685,1.891,1.891,0,0,0,.82-1.182l.029-.144.123.082a3.692,3.692,0,0,0,2.26.615,4.1,4.1,0,0,0,1.752-.472A4.512,4.512,0,0,0,651.322,134.85Z" transform="translate(-587.888 -95.295)" fill="#455a64"/>
      <path id="Path_167013" data-name="Path 167013" d="M669.561,187.969a1.2,1.2,0,0,1-1.641.447,1.153,1.153,0,0,1-.509-1.567,1.2,1.2,0,0,1,1.641-.447,1.153,1.153,0,0,1,.509,1.567Z" transform="translate(-611.846 -128.352)" fill="#263238"/>
      <path id="Path_167014" data-name="Path 167014" d="M677.737,181.338c-.209.057-.644-.989-1.76-1.641s-2.256-.595-2.3-.82c0-.1.254-.263.763-.308a3.282,3.282,0,0,1,1.94.476,3.162,3.162,0,0,1,1.3,1.481C677.865,181,677.836,181.313,677.737,181.338Z" transform="translate(-615.621 -123.822)" fill="#263238"/>
      <path id="Path_167015" data-name="Path 167015" d="M640.754,193.66c.2.094-.164,1.169.242,2.4s1.313,1.932,1.206,2.113c-.045.09-.361.033-.775-.267a3.343,3.343,0,0,1-1.153-1.641,3.175,3.175,0,0,1,0-1.973C640.438,193.828,640.664,193.611,640.754,193.66Z" transform="translate(-595.827 -132.722)" fill="#263238"/>
      <path id="Path_167016" data-name="Path 167016" d="M644.753,175.088a1.2,1.2,0,0,1-1.62.443,1.149,1.149,0,0,1-.5-1.567,1.2,1.2,0,0,1,1.616-.447,1.153,1.153,0,0,1,.509,1.571Z" transform="translate(-597.229 -120.759)" fill="#263238"/>
      <path id="Path_167017" data-name="Path 167017" d="M650.815,166.074c-.209.057-.648-.993-1.76-1.641s-2.256-.595-2.3-.82c-.025-.094.25-.258.763-.3a3.282,3.282,0,0,1,1.94.476,3.163,3.163,0,0,1,1.3,1.481C650.959,165.737,650.914,166.049,650.815,166.074Z" transform="translate(-599.743 -114.822)" fill="#263238"/>
      <path id="Path_167018" data-name="Path 167018" d="M653.9,182.938a8.742,8.742,0,0,1,2,.755c.3.144.6.246.767.082a1.7,1.7,0,0,0,.316-.956q.214-1.268.455-2.662a43.346,43.346,0,0,1,1.5-6.777,42.9,42.9,0,0,1-.952,6.884c-.172.927-.336,1.809-.5,2.654a1.912,1.912,0,0,1-.521,1.2.841.841,0,0,1-.714.135,2.309,2.309,0,0,1-.521-.222A8.222,8.222,0,0,1,653.9,182.938Z" transform="translate(-603.953 -120.766)" fill="#263238"/>
      <path id="Path_167019" data-name="Path 167019" d="M656.43,156.56c-.283.246-1.329-.529-2.749-1.108s-2.691-.82-2.712-1.194c0-.176.345-.361.944-.41a5.136,5.136,0,0,1,4.16,1.752C656.451,156.064,656.562,156.441,656.43,156.56Z" transform="translate(-602.227 -109.242)" fill="#263238"/>
      <path id="Path_167020" data-name="Path 167020" d="M681.535,170.842c-.357.135-1.026-.607-2.01-1.19s-1.924-.89-1.965-1.268c0-.176.271-.357.775-.386a3.409,3.409,0,0,1,1.887.537,3.365,3.365,0,0,1,1.317,1.444C681.736,170.461,681.7,170.773,681.535,170.842Z" transform="translate(-617.909 -117.593)" fill="#263238"/>
      <path id="Path_167021" data-name="Path 167021" d="M602.589,225.631l-7.548-8.878a16.8,16.8,0,0,1-15.889-14.662l-7.524-3.471-3.9,1.022.168,80s21.661-22.3,21.661-22.682S602.589,225.631,602.589,225.631Z" transform="translate(-553.136 -135.652)" fill="#c53f3f"/>
      <path id="Path_167022" data-name="Path 167022" d="M576.683,293.749l8.25,5.575,11.376-22.235,7.618-12.459s5.559,5.366,3.282,15.7a142.206,142.206,0,0,1-6.9,21.251l-2.486,6.835s-1.838,6.65-4,8.709-9.366,3.6-12.865,1.854S570,303.73,570,303.73C574.923,300.8,577.795,296.547,576.683,293.749Z" transform="translate(-554.475 -174.581)" fill="#c53f3f"/>
      <path id="Path_167023" data-name="Path 167023" d="M621.185,288.73a1.784,1.784,0,0,1-.115.156l-.365.435-1.391,1.641-5.017,5.83v-.021l-4.558,9.637c-1.231,2.539-2.375,4.964-3.434,7.175l-.041-.131a17.594,17.594,0,0,1,4.3,3.22,13.89,13.89,0,0,1,2.461,3.426,13.63,13.63,0,0,1,.989,2.568c.086.308.127.554.164.714a1.447,1.447,0,0,1,.045.246,1.152,1.152,0,0,1-.074-.238c-.049-.16-.1-.41-.2-.7a14.92,14.92,0,0,0-1.034-2.531,14.031,14.031,0,0,0-2.462-3.368,17.64,17.64,0,0,0-4.291-3.159l-.082-.045.041-.086,3.417-7.183c1.682-3.52,3.282-6.818,4.6-9.616h0l5.091-5.8,1.432-1.612.382-.41A.885.885,0,0,1,621.185,288.73Z" transform="translate(-575.753 -188.794)" fill="#263238"/>
      <path id="Path_167024" data-name="Path 167024" d="M576.255,355.843a1.086,1.086,0,0,1-.135-.185c-.094-.144-.217-.328-.369-.566-.328-.509-.788-1.231-1.362-2.129-1.161-1.846-2.786-4.427-4.681-7.446l-.057-.09.094-.049a16.082,16.082,0,0,0,5-3.947,9.382,9.382,0,0,0,1.641-2.917,6.3,6.3,0,0,0,.312-1.555,4.283,4.283,0,0,0,0-.763,1.975,1.975,0,0,0-.082-.357.566.566,0,0,0-.152-.267l.107-.168,7.245,4.853,2.051,1.407.546.382a1.387,1.387,0,0,1,.185.144,1,1,0,0,1-.2-.115l-.566-.353-2.1-1.362-7.29-4.792.107-.168a.71.71,0,0,1,.242.373,2.277,2.277,0,0,1,.09.41,4.379,4.379,0,0,1,.025.821,6.686,6.686,0,0,1-.316,1.608,9.521,9.521,0,0,1-1.641,2.982,16.106,16.106,0,0,1-5.075,3.992l.037-.139,4.615,7.483,1.313,2.162.344.578Q576.222,355.755,576.255,355.843Z" transform="translate(-554.269 -216.318)" fill="#263238"/>
      <path id="Path_167025" data-name="Path 167025" d="M573.574,331.26l-.435.238-4.32,3.462s-.845,2.872-.82,3.056,1.981,4.213,1.981,4.213c5.932-3.491,5.743-8.016,5.743-8.016Z" transform="translate(-553.295 -213.877)" fill="#ae7461"/>
      <path id="Path_167026" data-name="Path 167026" d="M567.577,215.328c-.062,0-.107-38.1-.107-85.093s.045-85.105.107-85.105.111,38.1.111,85.109S567.634,215.328,567.577,215.328Z" transform="translate(-552.983 -45.13)" fill="#263238"/>
      <path id="Path_167027" data-name="Path 167027" d="M554.641,179.91s5.026,1.744,5.526,3.073a3.454,3.454,0,0,1-.209,2.617,4.815,4.815,0,0,1,.386,2.58c-.263,1.165-.677,1.231-.677,1.231a1.711,1.711,0,0,1,.743,2,3.225,3.225,0,0,1-1.157,1.912,4.1,4.1,0,0,1-.164,2.991c-.747,1.288-.915,2.827-2.33,2.991s-7.934-1.912-8.435-3.323,1.62-2.162,1.62-2.162-4.238-1.206-4.156-2.658a2.4,2.4,0,0,1,1.641-1.953,1.108,1.108,0,0,1-.25-1.871c1.038-1.247,3.036-.5,3.91-.41a1.494,1.494,0,0,1,1.661-1.707l1.912-.041Z" transform="translate(-540.195 -124.617)" fill="#ae7461"/>
      <path id="Path_167028" data-name="Path 167028" d="M567.255,194.589a1.636,1.636,0,0,1-.152.382c-.111.238-.279.583-.5,1a5.465,5.465,0,0,1-.41.669,1.185,1.185,0,0,1-.3.357,1.665,1.665,0,0,1-.48.115,19.719,19.719,0,0,1-2.051.1c-.722,0-1.407,0-2.051-.053a3.869,3.869,0,0,1-1.559-.636,8.468,8.468,0,0,1-.919-.648c-.205-.168-.308-.275-.3-.283a1.8,1.8,0,0,1,.345.217c.222.144.537.353.944.587a4.181,4.181,0,0,0,1.5.57c.619.033,1.3.037,2.023.033s1.4-.021,2.014-.082a1.511,1.511,0,0,0,.41-.082,1,1,0,0,0,.25-.291c.156-.226.287-.443.41-.648C566.947,195.086,567.226,194.573,567.255,194.589Z" transform="translate(-547.709 -133.274)" fill="#6f4439"/>
      <path id="Path_167029" data-name="Path 167029" d="M570.13,187.691a5.467,5.467,0,0,0-1.387,1.231,3.274,3.274,0,0,0-.32.542l-.029.062h-.07a2.675,2.675,0,0,0-1.165.258.789.789,0,0,1,.271-.238,1.682,1.682,0,0,1,.907-.222l-.1.062a2.9,2.9,0,0,1,.332-.583,3.1,3.1,0,0,1,1.021-.915C569.9,187.712,570.122,187.666,570.13,187.691Z" transform="translate(-552.8 -129.202)" fill="#6f4439"/>
      <path id="Path_167030" data-name="Path 167030" d="M568.783,183.431a2.88,2.88,0,0,1-.41.316,2.582,2.582,0,0,0-.952,2.055,3.187,3.187,0,0,1,0,.5.9.9,0,0,1-.164-.492,2.306,2.306,0,0,1,1.013-2.191C568.566,183.452,568.783,183.406,568.783,183.431Z" transform="translate(-552.848 -126.69)" fill="#6f4439"/>
      <path id="Path_167031" data-name="Path 167031" d="M561.81,202.855a2.57,2.57,0,0,1-.275.476,6.886,6.886,0,0,1-.94,1.173,3.1,3.1,0,0,1-2.018.939,9.054,9.054,0,0,1-2.675-.554c-1.842-.554-3.487-1.136-4.673-1.567-.591-.213-1.071-.41-1.4-.521a2.987,2.987,0,0,1-.5-.222,2.537,2.537,0,0,1,.529.14l1.419.464c1.2.41,2.847.948,4.685,1.5a9.257,9.257,0,0,0,2.605.562,3.011,3.011,0,0,0,1.924-.853,7.915,7.915,0,0,0,.972-1.112,3.226,3.226,0,0,1,.345-.427Z" transform="translate(-542.285 -137.987)" fill="#6f4439"/>
      <path id="Path_167032" data-name="Path 167032" d="M566.266,212.878a1.566,1.566,0,0,1-.217.332,6.539,6.539,0,0,1-.718.82,4.144,4.144,0,0,1-1.346.886,4.016,4.016,0,0,1-1.961.205,7.659,7.659,0,0,1-1.9-.521c-.558-.222-1.05-.443-1.465-.619-.82-.361-1.362-.509-1.354-.542a1.231,1.231,0,0,1,.41.07,9.984,9.984,0,0,1,1.021.332,15.208,15.208,0,0,0,3.327,1.067,3.877,3.877,0,0,0,1.867-.176,4.3,4.3,0,0,0,1.317-.82C565.9,213.3,566.233,212.849,566.266,212.878Z" transform="translate(-546.991 -144.06)" fill="#6f4439"/>
      <path id="Path_167033" data-name="Path 167033" d="M535.678,301.237s-.993-1.5.96-2.265a43.49,43.49,0,0,1,6.974-2.121c1.2-.111,7.475,1.444,7.475,1.444s2.207.648,2.178,2.236l-.41,1.5a3.229,3.229,0,0,1,.8,2.125,4.132,4.132,0,0,1-.738,2.01l-.254,5.1s-.226,3.692-1.641,5.181a4.59,4.59,0,0,1-3.737,1.1l-.41.152s-2.72-2.08-1.981-4.71l-3.077-2.092s-6.539-.907-6.88-2.663l.115-.907s-2.433-.365-2.433-2.051v-.849a1.51,1.51,0,0,1-.312-1.727,1.954,1.954,0,0,1,2.051-1.329A4.431,4.431,0,0,0,535.678,301.237Z" transform="translate(-532.157 -193.581)" fill="#ae7461"/>
      <path id="Path_167034" data-name="Path 167034" d="M551.163,323.455a6.335,6.335,0,0,1-1.76-.189c-.542-.094-1.177-.226-1.887-.365-.353-.07-.726-.144-1.108-.2s-.792-.053-1.206-.086c-1.666-.1-3.171-.213-4.262-.3l-1.288-.115a1.925,1.925,0,0,1-.472-.074,2.054,2.054,0,0,1,.476,0l1.3.049c1.091.049,2.6.135,4.258.238.41.033.82.045,1.231.094s.763.135,1.12.209l1.875.41c.533.119.964.2,1.264.254a3,3,0,0,1,.464.07Z" transform="translate(-536.299 -208.484)" fill="#6f4439"/>
      <path id="Path_167035" data-name="Path 167035" d="M548.513,315.649a2.232,2.232,0,0,1-.6.02c-.386,0-.944-.049-1.641-.107s-1.51-.131-2.416-.222l-1.428-.144c-.488-.045-1.005-.049-1.53-.066-2.1-.029-4.012,0-5.395,0h-1.641a4.1,4.1,0,0,1-.6-.029,2.752,2.752,0,0,1,.6-.057c.386,0,.944-.041,1.641-.062,1.383-.041,3.282-.086,5.4-.057.529,0,1.042.021,1.547.07l1.428.156,2.408.271,1.641.168A5.294,5.294,0,0,1,548.513,315.649Z" transform="translate(-532.807 -204.239)" fill="#6f4439"/>
      <path id="Path_167036" data-name="Path 167036" d="M554.134,306.421a1.28,1.28,0,0,1-.525.094,10.846,10.846,0,0,1-1.448-.057c-.607-.053-1.329-.148-2.125-.238a18.464,18.464,0,0,0-2.593-.156,11.609,11.609,0,0,0-1.337.144c-.439.062-.857.1-1.259.139-.82.07-1.53.115-2.137.152s-1.1.053-1.44.062a2.412,2.412,0,0,1-.529,0,2.263,2.263,0,0,1,.525-.074l1.436-.131,2.125-.2c.41-.041.82-.086,1.231-.148a10.758,10.758,0,0,1,1.354-.152,17.547,17.547,0,0,1,2.63.172l2.117.283c.6.074,1.091.119,1.432.127S554.126,306.4,554.134,306.421Z" transform="translate(-537.219 -198.896)" fill="#6f4439"/>
    </g>
  </g>
</svg>
