<svg xmlns="http://www.w3.org/2000/svg" width="332.519" height="188.776" viewBox="0 0 332.519 188.776">
  <g id="Group_7104" data-name="Group 7104" transform="translate(-21.24 -254.612)">
    <g id="freepik--background-complete--inject-60" transform="translate(21.24 258.226)">
      <path id="Path_166520" data-name="Path 166520" d="M575.942,99.725c.283-2.053-2.615-3.742-4.8-3.919a12.31,12.31,0,0,1-3.1-.264c-2.144-.763-3-3.5-5.056-4.37-1.554-.657-3.358-.072-4.85.686s-2.994,1.713-4.677,1.818c-1.463.1-3.056-.451-4.318.264-.96.532-1.439,1.636-2.336,2.284a5.533,5.533,0,0,1-3.051.825,8.572,8.572,0,0,0-3.147.518,2.484,2.484,0,0,0-1.573,2.523Z" transform="translate(-295.233 -80.424)" fill="#ebebeb"/>
      <path id="Path_166521" data-name="Path 166521" d="M262.341,299.911c.389-.523-16.5-27.157-16.5-27.157l-12.089-1.919L221.305,287.1l-5.277-2.475-36.939,14.435-25.905-33.005-3.953,4.111L138.85,254.73,132.181,269.5,121.906,294.97l-6.951-5.186-19.3,19.635H280.3S261.948,300.434,262.341,299.911Z" transform="translate(-64.568 -165.667)" fill="#f5f5f5"/>
      <path id="Path_166522" data-name="Path 166522" d="M315.591,367.625c0,.067-55.145.125-123.156.125s-123.175-.058-123.175-.125,55.14-.125,123.166-.125S315.591,367.558,315.591,367.625Z" transform="translate(-50.838 -224.338)" fill="#e0e0e0"/>
      <path id="Path_166523" data-name="Path 166523" d="M505.934,382.395c0,.072-11.993.13-26.812.13s-26.812-.058-26.812-.13,11.993-.125,26.812-.125S505.934,382.328,505.934,382.395Z" transform="translate(-250.128 -232.022)" fill="#e0e0e0"/>
      <path id="Path_166524" data-name="Path 166524" d="M117.819,138.7c.417-3-3.838-5.469-7-5.723-1.516-.125-3.089.11-4.529-.393-3.113-1.084-4.361-5.109-7.4-6.39-2.274-.959-4.888-.106-7.1,1s-4.394,2.528-6.841,2.663c-2.14.134-4.466-.657-6.337.389-1.4.777-2.125,2.4-3.411,3.334a8.108,8.108,0,0,1-4.461,1.214,12.59,12.59,0,0,0-4.6.748,3.633,3.633,0,0,0-2.3,3.694Z" transform="translate(-47.994 -98.574)" fill="#ebebeb"/>
      <path id="Path_166525" data-name="Path 166525" d="M582.618,244.238c.36-2.61-3.324-4.759-6.092-4.98a15.79,15.79,0,0,1-3.939-.341c-2.711-.96-3.795-4.447-6.438-5.56-1.976-.835-4.255-.091-6.169.873s-3.809,2.178-5.953,2.312c-1.861.12-3.881-.571-5.512.341-1.214.676-1.852,2.077-2.97,2.9a7.132,7.132,0,0,1-3.881,1.051,11.312,11.312,0,0,0-4,.652,3.169,3.169,0,0,0-2.005,3.214Z" transform="translate(-293.471 -154.359)" fill="#f5f5f5"/>
      <path id="Path_166526" data-name="Path 166526" d="M408.653,77.013c.254-1.842-2.346-3.358-4.318-3.516a11.078,11.078,0,0,1-2.782-.24c-1.919-.667-2.677-3.137-4.543-3.924-1.4-.59-3-.062-4.356.614a11.44,11.44,0,0,1-4.2,1.636c-1.31.086-2.739-.4-3.891.24-.854.48-1.3,1.439-2.1,2.048a4.994,4.994,0,0,1-2.739.744,7.758,7.758,0,0,0-2.821.48,2.231,2.231,0,0,0-1.415,2.264Z" transform="translate(-210.146 -69.077)" fill="#f5f5f5"/>
      <path id="Path_166527" data-name="Path 166527" d="M646.428,417c-.672-13.245-.379-8.635-1.051-21.885L621.765,381.96l-21.228,8.347-3.732,6.049a27.656,27.656,0,0,1-9.029,8.981c-4.538,2.8-10.66,7.2-12.876,11.662Z" transform="translate(-313.908 -231.861)" fill="#e0e0e0"/>
      <path id="Path_166528" data-name="Path 166528" d="M30.86,387.59l24.245,8.036,28.549,24.289H30.86Z" transform="translate(-30.86 -234.79)" fill="#e0e0e0"/>
      <path id="Path_166529" data-name="Path 166529" d="M638.17,320.45l5.037,35.879,1.31.038C643.682,344.187,642.79,331.748,638.17,320.45Z" transform="translate(-346.826 -199.859)" fill="#e0e0e0"/>
      <path id="Path_166530" data-name="Path 166530" d="M659.72,317c-3.516,3.838-4.932,9.158-5.824,14.3a110.262,110.262,0,0,0-1,23.3l1.842.043A101.119,101.119,0,0,1,659.72,317Z" transform="translate(-354.387 -198.064)" fill="#e0e0e0"/>
      <path id="Path_166531" data-name="Path 166531" d="M624.513,350.98a15.038,15.038,0,0,0-1.881-5.1,13.169,13.169,0,0,0-5.853-4.346,39.75,39.75,0,0,1-6.639-3.2c2.264,3.713,7.407,4.7,10.021,8.155a15.923,15.923,0,0,1,2.355,6c1.113,4.586,1.8,8.554,2.912,13.14h1.487A117.457,117.457,0,0,0,624.513,350.98Z" transform="translate(-332.243 -209.162)" fill="#e0e0e0"/>
      <path id="Path_166532" data-name="Path 166532" d="M659.74,366.713s1.262-14.248,2.2-16.862,9.777-9.844,9.691-9.5-6.63,8.247-7.565,9.863-2.552,16.5-2.552,16.5Z" transform="translate(-358.048 -210.205)" fill="#e0e0e0"/>
      <path id="Path_166533" data-name="Path 166533" d="M515.543,390.091a1.538,1.538,0,0,1-.307.024l-.868.024-3.2.038-10.554.038-10.554-.038-3.2-.038-.873-.024a1.509,1.509,0,0,1-.3-.024,1.163,1.163,0,0,1,.3-.024h.873l3.2-.038,10.554-.038,10.554.038,3.2.038h.868A1.18,1.18,0,0,1,515.543,390.091Z" transform="translate(-267.49 -236.039)" fill="#e0e0e0"/>
    </g>
    <g id="freepik--Plants--inject-60" transform="translate(37.626 406.313)">
      <path id="Path_166534" data-name="Path 166534" d="M582.93,404.946a2.826,2.826,0,0,1,1.151,1.89,4.987,4.987,0,0,1-.2,2.25,8.865,8.865,0,0,1-2.581,3.7,6.04,6.04,0,0,1-.888-4.121c.139-1.516,1.3-4.169,2.519-3.723" transform="translate(-333.143 -391.881)" fill="#c2341c"/>
      <path id="Path_166535" data-name="Path 166535" d="M584.349,424.034a2.4,2.4,0,0,1,1.171-2.12,3.18,3.18,0,0,1,2.456-.312,1.343,1.343,0,0,1,.96.638,1.036,1.036,0,0,1-.168,1.036,2.135,2.135,0,0,1-.9.614,4.122,4.122,0,0,1-3.5.144" transform="translate(-335.209 -400.511)" fill="#c2341c"/>
      <path id="Path_166536" data-name="Path 166536" d="M579.48,429.692a1.456,1.456,0,0,1,.1-.288c.072-.2.168-.48.288-.772a8.438,8.438,0,0,1,1.276-2.4,5.18,5.18,0,0,1,2.178-1.617,3.427,3.427,0,0,1,.806-.2h.3a5.2,5.2,0,0,0-1.079.283,5.277,5.277,0,0,0-2.125,1.612,9.339,9.339,0,0,0-1.29,2.365c-.13.321-.24.58-.317.758a2.549,2.549,0,0,1-.134.254Z" transform="translate(-332.677 -402.039)" fill="#263238"/>
      <path id="Path_166537" data-name="Path 166537" d="M581.707,409.35a.562.562,0,0,1,0,.134,2.127,2.127,0,0,1-.043.374c-.038.326-.1.792-.187,1.372-.168,1.161-.422,2.754-.744,4.514s-.648,3.358-.9,4.481c-.125.576-.23,1.036-.307,1.353-.038.149-.072.273-.091.365a.519.519,0,0,1-.043.129v-.134a2.979,2.979,0,0,1,.072-.369l.278-1.358c.23-1.147.547-2.73.868-4.486s.585-3.358.772-4.5c.1-.571.168-1.031.225-1.367.024-.154.048-.278.062-.374a.555.555,0,0,1,.038-.13Z" transform="translate(-332.63 -394.199)" fill="#263238"/>
      <path id="Path_166538" data-name="Path 166538" d="M575.4,422.469a5.656,5.656,0,0,0-2.307-4.615,1.2,1.2,0,0,0-1.262-.245c-.384.235-.408.8-.321,1.242a4.8,4.8,0,0,0,3.838,3.727" transform="translate(-328.506 -398.443)" fill="#c2341c"/>
      <path id="Path_166539" data-name="Path 166539" d="M574.75,421.14a1.859,1.859,0,0,1,.235.158,2.524,2.524,0,0,1,.264.206,4.268,4.268,0,0,1,.326.3c.115.12.245.245.369.393a5.258,5.258,0,0,1,.374.48,6.289,6.289,0,0,1,.662,1.276,6.492,6.492,0,0,1,.336,1.372,5.593,5.593,0,0,1,.034.619,4.752,4.752,0,0,1,0,.537,3.459,3.459,0,0,1-.057.437,3.053,3.053,0,0,1-.067.331,1.7,1.7,0,0,1-.082.269c-.024,0,.086-.393.13-1.041a4.753,4.753,0,0,0,0-.532,5.444,5.444,0,0,0-.048-.6,6.23,6.23,0,0,0-.336-1.348,6.476,6.476,0,0,0-.643-1.233,5.172,5.172,0,0,0-.36-.48c-.12-.149-.245-.278-.355-.4C575.071,421.389,574.735,421.159,574.75,421.14Z" transform="translate(-330.215 -400.333)" fill="#263238"/>
      <path id="Path_166540" data-name="Path 166540" d="M100.991,416.331l.2-.024c-.417-6.236-3.55-12.924-5.824-18.772-2.336-6.02-4.529-12.2-9.849-15.855a366.73,366.73,0,0,1,15.471,34.651" transform="translate(-75.683 -379.803)" fill="#455a64"/>
      <path id="Path_166541" data-name="Path 166541" d="M121.709,387.83v.082l-.072.23-.3.892c-.062.192-.134.408-.216.638l-.23.772c-.163.552-.369,1.18-.542,1.885-.091.35-.192.72-.293,1.1s-.182.787-.278,1.2c-.2.83-.365,1.727-.547,2.672-.326,1.919-.609,3.987-.777,6.2s-.178,4.318-.134,6.236c.043.959.067,1.871.144,2.72.034.427.053.84.1,1.233s.082.777.115,1.137c.067.724.173,1.372.245,1.948l.11.8c.043.245.082.48.115.667.062.393.11.705.149.926l.034.24a.509.509,0,0,1,0,.082s-.4-1.756-.753-4.649c-.038-.36-.082-.739-.125-1.137s-.067-.806-.106-1.233c-.082-.854-.11-1.765-.154-2.73-.053-1.919-.029-4.044.125-6.26s.48-4.318.792-6.208c.182-.959.35-1.847.557-2.677.1-.417.187-.82.288-1.2s.2-.753.3-1.1c.182-.705.393-1.329.561-1.885l.245-.768.225-.638c.134-.374.245-.672.317-.878q.058-.144.086-.23Z" transform="translate(-92.669 -383.003)" fill="#455a64"/>
      <rect id="Rectangle_14" data-name="Rectangle 14" width="10.708" height="3.19" rx="1.595" transform="translate(25.572 10.302) rotate(-74.18)" fill="#f5f5f5"/>
      <path id="Path_166542" data-name="Path 166542" d="M120.372,388.874a1.342,1.342,0,0,0,.254.034,1.4,1.4,0,0,0,.71-.129,1.372,1.372,0,0,0,.739-.825c.125-.432.259-.935.417-1.487.307-1.108.676-2.423,1.084-3.881.2-.729.417-1.5.643-2.288a1.367,1.367,0,0,0-.211-1.142,1.314,1.314,0,0,0-.456-.4,2.562,2.562,0,0,0-.6-.206,1.362,1.362,0,0,0-1.55.662,2.71,2.71,0,0,0-.2.576c-.225.792-.446,1.559-.652,2.288-.417,1.439-.8,2.763-1.113,3.871-.082.273-.154.537-.225.787a2.432,2.432,0,0,0-.144.7,1.439,1.439,0,0,0,.446,1.017,1.527,1.527,0,0,0,.633.345l.182.058.062.024h-.067l-.187-.048A1.43,1.43,0,0,1,119,387.44a2.644,2.644,0,0,1,.139-.724c.067-.249.139-.513.216-.787.312-1.108.681-2.4,1.089-3.881.2-.729.417-1.5.643-2.288a2.731,2.731,0,0,1,.206-.6,1.525,1.525,0,0,1,.432-.48,1.5,1.5,0,0,1,1.29-.235,3.163,3.163,0,0,1,.628.221,1.467,1.467,0,0,1,.48.441,1.5,1.5,0,0,1,.23,1.252c-.225.792-.446,1.559-.652,2.288l-1.113,3.871c-.158.552-.3,1.046-.437,1.487a1.439,1.439,0,0,1-1.521.96A.959.959,0,0,1,120.372,388.874Z" transform="translate(-93.102 -378.089)" fill="#263238"/>
      <path id="Path_166543" data-name="Path 166543" d="M120.489,430.521c-.2-4.821-.2-10.127,2.533-14.109a15.108,15.108,0,0,1,6.376-4.994A44.663,44.663,0,0,1,137.222,409c-2.96,4.145-9.662,4.193-12.473,8.424a13.442,13.442,0,0,0-1.617,4.212c-.792,3.022-1.482,5.891-2.274,8.918" transform="translate(-93.838 -394.017)" fill="#455a64"/>
      <path id="Path_166544" data-name="Path 166544" d="M76.52,418.555h.259c.168.024.417.043.734.106a17.426,17.426,0,0,1,2.643.662,18.936,18.936,0,0,1,3.68,1.684,20.613,20.613,0,0,1,1.967,1.353,18.706,18.706,0,0,1,1.919,1.732,16.424,16.424,0,0,1,1.631,1.986c.249.331.48.681.681,1.012s.413.676.59,1.012a20.365,20.365,0,0,1,1.593,3.718,17.229,17.229,0,0,1,.628,2.653c.058.317.072.566.091.734v.2a.5.5,0,0,0-.029-.192c-.034-.168-.053-.417-.12-.729a18.592,18.592,0,0,0-.667-2.634,20.673,20.673,0,0,0-1.607-3.689c-.177-.336-.389-.662-.59-1a11.912,11.912,0,0,0-.676-1.007,17.072,17.072,0,0,0-1.626-1.967,18.388,18.388,0,0,0-1.881-1.717,21.119,21.119,0,0,0-1.952-1.353,18.975,18.975,0,0,0-6.27-2.4c-.317-.072-.561-.1-.729-.13l-.192-.034Z" transform="translate(-71.001 -398.985)" fill="#455a64"/>
      <rect id="Rectangle_15" data-name="Rectangle 15" width="3.19" height="10.708" rx="1.595" transform="translate(0 18.062) rotate(-64.32)" fill="#f5f5f5"/>
      <path id="Path_166545" data-name="Path 166545" d="M75.911,415.786a1.371,1.371,0,0,0,.077-.245,1.406,1.406,0,0,0-.7-1.569c-.4-.2-.878-.417-1.391-.667l-3.617-1.732-2.149-1.027a1.368,1.368,0,0,0-1.161,0,1.411,1.411,0,0,0-.48.384,2.931,2.931,0,0,0-.307.556,1.372,1.372,0,0,0,0,1.195,1.44,1.44,0,0,0,.374.48,2.516,2.516,0,0,0,.537.293l2.135,1,3.627,1.761.734.355a2.434,2.434,0,0,0,.667.264,1.439,1.439,0,0,0,1.079-.269,1.516,1.516,0,0,0,.446-.561l.091-.173a.412.412,0,0,1,.034-.058.211.211,0,0,1,0,.062l-.077.177a1.511,1.511,0,0,1-.441.595,1.468,1.468,0,0,1-1.123.3,2.482,2.482,0,0,1-.691-.259l-.739-.35L69.2,414.562c-.681-.331-1.4-.672-2.144-1.027a2.68,2.68,0,0,1-.556-.312,1.535,1.535,0,0,1-.417-.508,1.492,1.492,0,0,1,0-1.31,2.774,2.774,0,0,1,.321-.58A1.482,1.482,0,0,1,68.2,410.4l2.14,1.031,3.627,1.761c.513.249.959.48,1.391.681a1.439,1.439,0,0,1,.681.94,1.358,1.358,0,0,1,0,.739A.821.821,0,0,1,75.911,415.786Z" transform="translate(-65.494 -394.671)" fill="#263238"/>
    </g>
    <g id="freepik--Route--inject-60" transform="translate(56.645 254.612)">
      <path id="Path_166546" data-name="Path 166546" d="M659.2,188.789a4.289,4.289,0,0,1,1.439-.125,4.346,4.346,0,0,1,1.439.125,4.346,4.346,0,0,1-1.439.125A4.289,4.289,0,0,1,659.2,188.789Z" transform="translate(-393.171 -127.674)" fill="#263238"/>
      <path id="Path_166547" data-name="Path 166547" d="M635.22,188.8a33.214,33.214,0,0,1,5.757,0A33.228,33.228,0,0,1,635.22,188.8Z" transform="translate(-380.695 -127.69)" fill="#263238"/>
      <path id="Path_166548" data-name="Path 166548" d="M611.25,188.8a33.16,33.16,0,0,1,5.757,0A33.166,33.166,0,0,1,611.25,188.8Z" transform="translate(-368.224 -127.689)" fill="#263238"/>
      <path id="Path_166549" data-name="Path 166549" d="M587.27,188.8a33.214,33.214,0,0,1,5.757,0A33.226,33.226,0,0,1,587.27,188.8Z" transform="translate(-355.748 -127.69)" fill="#263238"/>
      <path id="Path_166550" data-name="Path 166550" d="M563.3,188.8a33.16,33.16,0,0,1,5.757,0A33.166,33.166,0,0,1,563.3,188.8Z" transform="translate(-343.277 -127.689)" fill="#263238"/>
      <path id="Path_166551" data-name="Path 166551" d="M539.34,188.4a26.186,26.186,0,0,1,2.878.077,21.323,21.323,0,0,1,2.878.177,13.631,13.631,0,0,1-2.878.072A12.058,12.058,0,0,1,539.34,188.4Z" transform="translate(-330.811 -127.538)" fill="#263238"/>
      <path id="Path_166552" data-name="Path 166552" d="M518.14,178.708c.062-.053.859.959,2.14,1.885s2.476,1.406,2.442,1.482a2.478,2.478,0,0,1-.806-.264,9.559,9.559,0,0,1-1.784-1.017A6.512,6.512,0,0,1,518.14,178.708Z" transform="translate(-319.782 -122.5)" fill="#263238"/>
      <path id="Path_166553" data-name="Path 166553" d="M511.524,156.05c.062,0,.144,1.281.341,2.85s.48,2.826.393,2.845a9.764,9.764,0,0,1-.643-2.811A10.348,10.348,0,0,1,511.524,156.05Z" transform="translate(-316.308 -110.713)" fill="#263238"/>
      <path id="Path_166554" data-name="Path 166554" d="M502.857,134.22a9.23,9.23,0,0,1,1.8,2.255,8.728,8.728,0,0,1,1.2,2.624c-.067.029-.58-1.151-1.415-2.495S502.8,134.268,502.857,134.22Z" transform="translate(-311.829 -99.356)" fill="#263238"/>
      <path id="Path_166555" data-name="Path 166555" d="M483.18,121.05a9.3,9.3,0,0,1,2.715.959,9.524,9.524,0,0,1,2.437,1.545c-.039.062-1.123-.628-2.543-1.319S483.156,121.117,483.18,121.05Z" transform="translate(-301.593 -92.504)" fill="#263238"/>
      <path id="Path_166556" data-name="Path 166556" d="M459.46,119.518a9.417,9.417,0,0,1,2.835-.533,16.6,16.6,0,0,1,2.044,0,3.162,3.162,0,0,1,.84.082,2.572,2.572,0,0,1-.84.1c-.523,0-1.238.034-2.024.1C460.741,119.35,459.474,119.59,459.46,119.518Z" transform="translate(-289.252 -91.413)" fill="#263238"/>
      <path id="Path_166557" data-name="Path 166557" d="M438.63,127.636a8.98,8.98,0,0,1,2.106-1.976,9.115,9.115,0,0,1,2.5-1.439c.034.067-1.089.7-2.356,1.636S438.683,127.688,438.63,127.636Z" transform="translate(-278.415 -94.153)" fill="#263238"/>
      <path id="Path_166558" data-name="Path 166558" d="M428.16,146.483A11.279,11.279,0,0,1,429.825,141c.067.034-.48,1.19-.96,2.706S428.237,146.493,428.16,146.483Z" transform="translate(-272.968 -102.883)" fill="#263238"/>
      <path id="Path_166559" data-name="Path 166559" d="M427.492,170.147a16.883,16.883,0,0,1-.082-2.878,16.347,16.347,0,0,1,.168-2.878,16.917,16.917,0,0,1,.082,2.878A16.347,16.347,0,0,1,427.492,170.147Z" transform="translate(-272.563 -115.052)" fill="#263238"/>
      <path id="Path_166560" data-name="Path 166560" d="M427.147,194.117a16.5,16.5,0,0,1-.086-2.878,16.864,16.864,0,0,1,.168-2.878,16.507,16.507,0,0,1,.086,2.878,16.924,16.924,0,0,1-.168,2.878Z" transform="translate(-272.382 -127.523)" fill="#263238"/>
      <path id="Path_166561" data-name="Path 166561" d="M426.8,218.087a16.793,16.793,0,0,1-.082-2.878,16.353,16.353,0,0,1,.168-2.878,16.852,16.852,0,0,1,.082,2.878,16.259,16.259,0,0,1-.168,2.878Z" transform="translate(-272.204 -139.994)" fill="#263238"/>
      <path id="Path_166562" data-name="Path 166562" d="M420.306,241.342c-.062-.043.662-1.108,1.353-2.528s1.07-2.643,1.142-2.624a8.537,8.537,0,0,1-.921,2.734,8.709,8.709,0,0,1-1.573,2.418Z" transform="translate(-268.879 -152.408)" fill="#263238"/>
      <path id="Path_166563" data-name="Path 166563" d="M401.51,258.254c-.024-.067,1.171-.547,2.552-1.31s2.427-1.511,2.471-1.439a9.155,9.155,0,0,1-2.351,1.669A9.258,9.258,0,0,1,401.51,258.254Z" transform="translate(-259.102 -162.454)" fill="#263238"/>
      <path id="Path_166564" data-name="Path 166564" d="M377.87,263.857a18.512,18.512,0,0,1,2.878-.12h2.029a2.914,2.914,0,0,1,.844.053,2.8,2.8,0,0,1-.84.125l-.916.067h-1.118A15.171,15.171,0,0,1,377.87,263.857Z" transform="translate(-246.803 -166.733)" fill="#263238"/>
      <path id="Path_166565" data-name="Path 166565" d="M355.22,257.116c.043-.062,1.132.619,2.567,1.276s2.653,1.065,2.634,1.137a9.217,9.217,0,0,1-2.739-.911,9.382,9.382,0,0,1-2.461-1.5Z" transform="translate(-235.019 -163.293)" fill="#263238"/>
      <path id="Path_166566" data-name="Path 166566" d="M340.27,238.87c.072-.024.552,1.171,1.353,2.528s1.6,2.365,1.54,2.4a8.841,8.841,0,0,1-1.756-2.288A8.722,8.722,0,0,1,340.27,238.87Z" transform="translate(-227.241 -153.802)" fill="#263238"/>
      <path id="Path_166567" data-name="Path 166567" d="M337.847,215.17a33.251,33.251,0,0,1,0,5.757,33.284,33.284,0,0,1,0-5.757Z" transform="translate(-225.907 -141.472)" fill="#263238"/>
      <path id="Path_166568" data-name="Path 166568" d="M337.847,191.2a33.251,33.251,0,0,1,0,5.757,33.284,33.284,0,0,1,0-5.757Z" transform="translate(-225.907 -129.001)" fill="#263238"/>
      <path id="Path_166569" data-name="Path 166569" d="M337.847,167.22a33.251,33.251,0,0,1,0,5.757,33.292,33.292,0,0,1,0-5.757Z" transform="translate(-225.907 -116.525)" fill="#263238"/>
      <path id="Path_166570" data-name="Path 166570" d="M337.847,143.25a33.251,33.251,0,0,1,0,5.757,16.364,16.364,0,0,1-.125-2.878A16.312,16.312,0,0,1,337.847,143.25Z" transform="translate(-225.907 -104.054)" fill="#263238"/>
      <path id="Path_166571" data-name="Path 166571" d="M337.873,119.27a3.051,3.051,0,0,1,.11.844c.024.518.038,1.238.038,2.034a16.867,16.867,0,0,1-.125,2.878,16.315,16.315,0,0,1-.125-2.878c0-.8,0-1.516.034-2.034A2.965,2.965,0,0,1,337.873,119.27Z" transform="translate(-225.933 -91.578)" fill="#263238"/>
      <path id="Path_166572" data-name="Path 166572" d="M328.9,97.55a8.941,8.941,0,0,1,1.832,2.231,8.7,8.7,0,0,1,1.223,2.615c-.072.029-.59-1.151-1.439-2.48S328.839,97.6,328.9,97.55Z" transform="translate(-221.323 -80.277)" fill="#263238"/>
      <path id="Path_166573" data-name="Path 166573" d="M308.76,85.16a12.751,12.751,0,0,1,5.277,2.269c-.038.062-1.151-.585-2.6-1.2S308.741,85.232,308.76,85.16Z" transform="translate(-210.847 -73.831)" fill="#263238"/>
      <path id="Path_166574" data-name="Path 166574" d="M285,83.839a9.485,9.485,0,0,1,2.845-.48c.8-.043,1.521,0,2.044,0a2.878,2.878,0,0,1,.84.091,2.811,2.811,0,0,1-.84.086c-.523.029-1.243,0-2.029.067C286.266,83.7,285,83.911,285,83.839Z" transform="translate(-198.486 -72.884)" fill="#263238"/>
      <path id="Path_166575" data-name="Path 166575" d="M263.85,91.486a12.439,12.439,0,0,1,4.7-3.286c.034.067-1.1.667-2.4,1.574S263.922,91.539,263.85,91.486Z" transform="translate(-187.482 -75.413)" fill="#263238"/>
      <path id="Path_166576" data-name="Path 166576" d="M252.76,109.941a11.242,11.242,0,0,1,1.833-5.421c.067.034-.528,1.175-1.031,2.672S252.832,109.951,252.76,109.941Z" transform="translate(-181.712 -83.904)" fill="#263238"/>
      <path id="Path_166577" data-name="Path 166577" d="M252.2,133.527a16.314,16.314,0,0,1-.125-2.878,16.315,16.315,0,0,1,.125-2.878,16.861,16.861,0,0,1,.125,2.878A16.861,16.861,0,0,1,252.2,133.527Z" transform="translate(-181.346 -96)" fill="#263238"/>
      <path id="Path_166578" data-name="Path 166578" d="M252.2,157.507a33.275,33.275,0,0,1,0-5.757,33.259,33.259,0,0,1,0,5.757Z" transform="translate(-181.346 -108.476)" fill="#263238"/>
      <path id="Path_166579" data-name="Path 166579" d="M251.724,181.447c-.072,0,.144-1.286.163-2.878a16.5,16.5,0,0,1,.13-2.878,16.6,16.6,0,0,1,.12,2.878A8.468,8.468,0,0,1,251.724,181.447Z" transform="translate(-181.166 -120.931)" fill="#263238"/>
      <path id="Path_166580" data-name="Path 166580" d="M240,203.292c-.048-.058.9-.931,1.919-2.154s1.669-2.317,1.737-2.279A11.916,11.916,0,0,1,240,203.292Z" transform="translate(-175.072 -132.985)" fill="#263238"/>
      <path id="Path_166581" data-name="Path 166581" d="M218.58,216.346c0-.072,1.252-.3,2.763-.768s2.687-.96,2.72-.912a9.446,9.446,0,0,1-2.648,1.151A9.274,9.274,0,0,1,218.58,216.346Z" transform="translate(-163.929 -141.208)" fill="#263238"/>
      <path id="Path_166582" data-name="Path 166582" d="M194.63,218.792a17.262,17.262,0,0,1,2.878-.163,16.019,16.019,0,0,1,2.878.086,17.275,17.275,0,0,1-2.878.163,16.062,16.062,0,0,1-2.878-.086Z" transform="translate(-151.469 -143.256)" fill="#263238"/>
      <path id="Path_166583" data-name="Path 166583" d="M170.66,219.1a16.66,16.66,0,0,1,2.878-.163,16.892,16.892,0,0,1,2.878.082,16.35,16.35,0,0,1-2.878.168A17.164,17.164,0,0,1,170.66,219.1Z" transform="translate(-138.998 -143.419)" fill="#263238"/>
      <path id="Path_166584" data-name="Path 166584" d="M146.69,219.439a16.352,16.352,0,0,1,2.878-.168,16.613,16.613,0,0,1,2.878.086,16.655,16.655,0,0,1-2.878.163A16.889,16.889,0,0,1,146.69,219.439Z" transform="translate(-126.527 -143.591)" fill="#263238"/>
      <path id="Path_166585" data-name="Path 166585" d="M122.72,219.793a16.66,16.66,0,0,1,2.878-.163,16.79,16.79,0,0,1,2.878.082,16.246,16.246,0,0,1-2.878.168A16.532,16.532,0,0,1,122.72,219.793Z" transform="translate(-114.056 -143.778)" fill="#263238"/>
      <path id="Path_166586" data-name="Path 166586" d="M104.66,220.053a4.447,4.447,0,0,1,1.439-.144,4.319,4.319,0,0,1,1.439.106,4.318,4.318,0,0,1-1.439.144A4.059,4.059,0,0,1,104.66,220.053Z" transform="translate(-104.66 -143.927)" fill="#263238"/>
      <path id="Path_166587" data-name="Path 166587" d="M296.681,64.973a3.42,3.42,0,1,0-6.366,1.732h0a6.989,6.989,0,0,0,.48.614l2,2.639a.619.619,0,0,0,.983,0l1.953-2.586q.256-.316.48-.657h0A3.416,3.416,0,0,0,296.681,64.973Zm-3.406,1.492a1.506,1.506,0,1,1,1.506-1.506A1.506,1.506,0,0,1,293.275,66.465Z" transform="translate(-201.004 -61.545)" fill="#c2341c"/>
      <path id="Path_166588" data-name="Path 166588" d="M567,170.536a3.42,3.42,0,1,0-6.371,1.727h0a5.078,5.078,0,0,0,.48.609L563.1,175.5a.614.614,0,0,0,.959,0l1.952-2.586a8.11,8.11,0,0,0,.48-.657h0A3.417,3.417,0,0,0,567,170.536Zm-3.421,1.487a1.5,1.5,0,1,1,1.063-.441A1.506,1.506,0,0,1,563.58,172.024Z" transform="translate(-341.643 -116.469)" fill="#c2341c"/>
      <path id="Path_166589" data-name="Path 166589" d="M466.811,99.928a3.42,3.42,0,1,0-6.366,1.727h0a5.54,5.54,0,0,0,.48.614l1.986,2.629a.619.619,0,0,0,.983,0l1.952-2.586a8.094,8.094,0,0,0,.48-.657h0A3.411,3.411,0,0,0,466.811,99.928Zm-3.416,1.487a1.506,1.506,0,1,1,1.5-1.506,1.506,1.506,0,0,1-1.5,1.506Z" transform="translate(-289.517 -79.729)" fill="#455a64"/>
      <path id="Path_166590" data-name="Path 166590" d="M171.213,193.937a4.226,4.226,0,1,0-7.858,2.135h0a9.189,9.189,0,0,0,.571.753l2.451,3.253a.758.758,0,0,0,1.219,0l2.4-3.195a8.855,8.855,0,0,0,.614-.816h0A4.207,4.207,0,0,0,171.213,193.937Zm-4.231,1.842a1.861,1.861,0,1,1,1.861-1.861A1.861,1.861,0,0,1,166.982,195.779Z" transform="translate(-134.888 -128.212)" fill="#455a64"/>
    </g>
    <g id="freepik--Character--inject-60" transform="translate(133.238 278.553)">
      <path id="Path_166591" data-name="Path 166591" d="M316.687,171.086a15.125,15.125,0,0,0-7.594,1.583,12.571,12.571,0,0,0-6.126,5.373c-1.247,2.471-1.108,5.757.859,7.714-3.78,1-6.625,4.366-7.815,8.088a23.474,23.474,0,0,0-.182,11.609c.36,1.813,1,3.838,2.672,4.615,1.075.48,2.4.384,3.406,1a7.91,7.91,0,0,1,2.106,2.715,8.155,8.155,0,0,0,11.638,2.072l7.752-41.2A9.2,9.2,0,0,0,316.687,171.086Z" transform="translate(-280.381 -142.465)" fill="#455a64"/>
      <path id="Path_166592" data-name="Path 166592" d="M331.469,180.36a5.3,5.3,0,0,1-.533.643c-.36.4-.883.959-1.545,1.679a33.008,33.008,0,0,1-5.68,4.936,16.421,16.421,0,0,1-7,2.7,11.135,11.135,0,0,1-2.288.048,3.626,3.626,0,0,1-.619-.077.72.72,0,0,1-.211-.048s.3,0,.835.029a12.829,12.829,0,0,0,2.259-.125,17.04,17.04,0,0,0,6.889-2.73,36.87,36.87,0,0,0,5.694-4.826l1.6-1.626A5.279,5.279,0,0,1,331.469,180.36Z" transform="translate(-289.954 -147.302)" fill="#263238"/>
      <path id="Path_166593" data-name="Path 166593" d="M318.954,201.845a1.22,1.22,0,0,1-.259-.556,3.746,3.746,0,0,1-.072-1.487,3.666,3.666,0,0,1,.528-1.391,1.591,1.591,0,0,1,.417-.48,7.225,7.225,0,0,0-.7,1.885A7.109,7.109,0,0,0,318.954,201.845Z" transform="translate(-292.55 -156.443)" fill="#263238"/>
      <path id="Path_166594" data-name="Path 166594" d="M317.839,209.28a1.031,1.031,0,0,1,.106.225c.062.149.158.369.259.667a20.827,20.827,0,0,1,.734,2.523,18.757,18.757,0,0,1,0,8.635,14.44,14.44,0,0,1-4.466,7.335,11.432,11.432,0,0,1-2.173,1.487,5.915,5.915,0,0,1-.643.307,1.357,1.357,0,0,1-.235.086,8.785,8.785,0,0,1,.835-.48,12.8,12.8,0,0,0,2.1-1.53,14.752,14.752,0,0,0,4.342-7.268,19.27,19.27,0,0,0,.082-8.525c-.221-1.084-.48-1.919-.648-2.533a7.56,7.56,0,0,1-.293-.931Z" transform="translate(-288.825 -162.348)" fill="#263238"/>
      <path id="Path_166595" data-name="Path 166595" d="M311.233,220.879a2.764,2.764,0,0,1-.585-.13c-.374-.1-.916-.235-1.588-.393a38.136,38.136,0,0,0-10.674-.959c-.686.034-1.242.072-1.626.106a2.6,2.6,0,0,1-.6,0,2.643,2.643,0,0,1,.59-.12c.379-.062.935-.125,1.626-.182a32.066,32.066,0,0,1,10.727.959c.672.178,1.2.341,1.569.48A2.4,2.4,0,0,1,311.233,220.879Z" transform="translate(-280.885 -167.456)" fill="#263238"/>
      <g id="Group_7005" data-name="Group 7005" transform="translate(23.972 36.081)" opacity="0.3">
        <path id="Path_166596" data-name="Path 166596" d="M314.29,193.539h0a9.1,9.1,0,0,0,8.894.072,12.63,12.63,0,0,0,5.867-6.951C325.439,190.834,320.076,193.861,314.29,193.539Z" transform="translate(-314.29 -186.66)"/>
      </g>
      <g id="Group_7006" data-name="Group 7006" transform="translate(22.571 59.16)" opacity="0.3">
        <path id="Path_166597" data-name="Path 166597" d="M311.375,243.8a7.383,7.383,0,0,0,5.488-3.07,13.313,13.313,0,0,0,2.005-5.958,28.225,28.225,0,0,1-2.629,5.176,12.83,12.83,0,0,1-2.068,2.077,13.684,13.684,0,0,1-2.8,1.775" transform="translate(-311.37 -234.77)"/>
      </g>
      <path id="Path_166598" data-name="Path 166598" d="M316,220.23a4.321,4.321,0,0,1,.341,1.247c.082.393.173.849.312,1.358a1.568,1.568,0,0,1,0,.883.806.806,0,0,1-.772.59.9.9,0,0,1-.739-.638,1.6,1.6,0,0,1,0-.878c.139-.523.288-.959.408-1.348a6.857,6.857,0,0,1,.437-1.214,6.6,6.6,0,0,1-.269,1.266c-.106.408-.225.859-.35,1.343a1.438,1.438,0,0,0,0,.753.671.671,0,0,0,.523.48.561.561,0,0,0,.528-.422,1.463,1.463,0,0,0,0-.748,12.161,12.161,0,0,1-.264-1.377C316.079,220.719,316,220.24,316,220.23Z" transform="translate(-290.73 -168.045)" fill="#263238"/>
      <path id="Path_166599" data-name="Path 166599" d="M328.641,183.21a14.276,14.276,0,0,1-1.535-.892,35.253,35.253,0,0,0-3.756-2.034,17.079,17.079,0,0,0-4.044-1.3c-1.075-.2-1.756-.2-1.756-.245a1.8,1.8,0,0,1,.48-.029,9.432,9.432,0,0,1,1.3.1,15.13,15.13,0,0,1,4.126,1.242,26.713,26.713,0,0,1,3.747,2.116c.456.3.82.557,1.07.739A1.918,1.918,0,0,1,328.641,183.21Z" transform="translate(-292.014 -146.443)" fill="#263238"/>
      <path id="Path_166600" data-name="Path 166600" d="M337.989,187.326c.029,0,.053.163-.082.369a.835.835,0,0,1-.849.355h0l-.158-.029.072-.149a1.18,1.18,0,0,1,.676-.59c.221-.072.365-.043.369,0s-.125.077-.3.177a1.285,1.285,0,0,0-.523.537l-.082-.178h0a.749.749,0,0,0,.662-.221C337.907,187.45,337.951,187.321,337.989,187.326Z" transform="translate(-302.081 -150.88)" fill="#263238"/>
      <path id="Path_166601" data-name="Path 166601" d="M421.559,169.769s-1.919-2.523-1.919-3.545l.8-5.939s.345-.6.883.393A4.243,4.243,0,0,1,421.53,163l.336,1.4.724-1.055.815-3.967s.518-2.878.96-2.567.576,1.132.35,2.37-.513,2.806-.513,2.806-.058.48.4-.331.959-4.284,1.147-4.749.245-1.7.959-1.636.3,1.646.3,1.646l-.681,5.114s.662-2.058.787-2.4.321-1.473.561-2.087.595-.931.907-.892a.585.585,0,0,1,.552.585l-1.046,4.375s-.58,1.991-.542,2.12.772-.83.772-.83l.566-1.439s.48-2.01,1.007-2.068.556.35.556.35l-.888,3.675-1.626,4.193-1.54,3.152a14.221,14.221,0,0,0-2.231-.226A19.1,19.1,0,0,1,421.559,169.769Z" transform="translate(-345.129 -134.245)" fill="#ffbe9d"/>
      <path id="Path_166602" data-name="Path 166602" d="M427.42,176.389a6.375,6.375,0,0,1-.441-.921,3.2,3.2,0,0,0-1.593-1.7,1.717,1.717,0,0,0-1.127-.086l-.125.034-.029-.134c-.139-.609-.331-1.171-.417-1.554a1.522,1.522,0,0,1-.1-.638,3.13,3.13,0,0,1,.24.59,16.171,16.171,0,0,1,.518,1.569l-.158-.1a1.919,1.919,0,0,1,1.3.077,2.705,2.705,0,0,1,1.118.868,4.464,4.464,0,0,1,.547,1A3.021,3.021,0,0,1,427.42,176.389Z" transform="translate(-347.181 -142.635)" fill="#eb996e"/>
      <path id="Path_166603" data-name="Path 166603" d="M387.163,179.51l10.626,15.884,4.8-13.845,6.534,1.607s-2.667,18.613-3.684,20.46a8.531,8.531,0,0,1-8.155,3.977c-3.948-.537-11.811-11.125-11.811-11.125Z" transform="translate(-327.351 -146.859)" fill="#c2341c"/>
      <path id="Path_166604" data-name="Path 166604" d="M412.319,218.668a11.033,11.033,0,0,0-1.439-6.678,2.879,2.879,0,0,1,.6.835,8.06,8.06,0,0,1,.892,2.336,8.232,8.232,0,0,1,.163,2.495A2.96,2.96,0,0,1,412.319,218.668Z" transform="translate(-340.571 -163.758)" fill="#263238"/>
      <g id="Group_7007" data-name="Group 7007" transform="translate(60.398 39.271)" opacity="0.3">
        <path id="Path_166605" data-name="Path 166605" d="M390.436,207.025a2.48,2.48,0,0,0,1.3-1.852,7.222,7.222,0,0,0-.072-2.336c-.427-3.133-1.027-6.395-1.439-9.527l.168,13.389" transform="translate(-390.22 -193.31)"/>
      </g>
      <g id="Group_7008" data-name="Group 7008" transform="translate(70.367 48.266)" opacity="0.3">
        <path id="Path_166606" data-name="Path 166606" d="M412.492,217.932a1.3,1.3,0,0,0,.959-.768,2.466,2.466,0,0,0,.168-1.266A4.8,4.8,0,0,0,411,212.06a10.688,10.688,0,0,1,1.478,5.862" transform="translate(-411 -212.06)"/>
      </g>
      <path id="Path_166607" data-name="Path 166607" d="M414.46,391.255l6.073,13.826L437.9,397.77c-.8-1.612-11.883-.792-11.883-.792l-3.838-9.388Z" transform="translate(-342.434 -255.117)" fill="#c2341c"/>
      <g id="Group_7009" data-name="Group 7009" transform="translate(78.313 142.866)" opacity="0.6">
        <path id="Path_166608" data-name="Path 166608" d="M427.84,409.4a.773.773,0,0,0-.149,1.017.744.744,0,0,0,1.007.154.811.811,0,0,0,.149-1.075.768.768,0,0,0-1.06-.048" transform="translate(-427.564 -409.255)" fill="#fff"/>
      </g>
      <g id="Group_7010" data-name="Group 7010" transform="translate(77.553 142.048)" opacity="0.6">
        <path id="Path_166609" data-name="Path 166609" d="M426.527,415.465l-.547-1.439,16.853-6.476s.916,0,1.06.59Z" transform="translate(-425.98 -407.55)" fill="#fff"/>
      </g>
      <path id="Path_166610" data-name="Path 166610" d="M437.887,407.224c.034.086-.374.307-.676.753s-.374.9-.48.9-.173-.542.206-1.079S437.872,407.143,437.887,407.224Z" transform="translate(-353.977 -265.32)" fill="#263238"/>
      <path id="Path_166611" data-name="Path 166611" d="M443.837,406.884c.058.072-.249.369-.389.849s-.058.9-.144.926-.345-.422-.163-1.017S443.8,406.8,443.837,406.884Z" transform="translate(-357.322 -265.147)" fill="#263238"/>
      <path id="Path_166612" data-name="Path 166612" d="M448.209,408.506c-.067.048-.365-.326-.341-.878s.341-.907.4-.854-.072.408-.086.863S448.291,408.463,448.209,408.506Z" transform="translate(-359.814 -265.096)" fill="#263238"/>
      <path id="Path_166613" data-name="Path 166613" d="M434.985,402.429c0,.091-.441.139-.907.374s-.777.542-.854.48.158-.509.71-.777S434.995,402.347,434.985,402.429Z" transform="translate(-352.189 -262.789)" fill="#263238"/>
      <path id="Path_166614" data-name="Path 166614" d="M275.5,401.815l-.744-7.383,6.16-7.757-7.551-4.855-.2.3-3.838,5.8-4.984,3.934,7.915,13.005,7.709-.518S279.274,402.535,275.5,401.815Z" transform="translate(-264.33 -252.115)" fill="#c2341c"/>
      <g id="Group_7011" data-name="Group 7011" transform="translate(0 138.896)" opacity="0.6">
        <path id="Path_166615" data-name="Path 166615" d="M264.32,401.815l7.916,13.005,7.709-.518L279,413.2l-6.294.077-7.325-12.3Z" transform="translate(-264.32 -400.98)" fill="#fff"/>
      </g>
      <path id="Path_166616" data-name="Path 166616" d="M284.621,415.976c-.048.082-.513-.139-1.108-.082s-1.017.331-1.079.259.326-.542,1.055-.6S284.7,415.914,284.621,415.976Z" transform="translate(-273.74 -269.664)" fill="#263238"/>
      <path id="Path_166617" data-name="Path 166617" d="M284.087,411.763c-.077.062-.451-.369-1.07-.446s-1.1.235-1.151.158.053-.168.259-.3a1.443,1.443,0,0,1,1.789.235C284.077,411.591,284.12,411.739,284.087,411.763Z" transform="translate(-273.441 -267.278)" fill="#263238"/>
      <path id="Path_166618" data-name="Path 166618" d="M284.116,406.731c-.082.053-.374-.379-.921-.528s-1.022.058-1.065-.024.067-.154.273-.245a1.339,1.339,0,0,1,1.607.446C284.14,406.568,284.154,406.711,284.116,406.731Z" transform="translate(-273.581 -264.606)" fill="#263238"/>
      <path id="Path_166619" data-name="Path 166619" d="M288.346,402.347c-.091.038-.336-.389-.835-.662s-.959-.293-.993-.389.556-.259,1.161.091S288.437,402.328,288.346,402.347Z" transform="translate(-275.869 -262.185)" fill="#263238"/>
      <path id="Path_166620" data-name="Path 166620" d="M290.153,396.928c-.038.029-.312-.264-.724-.763-.235-.288-.48-.581-.715-.883a2.286,2.286,0,0,1-.4-.595.6.6,0,0,1,0-.48.48.48,0,0,1,.446-.278,1.439,1.439,0,0,1,.748.326,2.59,2.59,0,0,1,.983,1.588,1.439,1.439,0,0,1-.105,1.065,9.394,9.394,0,0,0-.13-1.012,2.642,2.642,0,0,0-.48-.959,2.4,2.4,0,0,0-.451-.427,1.261,1.261,0,0,0-.552-.254.149.149,0,0,0-.144.082.33.33,0,0,0,0,.216,2.486,2.486,0,0,0,.336.518c.221.317.441.624.657.926A3.19,3.19,0,0,1,290.153,396.928Z" transform="translate(-276.778 -258.416)" fill="#263238"/>
      <path id="Path_166621" data-name="Path 166621" d="M292.737,398.863c-.038,0-.034-.408.35-.9a1.919,1.919,0,0,1,2.259-.566.336.336,0,0,1,.139.264.48.48,0,0,1-.077.254,1.316,1.316,0,0,1-.259.259,3.425,3.425,0,0,1-1.521.7,1.607,1.607,0,0,1-.959,0c0-.058.365-.053.907-.211a3.726,3.726,0,0,0,1.358-.72,1.022,1.022,0,0,0,.192-.187c.029-.072,0-.053,0-.072a.667.667,0,0,0-.23-.067,1.919,1.919,0,0,0-.288-.024,1.694,1.694,0,0,0-.547.077,1.847,1.847,0,0,0-.8.48C292.881,398.518,292.79,398.882,292.737,398.863Z" transform="translate(-279.07 -260.14)" fill="#263238"/>
      <g id="Group_7012" data-name="Group 7012" transform="translate(4.305 138.233)" opacity="0.6">
        <path id="Path_166622" data-name="Path 166622" d="M275.125,400.453a.916.916,0,1,1-.959-.854A.916.916,0,0,1,275.125,400.453Z" transform="translate(-273.294 -399.598)" fill="#fff"/>
      </g>
      <path id="Path_166623" data-name="Path 166623" d="M362.06,119.279a15.965,15.965,0,0,1,1.689-4.524,6.621,6.621,0,0,1,3.656-3.017,8.841,8.841,0,0,1,4.893.12,8.026,8.026,0,0,1,3,1.837,11.023,11.023,0,0,1,2.778,4.98" transform="translate(-315.171 -111.45)" fill="#c2341c"/>
      <path id="Path_166624" data-name="Path 166624" d="M378.188,120.194a6.913,6.913,0,0,0-2.619-4.39,9.115,9.115,0,0,0-4.845-1.641c-2.691-.206-5.838.528-7.676,2.495a9.467,9.467,0,0,0-2.691,7.042c.1,1.079,1.147,4,1.976,4.706l15.418-.4C378.673,126.541,378.467,121.916,378.188,120.194Z" transform="translate(-314.269 -112.844)" fill="#c2341c"/>
      <path id="Path_166625" data-name="Path 166625" d="M379.919,124.983a8.515,8.515,0,0,0-8.477-7.853H371c-4.759.269-7.2,4.457-6.788,9.206l.835,21.943h10.9l-.1-7.143s4.577-.7,4.639-5.277C380.523,133.652,380.216,129.1,379.919,124.983Z" transform="translate(-316.268 -114.405)" fill="#ffbe9d"/>
      <path id="Path_166626" data-name="Path 166626" d="M382.107,165.245a11.106,11.106,0,0,1-5.987-1.765s1.4,3.291,5.963,2.878Z" transform="translate(-322.486 -138.52)" fill="#eb996e"/>
      <path id="Path_166635" data-name="Path 166635" d="M362.324,143.222c-.077-.034-3.137-.935-3.046,2.192a2.347,2.347,0,0,0,3.219,2.3C362.5,147.611,362.324,143.222,362.324,143.222Z" transform="translate(-313.723 -127.904)" fill="#ffbe9d"/>
      <path id="Path_166636" data-name="Path 166636" d="M362.945,147.645s-.058.038-.149.086a.532.532,0,0,1-.4,0,1.348,1.348,0,0,1-.662-1.19,1.824,1.824,0,0,1,.13-.787.624.624,0,0,1,.4-.427.278.278,0,0,1,.326.139c.043.086.024.149.043.154s.062-.053.034-.182a.35.35,0,0,0-.125-.192.413.413,0,0,0-.307-.072.763.763,0,0,0-.552.5,1.79,1.79,0,0,0-.163.873,1.411,1.411,0,0,0,.835,1.329.571.571,0,0,0,.48-.1C362.941,147.722,362.955,147.65,362.945,147.645Z" transform="translate(-314.886 -128.993)" fill="#eb996e"/>
      <path id="Path_166637" data-name="Path 166637" d="M365.516,119.6l1.545-1.334,4.912.753,3.454-.887.907.993c-.389.523.437-1.708-.35-2.3-1.694-1.286-3.123-1.238-5.277-1.276s-6.452,2.552-7.992,4.02a3.33,3.33,0,0,0-1.223,2.188c-.2,1.693.748,3.612,1.123,5.277.2.854.571,3.444.571,3.444h0c.72,0,.959-.571.878-1.281l-.134-2.787a4.212,4.212,0,0,0,1.286-4.917C365.051,121.244,364.653,120.083,365.516,119.6Z" transform="translate(-314.862 -113.582)" fill="#263238"/>
      <path id="Path_166638" data-name="Path 166638" d="M366.844,120.472a2.236,2.236,0,0,1,2.183-1.439,3.838,3.838,0,0,1,2.485,1.137,3.226,3.226,0,0,0,.561.48.725.725,0,0,0,.691.038c.067-.034.134-.086.206-.067a.225.225,0,0,1,.115.106,1.948,1.948,0,0,0,.724.686.8.8,0,0,0,.926-.139,1.2,1.2,0,0,0,2.01-.887,1.132,1.132,0,0,0,1.137-.432,2.322,2.322,0,0,0-.576-3.545,4.193,4.193,0,0,0-1.511-.437,19.471,19.471,0,0,0-2.475-.187,3.133,3.133,0,0,0-1.079.13c-.48.173-.873.561-1.372.624a2.4,2.4,0,0,1-.959-.154,3.746,3.746,0,0,0-1.377-.2,3.639,3.639,0,0,0-2.279,1.439,3.8,3.8,0,0,0-.959,1.66A1.636,1.636,0,0,0,365.9,121a.811.811,0,0,0,.729.1.48.48,0,0,0,.259-.628" transform="translate(-316.828 -113.703)" fill="#263238"/>
      <path id="Path_166639" data-name="Path 166639" d="M362.384,127.19a9.426,9.426,0,0,1,1.809-7.325c1.741-2.048,4.821-3.3,6.86-2.912,1.588.3,5.042.427,6.3,3.751l-.177-2.744s-1.535-3.118-6.069-3.022-6.51.624-8.7,3.291a6.155,6.155,0,0,0-1.252,6.093A16.273,16.273,0,0,0,362.384,127.19Z" transform="translate(-314.531 -113.263)" fill="#c2341c"/>
      <path id="Path_166640" data-name="Path 166640" d="M374.846,115.3a.817.817,0,0,1-.168-.058c-.106-.038-.259-.106-.48-.173a11.18,11.18,0,0,0-1.775-.48,12.688,12.688,0,0,0-2.706-.158,11.034,11.034,0,0,0-3.243.648,10.487,10.487,0,0,0-2.878,1.655,7.672,7.672,0,0,0-1.031,1.017c-.154.168-.278.345-.408.513a4.38,4.38,0,0,0-.336.5,9.635,9.635,0,0,0-.806,1.645c-.081.2-.13.36-.168.48a.726.726,0,0,1-.067.163l.043-.168c.038-.11.077-.273.154-.48a8.855,8.855,0,0,1,.777-1.669c.1-.168.216-.336.331-.513a4.454,4.454,0,0,1,.408-.528,8.155,8.155,0,0,1,1.041-1.031,10.366,10.366,0,0,1,2.878-1.679,10.823,10.823,0,0,1,3.277-.643,11.856,11.856,0,0,1,2.725.182,10.586,10.586,0,0,1,1.775.48c.206.077.355.154.48.2Z" transform="translate(-314.505 -112.949)" fill="#263238"/>
      <path id="Path_166641" data-name="Path 166641" d="M363.138,128.452a.481.481,0,0,1-.139-.062,2.668,2.668,0,0,1-.341-.249,2.787,2.787,0,0,1-.931-2.514,2.394,2.394,0,0,1,.1-.408c.034-.1.058-.144.062-.139s-.053.211-.086.557a3.067,3.067,0,0,0,.168,1.329,3.017,3.017,0,0,0,.739,1.118C362.96,128.323,363.147,128.438,363.138,128.452Z" transform="translate(-314.983 -118.541)" fill="#263238"/>
      <path id="Path_166642" data-name="Path 166642" d="M366.211,123.206a1.152,1.152,0,0,1-.393-.283,2.533,2.533,0,0,1-.629-1,2.284,2.284,0,0,1-.091-1.175,1.19,1.19,0,0,1,.158-.48s-.043.182-.086.48a2.575,2.575,0,0,0,.12,1.127,2.791,2.791,0,0,0,.581.959C366.067,123.086,366.221,123.192,366.211,123.206Z" transform="translate(-316.732 -116.039)" fill="#263238"/>
      <path id="Path_166643" data-name="Path 166643" d="M370.631,119.655a1.143,1.143,0,0,1-.331-.23,2.735,2.735,0,0,1-.6-.772,2.4,2.4,0,0,1-.254-.959.959.959,0,0,1,.034-.4,3.629,3.629,0,0,0,.317,1.3,4.915,4.915,0,0,0,.84,1.065Z" transform="translate(-319.007 -114.488)" fill="#263238"/>
      <path id="Path_166644" data-name="Path 166644" d="M376.238,114.84a.932.932,0,0,1,.2.3,3.837,3.837,0,0,1,.312.806,4.139,4.139,0,0,1,.125.859,1.061,1.061,0,0,1-.029.36c-.034,0-.034-.547-.2-1.19S376.209,114.854,376.238,114.84Z" transform="translate(-322.547 -113.214)" fill="#263238"/>
      <path id="Path_166645" data-name="Path 166645" d="M384.394,114.68a.862.862,0,0,1,.158.321,2.331,2.331,0,0,1,.11.859,2.282,2.282,0,0,1-.206.84.806.806,0,0,1-.2.3,3.838,3.838,0,0,0,.3-1.147A3.977,3.977,0,0,0,384.394,114.68Z" transform="translate(-326.721 -113.13)" fill="#263238"/>
      <path id="Path_166646" data-name="Path 166646" d="M389.87,116.18a1.021,1.021,0,0,1,.211.326,2.4,2.4,0,0,1,.216.921,2.262,2.262,0,0,1-.168.926.956.956,0,0,1-.192.341,3.664,3.664,0,0,0,.25-1.266A3.622,3.622,0,0,0,389.87,116.18Z" transform="translate(-329.64 -113.911)" fill="#263238"/>
      <path id="Path_166647" data-name="Path 166647" d="M394.282,120.67a.676.676,0,0,1,.053.307,2.1,2.1,0,0,1-.48,1.41c-.13.149-.23.216-.235.206a4.244,4.244,0,0,0,.513-.9A4.1,4.1,0,0,0,394.282,120.67Z" transform="translate(-331.591 -116.247)" fill="#263238"/>
      <path id="Path_166648" data-name="Path 166648" d="M396.69,126.26a1.224,1.224,0,0,1-.25.739,1.175,1.175,0,0,1-.58.513,6,6,0,0,0,.48-.576A4.437,4.437,0,0,0,396.69,126.26Z" transform="translate(-332.756 -119.155)" fill="#263238"/>
      <path id="Path_166649" data-name="Path 166649" d="M397.383,132.549c.024,0,0,.187-.168.331s-.345.158-.345.13.139-.086.274-.211S397.35,132.54,397.383,132.549Z" transform="translate(-333.282 -122.427)" fill="#263238"/>
      <path id="Path_166650" data-name="Path 166650" d="M362.143,136.471a2.332,2.332,0,0,1-1.713-1.171A4.112,4.112,0,0,0,362.143,136.471Z" transform="translate(-314.323 -123.858)" fill="#263238"/>
      <path id="Path_166651" data-name="Path 166651" d="M363.59,140.886a.542.542,0,0,1-.432.2c-.278.014-.48-.12-.451-.144s.2.053.446.034S363.575,140.862,363.59,140.886Z" transform="translate(-315.507 -126.762)" fill="#263238"/>
      <g id="Group_7013" data-name="Group 7013" transform="translate(47.709 0.81)" opacity="0.3">
        <path id="Path_166652" data-name="Path 166652" d="M376.027,114.574a8.755,8.755,0,0,0-6.716-1.223,8.995,8.995,0,0,0-5.541,4.178s2.826-3.574,6.875-3.7S376.027,114.574,376.027,114.574Z" transform="translate(-363.77 -113.139)"/>
      </g>
      <path id="Path_166665" data-name="Path 166665" d="M363.005,152.14a.758.758,0,0,1-.139.533.73.73,0,0,1-.509.345.72.72,0,0,1-.681-.3.959.959,0,0,1-.163-.729.839.839,0,0,1,.35-.5.667.667,0,0,1,.532-.13,1.218,1.218,0,0,0-.48.192.8.8,0,0,0-.3.48.9.9,0,0,0,.154.648.633.633,0,0,0,.585.259.643.643,0,0,0,.451-.288A1.44,1.44,0,0,0,363.005,152.14Z" transform="translate(-314.879 -132.207)" fill="#263238"/>
      <path id="Path_166666" data-name="Path 166666" d="M349.7,288.471c.581,0,24.548,24.946,24.548,26.678s3.56,19.3,5.277,22.01,2.749,2.072,2.749,2.072l7.968-3.713s-4.414-27.345-5.383-30.42S365.61,277.84,365.61,277.84l-17.27,3.286Z" transform="translate(-308.033 -198.018)" fill="#263238"/>
      <path id="Path_166667" data-name="Path 166667" d="M305.692,274l-4.98,30.751s-15.577,15.6-16.546,17.333c0,0-1.737-.58-2.317.959a32.444,32.444,0,0,0-1.079,4.428l7.733,6.5s20.432-16.939,22.365-19.453,10.031-19.088,11.581-23.339,3.358-13.677,3.358-13.677Z" transform="translate(-272.878 -196.02)" fill="#263238"/>
      <path id="Path_166668" data-name="Path 166668" d="M406.355,344a3.458,3.458,0,0,1-.345.959,13.368,13.368,0,0,1-1.228,2.14,11.545,11.545,0,0,1-1.612,1.876,2.825,2.825,0,0,1-.83.6,7.958,7.958,0,0,1,.705-.729,16.989,16.989,0,0,0,1.53-1.919C405.679,345.395,406.283,343.956,406.355,344Z" transform="translate(-336.128 -232.438)" fill="#455a64"/>
      <path id="Path_166669" data-name="Path 166669" d="M325.257,340.209a2.681,2.681,0,0,1-1.641-.71,2.73,2.73,0,0,1-1.036-1.439,14.259,14.259,0,0,0,1.194,1.262,14,14,0,0,0,1.482.888Z" transform="translate(-294.631 -229.348)" fill="#455a64"/>
      <path id="Path_166670" data-name="Path 166670" d="M291.461,378.162a5.493,5.493,0,0,1-2.941-4.092,14.01,14.01,0,0,0,1.18,2.255,13.2,13.2,0,0,0,1.761,1.837Z" transform="translate(-276.911 -248.083)" fill="#455a64"/>
      <path id="Path_166671" data-name="Path 166671" d="M339.148,283.479a1.19,1.19,0,0,1-.1.345,6.874,6.874,0,0,1-.4.892,9.959,9.959,0,0,1-4.658,4.356,6.79,6.79,0,0,1-.916.345,1,1,0,0,1-.35.077c0-.043.48-.211,1.19-.581A11.583,11.583,0,0,0,336.5,287.1a11.71,11.71,0,0,0,1.991-2.466A10.513,10.513,0,0,1,339.148,283.479Z" transform="translate(-299.907 -200.951)" fill="#455a64"/>
      <path id="Path_166672" data-name="Path 166672" d="M362.21,299.86a5.722,5.722,0,0,1-.269.787c-.211.537-.48,1.247-.82,2.111-.71,1.77-1.708,4.217-2.9,6.879s-2.36,5.037-3.214,6.745l-1.027,2.015a5.376,5.376,0,0,1-.408.724,5.656,5.656,0,0,1,.321-.768l.959-2.048c.816-1.732,1.953-4.111,3.142-6.769s2.216-5.09,2.965-6.851c.369-.844.672-1.545.9-2.077A5.446,5.446,0,0,1,362.21,299.86Z" transform="translate(-310.754 -209.474)" fill="#455a64"/>
      <path id="Path_166673" data-name="Path 166673" d="M346.6,166.534s-5.277,2.125-6.5,5.834c-.624,1.876-4.26,15.591-4.26,15.591S331.04,214.3,331.7,216.8l27.455,4.217h0a4.227,4.227,0,0,0,.959-2.941l-.446-7.892.321-33.826a4.389,4.389,0,0,0-.053-.753l-.959-6.236.307-2.691-12.305-3.253Z" transform="translate(-299.344 -138.493)" fill="#c2341c"/>
      <path id="Path_166674" data-name="Path 166674" d="M361.259,164.088h0a1.521,1.521,0,0,1,1.89-1.233l11.25,2.97a1.526,1.526,0,0,1,1.132,1.554l-.029.48a1.521,1.521,0,0,1-1.967,1.362l-11.221-3.444A1.516,1.516,0,0,1,361.259,164.088Z" transform="translate(-314.745 -138.168)" fill="#c2341c"/>
      <path id="Path_166675" data-name="Path 166675" d="M376.144,169.359a2.981,2.981,0,0,1-.585-.11L374,168.856c-1.319-.345-3.133-.835-5.128-1.391l-2.677-.758h0a6.989,6.989,0,0,1-.993-.23,2.451,2.451,0,0,1-.446-.192.768.768,0,0,1-.206-.153,1.258,1.258,0,0,1-.134-.206,1.5,1.5,0,0,1-.106-.84,2.691,2.691,0,0,1,.187-.686,3.009,3.009,0,0,1,.518-.844c.158-.168.264-.235.269-.225a3.944,3.944,0,0,0-.657,1.123,1.919,1.919,0,0,0-.038,1.386c.106.24.384.331.681.432a6.388,6.388,0,0,0,.959.206h0l2.682.739c2,.557,3.8,1.075,5.109,1.439l1.54.48A3.267,3.267,0,0,1,376.144,169.359Z" transform="translate(-316.331 -138.441)" fill="#263238"/>
      <path id="Path_166676" data-name="Path 166676" d="M389.212,179.9a1,1,0,0,1,.048.249c.024.192.053.427.086.715.067.624.154,1.526.235,2.643.177,2.236.355,5.325.456,8.741s.091,6.515,0,8.755c-.034,1.118-.082,2.024-.125,2.648-.024.293-.048.528-.062.72a.82.82,0,0,1-.038.249,1,1,0,0,1,0-.249v-.724c0-.624.038-1.53.048-2.648.034-2.236,0-5.33-.086-8.745s-.249-6.5-.379-8.731c-.067-1.094-.12-1.986-.163-2.648,0-.288-.024-.528-.034-.72A1.135,1.135,0,0,1,389.212,179.9Z" transform="translate(-329.29 -147.062)" fill="#263238"/>
      <path id="Path_166677" data-name="Path 166677" d="M371.775,165.21a9.173,9.173,0,0,0-.446,1.391,9.945,9.945,0,0,0,0,1.439,1.919,1.919,0,0,1-.249-1.5A1.948,1.948,0,0,1,371.775,165.21Z" transform="translate(-319.835 -139.42)" fill="#263238"/>
      <path id="Path_166678" data-name="Path 166678" d="M378.631,166.74a.827.827,0,0,1,.235.413,2.322,2.322,0,0,1-.432,2.183c-.192.221-.355.312-.374.288a4.8,4.8,0,0,0,.624-1.372,5.046,5.046,0,0,0-.053-1.511Z" transform="translate(-323.496 -140.216)" fill="#263238"/>
      <path id="Path_166679" data-name="Path 166679" d="M385.241,168.54c.024,0,.154.115.269.384a2.073,2.073,0,0,1-.35,2.164c-.2.221-.36.3-.379.278a2.8,2.8,0,0,0,.48-2.826Z" transform="translate(-326.992 -141.152)" fill="#263238"/>
      <path id="Path_166680" data-name="Path 166680" d="M355.31,177.273a9.434,9.434,0,0,0-6.716-6.361,8.291,8.291,0,0,0-8.4,2.677l-2.878,6.117c1.276-.71,3.32-4.86,5.7-6.27s5.028-1.439,6.985.523a8.1,8.1,0,0,1,2.485,5.584c-.067,4.02-1.741,7.791-2.96,11.629-1.564,4.922-2.8,10.17-6.414,13.869-2.9,2.97-6.788,4.74-10.554,6.443-.892.734-2.955,3.4-1.89,3.838s4.936-.959,6.035-1.3c2.739-.835,5.584-1.732,7.676-3.7,1.919-1.828,2.984-4.375,3.982-6.841,1.919-4.759,3.176-9.719,5.1-14.483C355.09,184.944,356.711,181.418,355.31,177.273Z" transform="translate(-298.683 -142.272)" fill="#455a64"/>
      <path id="Path_166681" data-name="Path 166681" d="M362.918,287.174l-2.188-3.694-7.321,2.552h0s.48,6.505,1.439,6.692a2.01,2.01,0,0,0,1.636-.441s.547,1.7,1.641,1.77l.609.029a2.861,2.861,0,0,0,2.231.662s.844,1.833,1.526,1.641,1.123-2.4,1.123-2.4Z" transform="translate(-310.671 -200.952)" fill="#ffbe9d"/>
      <path id="Path_166682" data-name="Path 166682" d="M348.91,174.2a7.676,7.676,0,0,0-4.98,5.68c-1.439,6.894-4.874,24.946-4.735,27.488.178,3.233,6.342,22.394,6.342,22.394l8.635-2.6-3.919-21.588s6.117-20.2,6.6-23.267C357.377,178.955,354.451,172.282,348.91,174.2Z" transform="translate(-303.273 -143.92)" fill="#c2341c"/>
      <path id="Path_166683" data-name="Path 166683" d="M348.81,174.182a5.28,5.28,0,0,1,.672-.216,4.8,4.8,0,0,1,2.044-.106,5.147,5.147,0,0,1,2.854,1.583,9.825,9.825,0,0,1,2.509,6.472,6.751,6.751,0,0,1-.177,1.406c-.1.48-.216.959-.331,1.439-.48,1.919-1.075,4-1.708,6.193-1.271,4.394-2.749,9.312-4.39,14.622v-.053l3.929,21.588v.11l-.106.034-4.049,1.214-4.605,1.386-.12.034-.034-.115c-1.281-3.929-2.49-7.767-3.6-11.48-.552-1.857-1.089-3.68-1.573-5.478-.24-.9-.48-1.785-.686-2.672-.11-.441-.2-.887-.288-1.329a9.648,9.648,0,0,1-.149-1.338,21.257,21.257,0,0,1,.235-2.629c.12-.854.24-1.693.374-2.523.259-1.655.542-3.253.816-4.8.552-3.089,1.1-5.953,1.6-8.558l1.386-7.023a26.639,26.639,0,0,1,.652-2.878,8.361,8.361,0,0,1,1.132-2.188,7.676,7.676,0,0,1,2.538-2.24,5.759,5.759,0,0,1,1.084-.48s-.091.048-.273.125a6.722,6.722,0,0,0-.787.389,7.728,7.728,0,0,0-2.485,2.25,8.424,8.424,0,0,0-1.1,2.168,28.583,28.583,0,0,0-.628,2.85c-.4,2.068-.849,4.423-1.353,7.028s-1.027,5.479-1.569,8.563c-.269,1.545-.542,3.142-.8,4.8-.134.825-.254,1.665-.369,2.519a22.2,22.2,0,0,0-.225,2.59,9.481,9.481,0,0,0,.182,1.3c.082.441.177.878.288,1.319.2.883.446,1.77.686,2.662.48,1.794,1.027,3.617,1.578,5.469,1.118,3.708,2.327,7.546,3.608,11.475l-.153-.082,4.605-1.382,4.049-1.219-.086.144c-1.391-7.676-2.71-14.982-3.91-21.588v-.058c1.646-5.311,3.137-10.218,4.423-14.608.638-2.192,1.233-4.255,1.727-6.179a13.75,13.75,0,0,0,.523-2.792,9.81,9.81,0,0,0-2.437-6.4,5.109,5.109,0,0,0-2.792-1.583,4.846,4.846,0,0,0-2.024.072,4.62,4.62,0,0,0-.5.134A1.692,1.692,0,0,1,348.81,174.182Z" transform="translate(-303.174 -143.887)" fill="#263238"/>
      <path id="Path_166684" data-name="Path 166684" d="M357.371,237.931a8.453,8.453,0,0,0-4.7-1.588,5.277,5.277,0,0,1,4.7,1.588Z" transform="translate(-310.286 -176.391)" fill="#263238"/>
      <g id="Group_7014" data-name="Group 7014" transform="translate(35.389 59.554)" opacity="0.3">
        <path id="Path_166685" data-name="Path 166685" d="M342.877,255.835c-4.025-5.968-6.141-14.31-3.838-20.245a21.246,21.246,0,0,0,1.031,10.252c1.06,3.449,2.327,6.889,2.533,10.492" transform="translate(-338.089 -235.59)"/>
      </g>
    </g>
    <path id="Path_166686" data-name="Path 166686" d="M286.471,441.334,274.555,428.76l-9.767.552-6.918,2.734-4.39,9.288" transform="translate(-125.442 2.016)" fill="#f5f5f5"/>
    <path id="Path_166687" data-name="Path 166687" d="M277.05,429.312l10.118,12.022h11.566L286.817,428.76Z" transform="translate(-137.705 2.016)" fill="#e0e0e0"/>
    <path id="Path_166688" data-name="Path 166688" d="M253.48,441.255a.9.9,0,0,1,.067-.177l.216-.5c.211-.456.48-1.089.863-1.89l3.147-6.759v-.038h.043l6.908-2.754h.038l4.692-.269,5.08-.283h.058l.038.043,8.491,9.019,2.466,2.658c.273.3.48.537.652.72a1.437,1.437,0,0,1,.216.259,2.847,2.847,0,0,1-.245-.23l-.686-.691-2.519-2.61c-2.149-2.245-5.133-5.373-8.554-8.956l.1.038-5.08.288-4.692.259h.038l-6.922,2.715.053-.053c-1.329,2.778-2.437,5.09-3.224,6.716l-.916,1.866-.245.48A.878.878,0,0,1,253.48,441.255Z" transform="translate(-125.442 2.109)" fill="#263238"/>
    <path id="Path_166689" data-name="Path 166689" d="M141.28,443.9l4.548-7.9,8.295-2.312,7.757,6.6V443.9" transform="translate(-67.068 -0.549)" fill="#ebebeb"/>
    <path id="Path_166690" data-name="Path 166690" d="M150.76,436l16.052,4.284-7.757-6.6Z" transform="translate(-72 -0.549)" fill="#e0e0e0"/>
    <path id="Path_166691" data-name="Path 166691" d="M161.864,443.783a1.033,1.033,0,0,1-.024-.25v-.705c0-.652,0-1.545-.034-2.658l.024.058-7.786-6.563.115.024-1.909.5-6.409,1.775.067-.053-3.339,5.694c-.4.672-.724,1.209-.959,1.6l-.259.422a1.118,1.118,0,0,1-.1.139.691.691,0,0,1,.067-.158l.23-.437.907-1.636,3.243-5.718v-.043h.048l6.419-1.813,1.89-.523h.062l.048.043,7.733,6.63.029.024v.038c0,1.113-.029,2.005-.038,2.658v.705A1.032,1.032,0,0,1,161.864,443.783Z" transform="translate(-67.053 -0.419)" fill="#263238"/>
    <path id="Path_166692" data-name="Path 166692" d="M432.439,418.268l-11.513-6.558-20.216,7.364-16.33,13.389,57.769-.3Z" transform="translate(-193.546 10.886)" fill="#f5f5f5"/>
    <path id="Path_166693" data-name="Path 166693" d="M384.38,431.891l20.715-12.022,27.345-2.173-11.974-7.086L400.71,418.5Z" transform="translate(-193.546 11.459)" fill="#e0e0e0"/>
    <path id="Path_166695" data-name="Path 166695" d="M384.38,431.681s0-.029.072-.072l.221-.2.873-.739,3.329-2.768,11.763-9.7h0l14.392-5.853,5.315-2.149.058-.024.053.034,11.993,7.2h0l7.014,10.113,1.943,2.83.48.753a2.965,2.965,0,0,1,.163.259s-.067-.077-.187-.245l-.533-.729c-.48-.657-1.137-1.6-1.991-2.8l-7.086-10.074.034.029-11.993-7.172h.106l-5.311,2.154-14.421,5.829h.029l-11.821,9.633-3.358,2.72-.84.715-.235.182Z" transform="translate(-193.546 11.682)" fill="#263238"/>
    <path id="Path_166697" data-name="Path 166697" d="M571.959,437.629l-6.918-2.739-11.533,2.1L547.92,444.5l27.368.024Z" transform="translate(-278.631 -1.174)" fill="#f5f5f5"/>
    <path id="Path_166698" data-name="Path 166698" d="M559.57,436.992c.336-.062,18.451.643,18.451.643L571.1,434.9Z" transform="translate(-284.692 -1.179)" fill="#e0e0e0"/>
    <path id="Path_166699" data-name="Path 166699" d="M547.93,444.374a.61.61,0,0,1,.086-.149l.288-.413,1.113-1.55,4.011-5.469.024-.034h.043l8.582-1.574,2.95-.537h.067L572,437.4h.038v.034l2.4,5.037.643,1.4.163.369a.611.611,0,0,1,.048.134.476.476,0,0,1-.077-.12l-.187-.36c-.173-.336-.408-.8-.7-1.377-.6-1.219-1.439-2.931-2.461-4.994l.053.048L565,434.861h.067l-2.95.537-8.582,1.54.067-.038c-1.679,2.221-3.08,4.082-4.087,5.411l-1.161,1.511-.312.393A1.077,1.077,0,0,1,547.93,444.374Z" transform="translate(-278.637 -1.049)" fill="#263238"/>
  </g>
</svg>
