<svg xmlns="http://www.w3.org/2000/svg" width="23.625" height="27" viewBox="0 0 23.625 27">
  <g id="Group_7043" data-name="Group 7043" transform="translate(-226 -762)">
    <path id="Icon_awesome-calendar-alt" data-name="Icon awesome-calendar-alt" d="M0,24.469A2.532,2.532,0,0,0,2.531,27H21.094a2.532,2.532,0,0,0,2.531-2.531V10.125H0ZM16.875,14.133a.635.635,0,0,1,.633-.633h2.109a.635.635,0,0,1,.633.633v2.109a.635.635,0,0,1-.633.633H17.508a.635.635,0,0,1-.633-.633Zm0,6.75a.635.635,0,0,1,.633-.633h2.109a.635.635,0,0,1,.633.633v2.109a.635.635,0,0,1-.633.633H17.508a.635.635,0,0,1-.633-.633Zm-6.75-6.75a.635.635,0,0,1,.633-.633h2.109a.635.635,0,0,1,.633.633v2.109a.635.635,0,0,1-.633.633H10.758a.635.635,0,0,1-.633-.633Zm0,6.75a.635.635,0,0,1,.633-.633h2.109a.635.635,0,0,1,.633.633v2.109a.635.635,0,0,1-.633.633H10.758a.635.635,0,0,1-.633-.633Zm-6.75-6.75a.635.635,0,0,1,.633-.633H6.117a.635.635,0,0,1,.633.633v2.109a.635.635,0,0,1-.633.633H4.008a.635.635,0,0,1-.633-.633Zm0,6.75a.635.635,0,0,1,.633-.633H6.117a.635.635,0,0,1,.633.633v2.109a.635.635,0,0,1-.633.633H4.008a.635.635,0,0,1-.633-.633ZM21.094,3.375H18.563V.844A.846.846,0,0,0,17.719,0H16.031a.846.846,0,0,0-.844.844V3.375H8.438V.844A.846.846,0,0,0,7.594,0H5.906a.846.846,0,0,0-.844.844V3.375H2.531A2.532,2.532,0,0,0,0,5.906V8.438H23.625V5.906A2.532,2.532,0,0,0,21.094,3.375Z" transform="translate(226 762)" fill="#c3c3c3"/>
  </g>
</svg>
